<svg id="Layer_1" data-name="Layer 1" xmlns="http://www.w3.org/2000/svg" viewBox="0 0 37 37"><defs><style>.cls-1{fill:#0f74af;}</style></defs><title>Artboard 4</title><path class="cls-1" d="M18.53,1.16A17.34,17.34,0,1,0,35.87,18.5,17.34,17.34,0,0,0,18.53,1.16Zm.35,15.63c3.06.77,6.87,1.72,6.87,5.73,0,2.59-2.12,4.78-5.05,5.52v3.15H16.37V28c-2.94-.74-5.06-2.93-5.06-5.52H14.2c0,1.56,2,2.89,4.33,2.89s4.33-1.33,4.33-2.89-1.5-2.16-4.68-2.93-6.87-1.72-6.87-5.73c0-2.58,2.12-4.78,5.06-5.51V5.2H20.7V8.35c2.93.73,5.05,2.93,5.05,5.51H22.86c0-1.56-2-2.89-4.33-2.89S14.2,12.3,14.2,13.86,15.7,16,18.88,16.79Z"/></svg>