<svg id="Layer_1" data-name="Layer 1" xmlns="http://www.w3.org/2000/svg" viewBox="0 0 37 37"><defs><style>.cls-1{fill:#0f74af;}</style></defs><title>Artboard 2</title><path class="cls-1" d="M30.75,6.25A16.54,16.54,0,0,0,18.5,1.17,16.53,16.53,0,0,0,6.26,6.25,16.51,16.51,0,0,0,1.17,18.5,16.53,16.53,0,0,0,6.25,30.74,16.51,16.51,0,0,0,18.5,35.83a16.53,16.53,0,0,0,12.24-5.08A16.51,16.51,0,0,0,35.83,18.5,16.54,16.54,0,0,0,30.75,6.25M27.17,18.5V28.9H21.1V20.23H15.9V28.9H9.83V18.5H6.37L18.5,6.37l13,12.13Z"/></svg>