<svg width="212" height="129" viewBox="0 0 212 129" fill="none" xmlns="http://www.w3.org/2000/svg">
<g clip-path="url(#clip0_2952_69291)">
<path d="M77.0654 47.2621H83.3954V65.223C83.3954 66.7281 82.9935 68.2332 82.2902 69.7383C81.5868 71.0427 80.4816 72.0461 79.0749 72.7485C77.6682 73.4509 76.1611 73.8522 74.453 73.8522C72.0416 73.9526 69.6301 73.2502 67.8216 71.7451C66.214 70.1397 65.3097 67.8318 65.5106 65.6243H71.8406C71.7401 66.5274 71.9411 67.4305 72.4435 68.1329C72.9459 68.7349 73.6492 69.0359 74.453 68.9356C75.2568 68.9356 76.0606 68.6346 76.4625 67.9322C76.9649 67.1294 77.2663 66.2264 77.1659 65.223V47.2621H77.0654ZM107.811 47.2621V64.4203C107.811 66.126 107.409 67.9322 106.605 69.4373C105.802 70.842 104.596 71.9458 102.988 72.6482C101.28 73.4509 99.3711 73.8522 97.4621 73.7519C94.7492 73.9526 92.0363 73.0495 89.9263 71.3437C88.1178 69.638 87.113 67.1294 87.113 64.6209V47.2621H93.443V64.6209C93.5435 67.4305 94.8497 68.9356 97.4621 68.9356C98.5673 69.0359 99.5721 68.6346 100.376 67.8318C101.18 66.8284 101.481 65.6243 101.381 64.3199V47.2621H107.811ZM118.06 64.5206V73.3505H111.73V47.2621H122.179C123.988 47.2621 125.897 47.5631 127.504 48.3658C128.911 49.0682 130.217 50.0716 131.122 51.4764C131.925 52.8811 132.428 54.3863 132.428 56.092C132.528 58.3999 131.523 60.7077 129.715 62.2128C127.605 63.8182 124.892 64.6209 122.28 64.4203H118.06V64.5206ZM118.06 59.7043H122.179C123.184 59.8046 124.189 59.4033 124.892 58.8012C125.595 58.0988 125.897 57.1958 125.796 56.2927C125.796 55.2893 125.495 54.1856 124.792 53.3828C124.088 52.6805 123.184 52.2791 122.179 52.2791H117.959L118.06 59.7043ZM142.375 73.3505H136.045V47.2621H142.375V73.3505ZM166.69 52.1788H158.853V73.3505H152.523V52.1788H144.887V47.2621H166.69V52.1788ZM185.58 62.4135H175.733V68.6346H187.489V73.4509H169.503V47.3624H187.589V52.2791H175.833V57.7978H185.68V62.5138H185.58V62.4135ZM199.646 64.2196H196.331V73.3505H190.001V47.2621H200.35C202.862 47.0614 205.474 47.7638 207.584 49.2689C209.292 50.6737 210.297 52.8811 210.196 55.0886C210.297 56.5937 209.895 58.1992 209.091 59.6039C208.287 61.0087 207.082 61.9118 205.574 62.5138L211 73.0495V73.3505H204.268L199.646 64.2196ZM196.23 59.3029H200.249C201.254 59.4033 202.158 59.0019 202.862 58.3999C203.464 57.6975 203.866 56.7944 203.766 55.791C203.866 54.888 203.464 53.8846 202.862 53.1822C202.158 52.4798 201.154 52.1788 200.249 52.1788H196.23V59.3029Z" fill="white"/>
<path d="M74.453 73.8521C76.0606 73.8521 77.5678 73.4507 79.0749 72.7484C80.4816 72.046 81.5868 71.0426 82.2901 69.7382C82.9935 68.3334 83.3954 66.8283 83.3954 65.2229V62.1123C81.1849 62.313 79.0749 62.4133 77.1659 62.5137V65.2229C77.2663 66.2263 76.9649 67.1293 76.4625 67.932C76.0606 68.6344 75.2568 68.9354 74.453 68.9354C73.6492 69.0358 72.9459 68.7348 72.4435 68.1327C71.9411 67.4303 71.7401 66.5273 71.8406 65.6242H65.5106C65.3097 67.8317 66.214 70.1395 67.8216 71.745C69.6301 73.2501 71.9411 73.9524 74.453 73.8521Z" fill="#F6BD95" fill-opacity="0.5"/>
<path d="M101.38 60.6074V64.32C101.481 65.5241 101.179 66.7282 100.376 67.8319C99.5718 68.6346 98.5671 69.036 97.4618 68.9356C94.9499 68.9356 93.5433 67.5309 93.4428 64.621V61.4101C91.2323 61.6108 89.1223 61.8115 87.1128 61.9118V64.621C87.1128 67.1295 88.1176 69.638 89.9261 71.3438C92.0361 73.0496 94.749 73.9527 97.4618 73.752C99.3709 73.8523 101.28 73.4509 102.988 72.6482C104.495 71.9458 105.701 70.8421 106.605 69.4373C107.409 67.9322 107.811 66.2265 107.811 64.4203V60.0054C105.5 60.2061 103.39 60.4067 101.38 60.6074Z" fill="#F6BD95" fill-opacity="0.5"/>
<path d="M132.227 57.2959C130.016 57.4966 127.705 57.7976 125.394 57.9983C125.294 58.2993 125.093 58.6003 124.892 58.801C124.189 59.403 123.184 59.8044 122.179 59.7041H118.059V58.801C115.849 59.102 113.739 59.3027 111.729 59.5034V73.3503H118.059V64.5204H122.179C124.791 64.7211 127.504 63.9183 129.614 62.3129C131.121 61.0085 132.026 59.2024 132.227 57.2959Z" fill="#F6BD95" fill-opacity="0.5"/>
<path d="M190 73.3506H196.33V64.2196H199.646L204.268 73.3506H211V73.0496L205.976 63.2162C201.555 61.3098 196.23 59.8047 190 58.6006V73.3506Z" fill="#F6BD95" fill-opacity="0.5"/>
<path d="M142.375 56.4932C140.365 56.5935 138.155 56.7942 136.045 56.9949V73.3503H142.375V56.4932Z" fill="#F6BD95" fill-opacity="0.5"/>
<path d="M158.853 73.3505V55.9917C156.743 55.9917 154.733 55.9917 152.523 56.092V73.3505H158.853Z" fill="#F6BD95" fill-opacity="0.5"/>
<path d="M169.503 56.2925V73.3503H187.489V68.534H175.733V62.3129H185.58H185.68V57.7976C185.178 57.6972 184.776 57.6972 184.273 57.5969H175.833V56.5935C173.723 56.4932 171.613 56.3928 169.503 56.2925Z" fill="#F6BD95" fill-opacity="0.5"/>
<path d="M27.9324 88H27.3295C26.5257 87.8997 25.8224 87.8997 25.119 87.8997C23.3105 87.699 21.6024 87.2976 19.8943 86.6956C17.4829 85.8929 15.2724 84.7891 13.1624 83.3844C11.8562 82.5816 10.6505 81.5782 9.54524 80.5748C7.63619 78.869 5.9281 76.8623 4.52143 74.7551C2.31095 71.4439 0.904286 67.7313 0.200952 63.818C0.100476 62.8146 0.100476 61.9116 0 61.0085C0 60.9082 0 60.8078 0 60.8078V60.2058C0.100476 60.0051 0 59.8044 0.100476 59.7041C0.200952 59.6037 0.200952 59.3027 0.100476 59.102V58.0986C0.200952 57.898 0.100476 57.6973 0.200952 57.4966C0.301429 57.2959 0.301429 57.0952 0.200952 56.9949V56.3929C0.301429 55.6905 0.301429 54.9881 0.401905 54.3861C0.602857 52.5799 1.00476 50.8742 1.60762 49.1684C2.41143 46.5595 3.71762 44.1514 5.22476 41.9439C6.53095 40.0374 7.93762 38.3316 9.64571 36.7262C11.8562 34.7194 14.2676 33.1139 16.9805 31.8095C19.3919 30.6054 22.0043 29.8027 24.6167 29.4014C25.521 29.301 26.3248 29.2007 27.229 29.2007H28.1333C28.3343 29.301 28.5352 29.2007 28.6357 29.301C28.8367 29.4014 29.0376 29.4014 29.2386 29.301H30.2433C30.4443 29.4014 30.6452 29.301 30.7457 29.4014C30.9467 29.5017 31.0471 29.4014 31.2481 29.4014H31.851C32.6548 29.4014 33.3581 29.4014 34.1619 29.4014C34.8652 29.5017 35.5686 29.602 36.1714 29.7024C44.2095 31.3078 51.2429 36.4252 55.3624 43.6497C57.0705 46.6599 58.2762 49.8708 58.879 53.2823C58.9795 54.1854 59.08 55.0884 59.08 56.0918V56.9949C58.9795 57.1956 59.08 57.3963 59.08 57.4966C59.08 57.5969 58.9795 57.898 59.08 58.0986V59.102C58.9795 59.3027 59.08 59.5034 59.08 59.6037C59.08 59.7041 58.9795 60.0051 59.08 60.2058V60.8078C58.9795 61.5102 58.9795 62.2126 58.879 62.8146C58.6781 64.6208 58.2762 66.3265 57.6733 68.0323C56.8695 70.6412 55.5633 73.0493 54.0562 75.2568C52.75 77.1633 51.2429 78.9694 49.5348 80.4745C47.3243 82.4813 44.9129 84.0867 42.2 85.3912C39.7886 86.5952 37.1762 87.398 34.5638 87.7993C33.6595 87.8997 32.8557 88 31.9514 88C31.851 88 31.7505 88 31.65 88.1003H31.0471C30.8462 88 30.7457 88.1003 30.5448 88C30.3438 87.8997 30.1429 88 30.0424 88.1003H29.0376C28.8367 88 28.6357 88.1003 28.4348 88C28.2338 87.8997 28.1333 87.8997 27.9324 88Z" fill="#E97D2E"/>
<path d="M0 59.002C0.100476 59.2026 0.100476 59.4033 0.100476 59.604C0.100476 59.7043 0 59.7043 0 59.604V59.002Z" fill="#EE914C"/>
<path d="M28.5351 29.0002C28.3341 29.0002 28.1332 29.1006 28.0327 28.8999L28.5351 29.0002Z" fill="#F1A973"/>
<path d="M0 56.895C0.200952 57.0957 0.100476 57.2964 0.100476 57.3967C0.100476 57.4971 0 57.4971 0 57.4971V56.895Z" fill="#F1A973"/>
<path d="M28.5352 29.0002L29.1381 28.8999C28.9371 29.1006 28.7362 29.1006 28.5352 29.0002ZM0 57.4968C0.100476 57.6975 0.100476 57.8982 0 58.0989V57.4968Z" fill="#EE914C"/>
<path d="M0 59.604C0.100476 59.8047 0.200952 60.0054 0 60.1057V59.604ZM27.9324 88.0003C28.1333 87.7996 28.3343 87.8999 28.4348 87.8999C28.5352 87.8999 28.5352 88.0003 28.5352 88.0003H27.9324Z" fill="#F1A973"/>
<path d="M28.5352 88.0002C28.7361 87.8999 28.9371 87.8999 29.138 88.0002H28.5352ZM30.0423 88.0002C30.2433 87.8999 30.4442 87.8999 30.6452 87.8999C30.7456 87.8999 30.7456 88.0002 30.6452 88.0002H30.0423Z" fill="#EE914C"/>
<path d="M30.645 29.0002L31.1474 28.8999C30.9464 29.1006 30.7455 29.0002 30.645 29.0002ZM30.645 88.0002C30.846 87.8999 30.9464 87.8999 31.1474 88.0002H30.645Z" fill="#F1A973"/>
<path d="M49.0324 50.7739C49.7357 50.9746 50.4391 50.7739 51.0419 50.9746C51.2429 50.9746 51.4438 51.1753 51.4438 51.376C51.7453 52.7807 51.9462 54.1855 51.9462 55.5903C51.9462 55.7909 51.9462 55.9916 51.8457 56.092C48.731 56.092 45.6162 56.393 42.5014 56.7943C37.0757 57.6974 31.7505 59.1022 26.6262 61.109C23.9134 62.1124 21.2005 63.1158 18.5881 64.4202C16.3776 65.5239 14.2676 66.728 12.1576 68.0324C11.6553 67.9321 11.3538 67.33 11.4543 66.8283L16.9805 63.8181L21.8034 61.2093C22.3057 61.0086 22.6072 60.5069 22.5067 60.0052C22.4062 59.5035 21.9038 59.1022 21.4015 59.0018C20.1957 58.9015 19.2915 57.7977 19.3919 56.5937C19.3919 56.393 19.4924 56.092 19.5929 55.8913C19.6934 55.5903 19.8943 55.3896 20.1957 55.2892C22.0043 54.2858 23.9134 53.4831 25.9229 53.0817C27.9324 52.58 30.0424 52.279 32.1524 51.978C33.3581 51.7773 34.6643 51.5766 35.87 51.376C37.0757 51.1753 38.4824 51.0749 39.7886 50.9746C41.0948 50.8743 42.401 50.7739 43.7072 50.7739C44.2095 50.7739 44.7119 50.7739 45.2143 50.7739C46.5205 50.7739 47.8267 50.7739 49.0324 50.7739Z" fill="#F5B789"/>
<path d="M50.9416 49.3695C49.4344 49.3695 47.9273 49.1688 46.4201 49.2692C44.2097 49.3695 41.9992 49.4699 39.7887 49.6705C34.6644 49.9716 29.6406 50.7743 24.7173 52.0787C22.8082 52.5804 20.9997 53.3831 19.2916 54.2862C18.4877 54.6876 18.0858 55.4903 17.9854 56.3933C17.6839 58.0991 18.6887 59.7046 20.3968 60.2063L20.6982 60.3066C17.3825 62.1127 14.0668 63.7182 10.8516 65.725C10.6506 65.725 10.5501 65.6246 10.4497 65.4239C10.2487 64.9222 10.0477 64.3202 9.84679 63.8185C9.74632 63.6178 9.84679 63.4171 9.94727 63.3168C10.952 62.7148 11.9568 62.0124 12.9616 61.4103C14.1673 60.8083 14.7701 59.4035 14.4687 58.0991C14.0668 56.1927 14.9711 55.0889 16.2773 54.1859C17.7844 53.1825 19.4925 52.2794 21.2006 51.4767C24.9182 49.8712 28.7363 48.7675 32.7554 48.1654C35.4682 47.7641 38.1811 47.3627 40.8939 47.162C43.1044 46.9614 45.3149 46.861 47.5254 46.861H47.9273C48.3292 46.861 48.7311 46.861 49.133 46.861C49.5349 46.7607 49.8363 46.9614 49.9368 47.3627C50.1377 47.7641 50.3387 48.1654 50.4392 48.5668C50.5397 48.8678 50.7406 49.0685 50.8411 49.3695C50.9416 49.2692 50.9416 49.2692 50.9416 49.3695ZM12.9616 69.2369C13.7654 68.6348 14.6697 68.1331 15.4735 67.6314C18.8897 65.6246 22.5068 63.9188 26.2244 62.5141C30.4444 60.8083 34.7649 59.6042 39.1858 58.6008C42.3006 57.9988 45.3149 57.5974 48.4297 57.3967C48.932 57.4971 49.4344 57.4971 49.9368 57.3967L50.1377 57.2964C50.5397 57.2964 50.8411 57.2964 51.243 57.2964C51.5444 57.2964 51.7454 57.3967 51.6449 57.7981C51.5444 58.4001 51.6449 59.0022 51.5444 59.6042C51.5444 59.8049 51.4439 60.1059 51.243 60.3066C50.8411 60.3066 50.5397 60.3066 50.1377 60.3066C50.6401 60.3066 51.1425 60.3066 51.6449 60.2063C52.1473 60.1059 52.6497 60.1059 53.152 60.2063C53.353 60.2063 53.4535 60.3066 53.4535 60.5073C51.042 60.4069 48.6306 60.5073 46.1187 60.8083C42.3006 61.31 38.583 61.912 34.8654 62.7148C30.8463 63.6178 26.9277 64.8219 23.1097 66.4273C20.8992 67.3304 18.6887 68.3338 16.5787 69.4376L14.0668 70.9427C13.8658 71.043 13.6649 70.9427 13.4639 70.742C13.1625 70.3406 12.8611 70.0396 12.5597 69.7386C12.8611 69.6382 12.8611 69.4376 12.9616 69.2369Z" fill="#F7C7A4"/>
<path d="M54.4582 45.2555C54.4582 45.3559 54.5587 45.3559 54.5587 45.4562C54.5587 45.4562 54.4582 45.5565 54.3577 45.5565C52.7501 45.5565 51.1425 45.7572 49.6353 45.6569C48.932 45.5565 48.2287 45.6569 47.6258 45.5565C47.1234 45.5565 46.6211 45.5565 46.1187 45.6569C45.8172 45.7572 45.4153 45.7572 45.1139 45.6569C44.8125 45.6569 44.5111 45.6569 44.2096 45.7572C44.0087 45.8576 43.7072 45.8576 43.5063 45.7572C41.9992 45.7572 40.492 45.9579 39.0853 46.0582C35.2673 46.4596 31.4492 47.162 27.7315 48.065C24.5163 48.8678 21.3011 50.0718 18.2868 51.577C16.7796 52.3797 15.373 53.3831 14.0668 54.5872C13.6649 55.0889 13.3634 55.7912 13.263 56.3933C13.1625 57.196 13.1625 57.9987 13.263 58.8014C13.3634 59.3031 13.062 59.9052 12.6601 60.1059C11.7558 60.7079 10.952 61.3099 10.0477 61.8116C9.84677 61.912 9.7463 61.8116 9.64582 61.611C9.54534 61.2096 9.34439 60.9086 9.24391 60.6076C9.14344 60.3065 9.44487 60.2062 9.54534 60.1059C10.2487 59.6042 10.7511 58.9018 11.153 58.0991C11.4544 57.497 11.2534 56.7946 10.6506 56.3933C10.4496 56.2929 10.2487 56.1926 9.94725 56.1926C9.44487 56.2929 8.94249 56.2929 8.4401 56.2929C8.23915 56.1926 8.13868 56.0923 8.13868 55.8916C8.0382 55.1892 7.93772 54.4868 8.0382 53.8848C9.84677 52.781 11.6553 51.7776 13.5644 50.9749C17.0811 49.4698 20.5977 48.1654 24.2149 46.9613C28.5353 45.5565 32.9563 44.6535 37.4777 44.1518C39.8892 43.8508 42.4011 43.6501 44.913 43.6501C45.0134 43.6501 45.1139 43.6501 45.2144 43.5497C45.7168 43.4494 46.2192 43.4494 46.7215 43.4494H48.6306C48.7311 43.4494 48.8315 43.3491 48.932 43.5497V43.6501C48.5301 44.0514 48.5301 44.0514 48.932 44.6535C49.0325 44.7538 49.0325 44.8542 49.133 44.9545C49.2334 45.2555 49.133 45.3559 48.8315 45.3559H47.023C47.1234 45.3559 47.1234 45.3559 47.2239 45.3559C48.4296 45.3559 49.5349 45.2555 50.6401 45.1552C51.1425 45.1552 51.5444 45.1552 52.0468 45.1552C52.5492 45.2555 52.9511 45.2555 53.4534 45.2555C53.7549 45.2555 54.0563 45.2555 54.4582 45.2555Z" fill="#F8CEAF"/>
<path d="M43.9083 38.5327C42.8031 38.5327 41.5974 38.5327 40.4921 38.633C37.8797 38.8337 35.2674 39.1347 32.655 39.6364C29.1383 40.3388 25.6216 41.3422 22.2054 42.4459C18.7893 43.5497 15.4735 44.8541 12.2583 46.2589C10.9521 46.8609 9.64592 47.5633 8.44021 48.1653C8.33973 48.1653 8.23926 48.1653 8.23926 48.065C8.23926 48.065 8.23926 48.065 8.23926 47.9646C8.23926 47.1619 8.44021 46.2589 8.94259 45.5565C9.7464 44.9544 10.5502 44.4527 11.4545 44.0514C14.4688 42.4459 17.5835 41.1415 20.7988 39.9374C23.7126 38.934 26.5259 38.031 29.5402 37.3286C32.0521 36.7265 34.564 36.2248 37.0759 35.8235C37.8797 35.7231 38.5831 35.6228 39.3869 35.5225C40.7935 36.0242 42.2002 36.8269 43.3054 37.8303C43.5064 37.9306 43.6069 38.1313 43.8078 38.1313C43.8078 38.332 43.9083 38.332 43.9083 38.5327ZM48.3293 64.3201C47.224 64.4204 46.1188 64.5208 45.0135 64.6211C42.7026 64.9221 40.2912 65.2231 38.0807 65.8252C34.6645 66.6279 31.3488 67.6313 28.1335 68.9357C25.3202 70.0395 22.6074 71.3439 19.995 72.9493C19.3921 73.2504 18.7893 73.6517 18.1864 73.9527C17.885 74.0531 17.5835 73.9527 17.3826 73.7521C16.7797 73.3507 16.2774 72.9493 15.775 72.4476C15.6745 72.3473 15.4735 72.1466 15.574 71.9459C16.3778 71.4442 17.2821 70.9425 18.0859 70.4408C21.8035 68.434 25.8226 66.8286 29.9421 65.6245C33.1574 64.6211 36.4731 63.8184 39.7888 63.2163C42.2002 62.7146 44.7121 62.3133 47.224 62.1126C48.0278 62.0123 48.7312 61.9119 49.535 61.8116C50.1378 61.7112 50.7407 61.7112 51.3435 61.8116H51.5445C51.5445 62.6143 51.2431 63.5174 50.8412 64.2197C50.6402 64.2197 50.3388 64.1194 50.0374 64.3201C49.4345 64.4204 48.8316 64.4204 48.3293 64.3201Z" fill="#F5B789"/>
<path d="M43.2047 42.245C42.5014 42.3453 41.8985 42.4456 41.1952 42.4456C37.8795 42.7467 34.5637 43.148 31.248 43.8504C28.2337 44.4524 25.2195 45.2552 22.3056 46.2586C18.2866 47.6633 14.368 49.1684 10.4495 50.9746C9.64565 51.3759 8.94231 51.7773 8.1385 52.1786C7.93755 52.279 7.83708 52.1786 7.83708 51.978C7.7366 51.4763 7.7366 50.8742 7.83708 50.2722C7.93755 50.1718 8.03803 50.0715 8.1385 50.0715C8.84184 49.5698 9.54517 49.1684 10.2485 48.8674C16.3776 45.7569 22.9085 43.449 29.6404 41.9439C32.9561 41.1412 36.3723 40.5392 39.7885 40.2382C41.0947 40.0375 42.4009 39.9371 43.7071 40.1378C44.2094 40.2382 44.8123 39.9371 45.3147 40.1378C45.3147 40.6395 45.7166 40.8402 46.018 41.2416C46.3195 41.5426 46.4199 41.6429 46.5204 41.9439C46.7214 42.1446 46.7214 42.245 46.6209 42.3453C46.5204 42.546 46.3195 42.4456 46.219 42.4456H43.5061C43.5061 42.1446 43.3052 42.1446 43.2047 42.245ZM36.4728 34.6191L32.1523 35.4218C27.6309 36.3249 23.1095 37.6293 18.789 39.3351C16.478 40.1378 14.2675 41.1412 11.9566 42.245C11.1528 42.6463 10.2485 43.148 9.44469 43.5494C9.14327 43.5494 9.14327 43.3487 9.24374 43.148C9.44469 42.1446 9.8466 41.2416 10.349 40.4388C11.4542 39.6361 12.7604 38.8334 13.9661 38.2314C17.7842 36.1242 21.9037 34.4184 26.2242 33.415C27.3295 33.114 28.5352 32.9133 29.6404 32.6123C29.7409 32.6123 29.8414 32.6123 29.9418 32.6123C30.8461 32.813 31.6499 33.0137 32.5542 33.2143C33.6595 33.5154 34.8652 33.9167 35.9704 34.3181C36.1714 34.3181 36.3723 34.3181 36.4728 34.6191Z" fill="#F7C7A4"/>
<path d="M19.2912 74.8558C23.4107 72.3473 27.7312 70.3405 32.1522 68.8354C35.7693 67.6313 39.4869 66.7283 43.2045 66.2266C45.415 65.9255 47.6255 65.7249 49.836 65.6245C50.1374 65.6245 50.3384 65.7249 50.2379 66.0259C50.1374 66.3269 50.2379 66.3269 50.4388 66.4272C50.5393 66.4272 50.6398 66.5276 50.6398 66.6279C49.9365 66.7283 49.1326 66.7283 48.4293 66.7283C46.7212 66.9289 45.0131 67.1296 43.305 67.531C40.6926 68.0327 38.1807 68.7351 35.6688 69.7385C34.0612 70.3405 32.6545 71.1432 31.2479 72.1466C29.9417 73.0497 29.4393 74.6551 29.9417 76.1602C30.0422 76.4613 29.9417 76.6619 29.6403 76.7623C28.9369 77.1636 28.3341 77.4647 27.6307 77.7657C26.7265 77.866 25.9226 77.7657 25.1188 77.565C25.0184 77.565 24.9179 77.4647 24.8174 77.3643C24.7169 77.0633 24.8174 76.9629 25.0184 76.8626C25.4203 76.5616 25.7217 76.1602 25.9226 75.6585C26.2241 74.9561 25.9226 74.5548 25.2193 74.5548C24.2145 74.6551 23.2098 74.8558 22.205 75.1568C21.6022 75.3575 20.9993 75.5582 20.296 75.7589C19.9945 75.6585 19.5926 75.4578 19.2912 75.2572C19.3917 75.1568 19.1907 75.0565 19.2912 74.8558Z" fill="#F7C7A3"/>
<path d="M46.018 79.9731C42.7023 80.0734 39.3866 80.6755 36.2719 81.6789H36.1714C34.8652 81.8795 33.559 81.8795 32.3533 82.0802C32.1523 82.0802 31.9514 82.1806 31.65 82.1806C31.3485 82.1806 31.248 82.1806 31.248 81.9799C33.358 80.9765 35.5685 80.1738 37.8795 79.4714C38.8842 79.1704 38.8842 78.8693 38.7838 77.7656C38.6833 77.4646 38.6833 77.1635 38.4823 76.8625C38.4823 76.7622 38.5828 76.6618 38.6833 76.5615C39.4871 76.3608 40.2909 75.9595 41.1952 75.7588C41.2957 75.7588 41.2957 75.7588 41.3961 75.7588C41.798 76.5615 42.2 76.6618 43.1042 76.5615C44.8123 76.3608 46.5204 76.0598 48.329 75.9595C49.1328 75.8591 50.0371 76.0598 50.8409 76.2605C51.0419 76.3608 51.1423 76.4612 50.9414 76.6619C50.7404 76.8625 50.238 77.3642 49.9366 77.6653C49.2333 78.0666 48.6304 78.5683 47.9271 79.07C47.4247 79.6721 46.7214 79.9731 46.018 79.9731Z" fill="#F6BD95"/>
<path d="M30.7456 77.866C31.1475 77.565 31.3485 77.1636 31.4489 76.7623C31.5494 76.4613 31.5494 76.1602 31.4489 75.8592C31.3485 75.4579 31.3485 75.1568 31.3485 74.7555C31.3485 74.5548 31.4489 74.2538 31.5494 74.0531C32.7551 72.6483 34.3627 71.6449 36.1713 71.0429C39.9894 69.6381 43.908 68.7351 47.927 68.2334C50.037 67.9323 52.0466 67.9323 54.1566 68.133C54.1566 68.434 53.9556 68.7351 53.5537 68.8354C52.6494 68.8354 51.6447 68.8354 50.7404 68.9357C48.7308 69.0361 46.8218 69.3371 44.8123 69.8388C43.2047 70.2402 41.597 70.6415 39.9894 71.1432C38.6832 71.6449 37.377 72.247 36.1713 73.0497C35.267 73.6517 35.0661 74.9562 35.6689 75.7589C35.7694 75.9596 35.9704 76.1602 36.1713 76.2606C36.5732 76.5616 36.8747 76.8626 37.0756 77.264C37.0756 77.565 36.8747 77.6653 36.5732 77.7657C35.8699 77.9664 35.267 78.0667 34.5637 78.167C33.4585 78.2674 32.2527 78.2674 31.1475 78.2674C31.047 78.167 30.7456 78.2674 30.7456 77.866Z" fill="#F8CEAF"/>
<path d="M45.6162 81.478C40.7933 84.8896 34.9657 86.6957 29.0376 86.5954C34.0614 83.4848 39.7886 81.779 45.6162 81.478Z" fill="#F1A268"/>
<path d="M12.5597 36.1242C14.1673 34.9201 15.8754 33.8164 17.684 33.0137C22.5068 30.9065 27.8321 30.0035 33.0568 30.5052C32.6549 30.7059 32.253 30.7059 31.8511 30.7059C30.2435 30.9065 28.8368 31.3079 27.2292 31.6089C22.8083 32.6123 18.4878 34.2178 14.4687 36.4252C13.6649 36.8266 12.7606 37.3283 11.9568 37.83C11.5549 37.9303 11.6554 37.6293 11.7559 37.4286C11.8564 36.9269 12.1578 36.5256 12.5597 36.1242Z" fill="#F8CEAE"/>
<path d="M30.7458 77.8657C31.5496 77.9661 32.2529 78.0664 33.0567 77.966C34.162 77.966 35.2672 77.8657 36.272 77.5647C36.5734 77.5647 36.9753 77.364 37.1762 77.2637C37.2767 77.364 37.3772 77.4643 37.3772 77.5647C37.4777 77.8657 37.4777 78.1667 37.0758 78.2671C34.2624 79.0698 31.5496 80.1735 28.9372 81.3776L27.3296 82.1803C26.3248 82.2807 25.4205 82.2807 24.4158 81.9797C24.1143 81.9797 23.9134 81.8793 23.7124 81.779C23.5115 81.6786 23.3105 81.6786 23.411 81.3776L28.2339 79.0698L30.7458 77.8657Z" fill="#F7C6A1"/>
<path d="M41.4965 75.8593C41.4965 75.9596 41.396 76.06 41.2956 76.06C40.3913 76.2606 39.487 76.7624 38.5827 76.8627C38.1808 76.2607 37.6784 75.6586 37.0756 75.1569C36.6737 74.8559 36.6737 74.5549 37.176 74.2539C39.8889 72.5481 42.8027 71.5447 45.9175 71.043C46.4198 70.9426 46.9222 70.8423 47.4246 70.8423C47.5251 70.8423 47.5251 70.8423 47.6256 70.8423C48.0275 70.8423 48.0275 70.9426 47.8265 71.2436C47.726 71.344 47.6256 71.5447 47.6256 71.645C46.7213 71.8457 45.7165 71.946 44.8122 72.247C43.8075 72.4477 42.9032 72.9494 42.3003 73.6518C41.597 74.3542 41.396 75.0566 41.4965 75.8593Z" fill="#F7C7A3"/>
<path d="M21.301 80.8759L17.5834 82.682C17.4829 82.682 17.3824 82.7824 17.282 82.7824C16.7796 83.2841 16.2772 83.0834 15.7748 82.7824C14.4686 81.9797 13.1624 81.0766 11.8563 80.1735C11.6553 79.9729 11.5548 79.8725 11.8563 79.6718C12.7605 78.9695 13.7653 78.2671 14.8705 77.665C15.3729 77.8657 15.8753 77.8657 16.1767 78.3674C16.2772 78.6684 15.9758 78.7688 15.8753 78.9695C15.172 79.7722 15.5739 80.2739 16.2772 80.6752C16.8801 81.0766 17.7843 81.0766 18.3872 80.7756C18.7891 80.5749 19.2915 80.3742 19.6934 80.1735C19.7939 80.0732 19.9948 80.0732 20.1958 80.0732C20.3967 80.2739 20.6982 80.2739 20.9996 80.4746C21.301 80.7756 21.301 80.5749 21.301 80.8759Z" fill="#F4B180"/>
<path d="M23.3103 81.3779C24.1141 81.6789 25.0184 81.98 25.9227 81.98C26.4251 82.0803 26.9275 82.0803 27.4298 82.1807C27.0279 82.4817 26.5256 82.6823 26.1237 82.9834C25.0184 83.6857 23.9132 84.3881 22.8079 85.1909C22.607 85.3915 22.3056 85.3915 22.0041 85.2912C20.6979 84.9902 19.3917 84.4885 18.186 83.8864C19.8941 83.0837 21.6022 82.1806 23.3103 81.3779Z" fill="#F5B88B"/>
<path d="M15.4735 71.9458C16.1769 72.8489 17.0812 73.4509 18.1864 73.8523C16.5788 74.7553 15.1721 75.7587 13.464 76.7621C13.1626 76.8625 12.9616 76.7621 12.7607 76.5614C12.2583 76.1601 11.7559 75.7587 11.354 75.3574C11.1531 75.1567 10.9521 75.0563 11.1531 74.7553C12.5597 73.8523 13.9664 72.8489 15.4735 71.9458Z" fill="#F4AE7B"/>
<path d="M10.1482 63.2163C10.3491 64.019 10.6505 64.8217 10.952 65.6245L6.33006 68.434C6.22958 68.5343 6.12911 68.5343 6.02863 68.6347C5.7272 68.6347 5.62673 68.434 5.52625 68.2333C5.22482 67.7316 5.02387 67.2299 4.82292 66.8286C4.72244 66.6279 4.72244 66.4272 4.82292 66.2265C6.53101 65.1228 8.33958 64.2197 10.1482 63.2163Z" fill="#F6BD95"/>
<path d="M31.2482 81.8794C31.9515 81.8794 32.7553 81.6788 33.4587 81.6788C34.3629 81.5784 35.2672 81.5784 36.1715 81.6788C35.2672 81.9798 34.3629 82.2808 33.5591 82.6822C31.3487 83.5852 29.2387 84.5886 27.2291 85.8931C26.7267 86.1941 26.0234 86.2944 25.4206 86.1941C25.0187 86.1941 24.6167 85.9934 24.2148 85.9934C24.2148 85.7927 24.4158 85.7927 24.5163 85.6924C26.6263 84.2876 28.8367 83.0835 31.1477 81.9798L31.2482 81.8794Z" fill="#F4B180"/>
<path d="M47.7263 73.0498C49.0325 72.8491 50.2382 72.6484 51.5444 72.4477C52.3482 72.3474 53.152 72.2471 53.9558 72.2471C53.4534 73.1501 52.951 73.9529 52.3482 74.7556C52.2477 74.9563 51.9463 74.9563 51.8458 74.9563C51.243 74.7556 50.5396 74.7556 49.9368 74.7556C48.0277 74.7556 46.0182 74.8559 44.1091 75.2573C44.0087 74.9563 44.2096 74.8559 44.511 74.7556C45.4153 74.3542 46.3196 73.9528 47.2239 73.4511C47.4249 73.2505 47.6258 73.3508 47.7263 73.0498Z" fill="#F4AE7A"/>
<path d="M36.4726 34.6191L33.9607 33.716C32.956 33.3147 31.8507 33.114 30.7455 32.813C30.4441 32.7126 30.1426 32.7126 29.7407 32.7126L30.0422 32.512C30.1426 32.512 30.2431 32.4116 30.2431 32.4116C30.4441 32.3113 30.645 32.4116 30.846 32.3113H30.9464C31.1474 32.2109 31.4488 32.3113 31.6498 32.2109C31.9512 32.0103 32.2526 32.2109 32.5541 32.1106C32.755 32.0103 33.0564 32.0103 33.2574 32.0103C33.9607 32.1106 34.6641 32.1106 35.2669 32.0103C35.9702 32.0103 36.7741 32.0103 37.4774 32.1106L38.1807 32.2109C38.1807 32.512 37.9798 32.512 37.7788 32.512C37.2764 32.512 36.7741 32.4116 36.2717 32.3113C37.3769 32.512 38.4822 32.9133 39.5874 33.5154C39.8888 33.716 40.1902 33.8164 40.4917 33.9167C40.6926 33.9167 40.7931 34.0171 40.7931 34.2177C39.4869 34.2177 37.9798 34.5188 36.4726 34.6191Z" fill="#F8CAAA"/>
<path d="M54.3577 51.1753C55.1615 51.1753 55.9653 51.376 56.6686 51.677C56.8696 51.7773 57.0705 51.978 57.0705 52.279C57.2715 53.4831 57.4725 54.5869 57.6734 55.7909C57.6734 55.9916 57.6734 56.092 57.4725 56.092C56.5682 55.9916 55.5634 55.9916 54.6591 56.092C54.5586 55.8913 54.5586 55.7909 54.5586 55.5903C54.5586 54.3862 54.4582 53.0818 54.2572 51.8777C54.1567 51.5767 54.0563 51.376 54.3577 51.1753Z" fill="#F5B789"/>
<path d="M12.9614 69.2368C13.3633 69.8389 13.8657 70.4409 14.4685 70.9426C13.5642 71.4443 12.7604 72.0463 11.8561 72.6484L10.0476 73.8525C9.34423 73.6518 8.74137 73.0497 8.43994 72.3474C8.43994 72.247 8.43994 72.247 8.54042 72.1467C9.94708 71.1433 11.4542 70.1399 12.9614 69.2368Z" fill="#F6BD95"/>
<path d="M8.03807 53.8848C8.23903 54.0854 8.23903 54.2861 8.23903 54.5871C8.23903 54.9885 8.23903 55.3899 8.3395 55.7912C8.3395 55.9919 8.43998 56.0922 8.64093 56.0922C8.64093 56.2929 8.43998 56.3933 8.3395 56.3933C6.93284 56.7946 5.62665 57.497 4.62188 58.6008C4.21998 58.9018 4.01903 59.3031 3.61712 59.7045C3.31569 59.8048 3.21522 59.9052 2.91379 59.8048C2.81331 59.8048 2.81331 59.7045 2.81331 59.6042C2.61236 58.9018 2.61236 58.0991 2.81331 57.2963C4.42093 55.9919 6.12903 54.7878 8.03807 53.8848Z" fill="#F7C6A1"/>
<path d="M8.13859 49.9713C8.03811 50.5733 8.03811 51.2757 8.03811 51.8777C8.03811 51.9781 8.13859 52.0784 8.23906 52.0784C7.2343 52.6805 6.22954 53.2825 5.22478 53.8845C4.42097 54.3862 3.71763 54.8879 3.0143 55.3896C2.91382 55.3896 2.81335 55.2893 2.81335 55.189C2.81335 55.189 2.81335 55.189 2.81335 55.0886C2.71287 54.3862 2.91382 53.6839 3.11477 53.0818C4.62192 51.9781 6.33001 50.9747 8.13859 49.9713ZM10.4495 40.439C10.3491 41.2417 9.84668 41.9441 9.64573 42.7468C9.54525 43.0478 9.3443 43.2485 9.54525 43.5495C7.93763 44.5529 6.53097 45.5563 4.92335 46.6601C4.62192 46.5597 4.72239 46.359 4.82287 46.1584C5.1243 45.2553 5.62668 44.3522 6.22954 43.5495C6.93287 42.8471 7.73668 42.2451 8.64097 41.643C9.04287 41.2417 9.7462 40.8403 10.4495 40.439Z" fill="#F6BD95"/>
<path d="M8.74123 45.6567C8.54027 46.3591 8.4398 47.0615 8.33932 47.6635C8.33932 47.8642 8.33932 48.0649 8.33932 48.1652C6.7317 49.0683 5.12408 50.0717 3.61694 50.9748C3.31551 51.0751 3.21503 50.8744 3.31551 50.5734C3.31551 49.9714 3.61694 49.269 4.01884 48.7673C4.92313 47.9646 5.82742 47.2622 6.83218 46.6601C7.43503 46.3591 8.03789 45.9578 8.74123 45.6567Z" fill="#F4AE7A"/>
<path d="M55.1613 57.4971C55.9651 57.5974 56.6684 57.6977 57.4722 57.5974C57.6732 57.5974 57.7737 57.6977 57.7737 57.8984C57.6732 58.9018 57.6732 59.8049 57.6732 60.708C57.6732 60.9086 57.5727 60.9086 57.3718 60.9086C56.4675 60.8083 55.5632 60.6076 54.5584 60.6076H53.9556C53.9556 60.5073 54.1565 60.4069 54.056 60.3066C54.1565 59.7046 54.257 59.0022 54.257 58.4001C54.257 58.2998 54.3575 58.0991 54.3575 57.9988C54.3575 57.7981 54.4579 57.5974 54.7594 57.4971C54.8599 57.4971 54.8599 57.4971 54.9603 57.4971C55.0608 57.5974 55.0608 57.4971 55.1613 57.4971Z" fill="#F7C7A4"/>
<path d="M2.81355 57.2964C2.81355 58.0991 2.91403 59.0022 3.11498 59.8049C3.21546 60.0056 3.11498 60.2062 3.01451 60.3066C2.81355 60.5073 2.6126 60.7079 2.51212 61.009C2.2107 61.611 2.41165 62.2131 3.01451 62.5141C3.11498 62.6144 3.31593 62.6144 3.41641 62.6144C3.61736 62.6144 3.91879 62.6144 4.01927 62.8151C3.91879 63.3168 3.91879 63.8185 4.11974 64.2199C4.11974 64.3202 4.11974 64.5209 4.11974 64.6212C3.61736 64.9222 3.11498 65.2233 2.6126 65.5243C2.31117 65.725 2.2107 65.6246 2.2107 65.3236C1.90927 64.1195 1.70832 62.9154 1.60784 61.7114C1.50736 60.8083 1.40689 59.8049 1.30641 58.9018C1.20593 58.5005 1.40689 58.0991 1.70832 57.8984C2.11022 57.7981 2.51212 57.4971 2.81355 57.2964Z" fill="#F5B88B"/>
<path d="M11.1527 74.7554C11.2532 75.1567 11.6551 75.3574 11.9566 75.6584C12.3585 76.1601 12.8608 76.4612 13.4637 76.8625C12.5594 77.4646 11.7556 78.0666 10.9518 78.769C10.7508 78.9697 10.5499 78.9697 10.3489 78.8693C10.3489 78.8693 10.3489 78.8693 10.2485 78.769C9.74608 78.2673 9.14322 77.7656 8.54036 77.2639C8.33941 77.0632 8.33941 76.9629 8.54036 76.7622C9.44465 76.0598 10.2485 75.4578 11.1527 74.7554Z" fill="#F1A268"/>
<path d="M43.908 38.5324C43.5061 38.4321 43.2047 38.3318 42.9033 38.0307C41.8985 37.228 40.7933 36.5256 39.688 36.0239C39.4871 35.9236 39.2861 35.9236 39.2861 35.6226C40.4918 35.4219 41.5971 35.4219 42.8028 35.4219C43.2047 35.3216 43.7071 35.4219 44.0085 35.7229C45.0133 36.4253 45.9176 37.1277 46.8218 37.9304C47.1233 38.2314 47.1233 38.3318 46.9223 38.5324C46.6209 38.5324 46.4199 38.6328 46.1185 38.5324C45.9176 38.1311 45.4152 37.9304 45.1138 37.6294C44.8123 37.3284 44.2095 36.927 43.8076 36.626C44.3099 37.0273 44.8123 37.529 45.2142 37.9304C45.3147 38.0307 45.4152 38.2314 45.3147 38.3318C44.8123 38.6328 44.3099 38.6328 43.908 38.5324Z" fill="#F6C29B"/>
<path d="M21.301 80.876C20.8991 80.6753 20.4972 80.575 20.1958 80.2739C20.1958 80.0733 20.2963 79.9729 20.4972 79.8726C21.9039 79.1702 23.3106 78.2671 24.6168 77.3641C24.8177 77.2637 24.9182 77.1634 25.1191 77.2637C25.8225 77.5648 26.6263 77.6651 27.3296 77.7654L27.832 77.8658C26.8272 78.3675 25.9229 78.7688 24.9182 79.2705L21.301 80.876Z" fill="#F6BD95"/>
<path d="M4.21992 64.7214C3.91849 64.2197 3.71754 63.718 3.61706 63.2163C3.51659 62.9153 3.91849 63.0156 4.01897 62.9152C4.11945 62.8149 4.3204 62.6142 4.42087 62.6142C5.92802 62.3132 7.33468 61.7112 8.5404 60.8081C8.74135 60.7078 8.84183 60.5071 9.14326 60.6074C9.44468 60.8081 9.44468 61.1091 9.54516 61.3098C9.64564 61.6108 9.54516 61.7112 9.74611 61.8115C8.03802 62.9153 6.12897 63.8183 4.21992 64.7214Z" fill="#F7C6A1"/>
<path d="M52.7498 64.3198H52.5488V64.2194C52.7498 64.1191 52.8503 63.9184 52.9507 63.7177C53.0512 63.3164 53.2522 62.915 53.3526 62.614C53.3526 62.4133 53.5536 62.2126 53.7545 62.1123C54.8598 62.1123 55.8645 62.313 56.9698 62.5137C57.3717 62.614 57.3717 62.8147 57.3717 63.1157C57.2712 63.4167 57.1707 64.0188 57.0703 64.4201C56.5679 64.5205 56.0655 64.5205 55.4626 64.4201L55.2617 64.3198C54.4579 64.3198 53.6541 64.3198 52.7498 64.3198Z" fill="#F5B789"/>
<path d="M11.5546 66.8286C11.7555 67.23 11.9565 67.6313 12.2579 68.0327L7.63598 71.0429C7.03312 70.9426 6.63122 70.3405 6.7317 69.7385C8.23884 68.7351 9.94693 67.832 11.5546 66.8286Z" fill="#F4AE7A"/>
<path d="M52.8507 50.9748C53.1521 50.9748 53.4536 50.9748 53.755 51.0751C53.9559 51.2758 54.0564 51.4765 54.0564 51.6772C54.2574 52.8812 54.3578 54.0853 54.3578 55.2894C54.3578 55.8914 54.2574 55.8914 53.755 55.8914H53.0517C52.8507 55.8914 52.5493 55.7911 52.5493 55.3897C52.4488 54.1857 52.2479 52.8812 51.9464 51.6772C51.8459 50.8744 51.9464 50.8744 52.8507 50.9748Z" fill="#F7C9A7"/>
<path d="M46.9223 38.5327C47.0227 38.332 46.8218 38.2317 46.7213 38.1314C45.7165 37.2283 44.6113 36.3252 43.4056 35.5225C43.2046 35.4222 43.0037 35.3218 42.8027 35.3218C43.2046 35.2215 43.707 35.2215 44.1089 35.3218C46.3194 35.6229 48.2284 36.8269 49.5346 38.6331C49.0323 38.5327 48.5299 38.6331 48.0275 38.5327C47.5251 38.5327 47.2237 38.8337 46.9223 38.5327Z" fill="#F5B789"/>
<path d="M52.8505 50.9747C52.0466 50.9747 52.0466 50.9747 52.2476 51.7774C52.549 53.0818 52.75 54.2859 52.75 55.5903C52.75 55.8913 52.8505 55.9917 53.1519 55.9917C54.1566 56.092 54.2571 55.9917 54.1566 54.8879C54.0562 53.5835 53.9557 52.3794 53.7547 51.075C53.9557 51.075 54.1566 51.075 54.2571 51.1754C54.3576 52.1788 54.4581 53.1822 54.5585 54.1856C54.659 54.7876 54.659 55.49 54.5585 56.092C53.6543 56.092 52.75 56.1924 51.7452 56.092C51.6447 55.3896 51.5443 54.6873 51.5443 54.0852C51.4438 52.9815 51.2428 51.9781 50.9414 50.9747C51.6447 50.8743 52.2476 50.8743 52.8505 50.9747Z" fill="#F6C29C"/>
<path d="M8.54072 72.2471C8.94262 72.8491 9.445 73.3508 10.0479 73.8525L7.63643 75.6586C7.43548 75.759 7.335 75.759 7.23453 75.5583C6.9331 75.1569 6.63167 74.6552 6.33024 74.2539C6.22976 74.1535 6.22976 73.9529 6.33024 73.7522C6.33024 73.7522 6.33024 73.7522 6.43072 73.6518C7.13405 73.2505 7.83738 72.6484 8.54072 72.2471Z" fill="#F4B180"/>
<path d="M54.4579 45.2556C53.6541 45.4563 52.8503 45.4563 52.0465 45.3559H50.2379C48.9317 45.3559 47.6255 45.3559 46.3193 45.2556H48.3289C48.4293 45.2556 48.6303 45.3559 48.7308 45.1552C48.8312 44.9546 48.6303 44.8542 48.5298 44.7539C48.4293 44.6535 48.1279 44.2522 48.0274 43.9512C47.8265 43.6501 47.927 43.5498 48.2284 43.5498H48.7308C49.7355 43.5498 50.7403 43.6501 51.7451 43.8508C52.2474 45.2556 52.2474 44.9546 53.4531 44.9546C53.6541 44.9546 53.9555 44.8542 54.257 44.9546C54.3574 45.1552 54.3574 45.1552 54.4579 45.2556Z" fill="#F8CFB1"/>
<path d="M15.9758 78.3676L15.172 77.9663C15.0716 77.8659 14.8706 77.8659 14.8706 77.6652C16.2773 76.6618 17.7844 75.8591 19.2916 74.9561C19.6935 75.2571 20.0954 75.4578 20.4973 75.5581C20.5977 75.7588 20.3968 75.8591 20.1958 75.9595C18.8897 76.6618 17.6839 77.4646 16.4782 78.3676C16.3777 78.468 16.1768 78.468 15.9758 78.3676Z" fill="#F6BD95"/>
<path d="M54.6589 46.9611C54.9603 46.8607 55.2617 47.1618 55.3622 47.4628C55.6636 48.1652 55.965 48.7672 56.2665 49.4696C56.4674 49.7706 56.367 49.871 55.9651 49.871C55.4627 49.7706 54.8598 49.7706 54.3574 49.6703C54.056 49.5699 53.7546 49.871 53.4531 49.5699C53.5536 49.2689 53.7546 49.3693 53.855 49.4696C53.6541 49.3693 53.5536 49.2689 53.5536 49.0682C53.3527 48.5665 53.1517 47.9645 52.9508 47.4628C52.8503 47.1618 52.9508 47.0614 53.2522 46.9611C53.7546 46.9611 54.1565 46.9611 54.6589 46.9611Z" fill="#F7C7A3"/>
<path d="M4.82288 66.2266C5.02383 67.0293 5.42573 67.832 6.02859 68.6347L4.32049 69.6381C4.01907 69.8388 3.91859 69.7385 3.81811 69.4374C3.61716 68.7351 3.31573 68.133 3.11478 67.531C3.0143 67.3303 3.0143 67.23 3.31573 67.1296C3.71764 66.8286 4.22002 66.5276 4.82288 66.2266Z" fill="#F4B180"/>
<path d="M40.9941 34.1176C39.286 33.7163 37.8794 32.6125 36.0708 32.2112C36.5732 32.1108 36.9751 32.1108 37.4775 32.2112C37.7789 32.3115 38.1808 32.3115 38.4822 32.1108C40.1903 32.2112 41.8984 32.8132 43.3051 33.8166C42.8027 33.8166 42.3003 33.8166 41.7979 33.8166C41.597 33.8166 41.4965 33.8166 41.2956 33.917L40.9941 34.1176Z" fill="#F7C7A3"/>
<path d="M54.257 60.4069C54.257 60.5073 54.1565 60.5073 53.9556 60.5073H53.7546C53.5537 60.4069 53.3527 60.4069 53.1518 60.4069H50.238C50.1375 60.4069 50.1375 60.4069 50.238 60.3066H51.4437C51.5441 60.2062 51.6446 60.1059 51.7451 60.1059C52.2475 60.1059 52.348 59.7045 52.348 59.3032C52.348 58.9018 52.4484 58.2998 52.4484 57.6977C52.4484 57.3967 52.5489 57.2964 52.8503 57.2964C53.1518 57.2964 53.7546 57.2964 54.1565 57.2964C54.3575 57.4971 54.257 57.6977 54.257 57.8984C54.1565 58.6008 54.0561 59.2028 54.0561 59.9052C54.0561 60.1059 54.1565 60.3066 54.257 60.4069Z" fill="#F8CDAE"/>
<path d="M6.73185 69.7383C6.9328 70.24 7.33471 70.6413 7.63613 71.0427C7.03328 71.5444 6.32994 71.9458 5.72709 72.4475C5.42566 72.6481 5.32518 72.6481 5.12423 72.3471C4.4209 71.3437 4.4209 71.3437 5.42566 70.6413L6.73185 69.7383Z" fill="#F1A268"/>
<path d="M50.9416 49.3694V49.2691C51.243 48.968 51.243 48.5667 51.0421 48.2657C50.9416 47.9646 50.7406 47.5633 50.6402 47.2623C50.5397 47.0616 50.5397 46.8609 50.8411 46.8609C51.243 46.8609 51.6449 46.8609 52.0468 46.8609C52.2478 46.7606 52.4487 46.7606 52.6497 46.8609C52.9511 47.5633 53.2526 48.2657 53.4535 49.0684C53.554 49.4697 53.4535 49.5701 53.0516 49.5701C52.6497 49.5701 52.3483 49.4697 52.0468 49.5701C51.8459 49.5701 51.6449 49.5701 51.444 49.5701L50.9416 49.3694Z" fill="#F8CEAF"/>
<path d="M49.1328 40.3389C49.5347 40.4392 49.9366 40.5395 50.4389 40.5395C51.3432 40.4392 51.6447 41.0412 52.0466 41.5429C52.2475 41.844 52.4485 42.0446 52.6494 42.446C52.4485 42.446 52.2475 42.446 51.9461 42.446C51.3432 42.3457 50.7404 42.446 50.1375 42.3457C49.8361 41.7436 49.3337 41.3423 48.9318 40.8406C48.7308 40.4392 48.7308 40.4392 49.1328 40.3389Z" fill="#F7C6A3"/>
<path d="M47.7262 73.0498C48.0276 73.1501 47.8267 73.2505 47.7262 73.2505C47.4248 73.4512 47.0229 73.6518 46.7215 73.8525C45.9176 74.2539 45.0134 74.7556 44.2096 75.1569H43.9081C43.7072 75.1569 43.4057 75.3576 43.2048 75.1569C43.1043 74.9563 43.4057 74.7556 43.5062 74.5549C44.2096 73.7522 45.1138 73.2505 46.1186 73.1501C46.7215 73.1501 47.2238 73.1501 47.7262 73.0498Z" fill="#F5B789"/>
<path d="M46.6211 40.0378C47.3245 40.0378 47.9273 40.0378 48.6307 40.2385C49.0326 40.8406 49.4345 41.4426 49.9369 41.9443C50.0373 42.0446 50.0373 42.0446 50.0373 42.145C50.0373 42.2453 49.8364 42.2453 49.8364 42.2453C49.4345 42.2453 48.9321 42.2453 48.5302 42.2453C47.9273 42.3457 47.425 42.3457 46.8221 42.2453C46.8221 41.9443 47.1235 41.9443 47.3245 41.9443C47.5254 41.9443 47.6259 41.844 47.5254 41.5429C47.1235 41.1416 46.9226 40.5395 46.3197 40.2385C46.2192 40.2385 46.2192 40.1382 46.2192 40.0378C46.2192 39.9375 46.3197 39.9375 46.4202 39.9375C46.4202 40.0378 46.5207 40.0378 46.6211 40.0378Z" fill="#F8CEAE"/>
<path d="M46.6208 40.0379H46.3194C46.7213 40.1382 46.8217 40.5396 47.1232 40.7403C47.3241 41.0413 47.6255 41.4427 47.927 41.7437C48.1279 42.0447 48.0274 42.0447 47.726 42.145C47.4246 42.145 47.1232 42.145 46.8217 42.2454H43.2046C43.6065 42.145 44.0084 42.145 44.4103 42.145H46.1184C46.2189 42.145 46.4198 42.2454 46.5203 42.0447C46.6208 41.844 46.4198 41.7437 46.3194 41.6433C45.9174 41.1416 45.4151 40.5396 45.0132 40.0379C45.1136 39.8372 45.3146 39.9376 45.4151 39.9376C45.817 39.8372 46.2189 39.9376 46.6208 40.0379ZM54.3574 57.4971H53.1517C52.8503 57.4971 52.7498 57.5974 52.7498 57.8984C52.7498 58.6008 52.6494 59.3032 52.5489 60.0056C52.5489 60.4069 52.3479 60.5073 51.946 60.5073C51.7451 60.5073 51.5441 60.5073 51.4436 60.5073C51.5441 59.7046 51.6446 58.9018 51.6446 58.0991C51.6446 57.7981 51.5441 57.6978 51.3432 57.6978C51.0417 57.6978 50.6398 57.6978 50.3384 57.5974C51.6446 57.4971 53.0513 57.3967 54.3574 57.4971C54.4579 57.3967 54.5584 57.4971 54.6589 57.4971C54.5584 57.5974 54.3574 57.5974 54.3574 57.4971Z" fill="#F8CAAA"/>
<path d="M54.0562 65.6245C54.7596 65.6245 55.5634 65.7249 56.2667 65.8252C56.0658 66.2266 55.6639 66.6279 55.1615 66.7283C54.86 66.8286 54.5586 66.8286 54.2572 66.7283H51.4438C51.5443 66.1262 52.0467 65.7249 52.6496 65.7249C53.1519 65.7249 53.5538 65.7249 54.0562 65.6245Z" fill="#F7C7A3"/>
<path d="M3.01439 53.082L2.91392 54.9885C2.91392 55.0888 2.81344 55.1892 2.91392 55.2895C2.51201 55.5905 2.11011 55.9919 1.7082 56.2929C1.60773 56.3933 1.60773 56.4936 1.50725 56.3933C1.40677 56.3933 1.40677 56.1926 1.40677 56.0922C1.20582 54.9885 1.90915 53.6841 3.01439 53.082Z" fill="#F4B180"/>
<path d="M30.3439 32.1108C30.0424 32.1108 29.8415 32.2112 29.5401 32.2112C28.8367 32.3115 28.0329 32.3115 27.3296 32.1108C27.4301 31.9101 27.5305 32.0105 27.631 31.9101C28.7363 31.6091 29.741 31.4084 30.8463 31.3081C31.5496 31.3081 32.2529 31.5088 32.9563 31.6091C33.0567 31.7095 32.9563 31.7095 32.8558 31.8098L31.4491 31.9101C31.3486 32.0105 31.1477 31.9101 30.9467 32.0105H30.6453C30.6453 32.1108 30.4444 32.0105 30.3439 32.1108Z" fill="#F1A267"/>
<path d="M12.5597 36.1245C12.3587 36.6262 12.1578 37.0276 11.9568 37.4289C11.9568 37.5293 11.7559 37.6296 11.9568 37.73L8.74159 39.7368L8.64111 39.6364C9.74635 38.4323 11.153 37.2283 12.5597 36.1245Z" fill="#F7C5A1"/>
<path d="M51.946 46.8607H50.6399C50.9413 47.3624 51.1422 47.9644 51.3432 48.5664C51.5441 49.1685 51.5441 49.2688 50.8408 49.2688C50.5394 49.2688 50.4389 49.0681 50.4389 48.7671C50.2379 48.1651 50.037 47.6634 49.7356 47.1617C49.6351 46.961 49.5346 46.8607 49.3337 46.8607C49.2332 46.8607 49.2332 46.7603 49.3337 46.7603C50.2379 46.66 51.1422 46.7603 51.946 46.8607Z" fill="#F8CBAB"/>
<path d="M52.5488 64.2195L50.7402 64.3198C50.9412 63.6175 51.0417 63.0154 51.1421 62.313C51.1421 62.1124 51.2426 62.012 51.4436 61.9117C52.1469 61.8113 52.9507 61.9117 53.654 62.012C53.4531 62.2127 53.1517 62.1124 52.8502 62.2127C52.6493 62.2127 52.4483 62.4134 52.4483 62.6141C52.3479 62.8147 52.3479 63.0154 52.2474 63.2161C52.0464 63.8181 52.0464 63.8181 52.5488 64.1192C52.5488 64.1192 52.5488 64.1192 52.5488 64.2195Z" fill="#F6C29C"/>
<path d="M54.3579 45.0547C54.1569 45.155 53.956 45.2553 53.755 45.2553H53.1521C52.2479 45.2553 52.0469 45.0547 51.7455 44.2519C51.645 44.0513 51.7455 43.9509 51.9464 43.8506C52.5493 43.9509 53.0517 44.1516 53.6545 44.2519C53.956 44.3523 54.3579 44.6533 54.3579 45.0547Z" fill="#F8CEAE"/>
<path d="M50.8409 71.2433L48.7309 71.5443C48.2285 71.444 48.2285 71.444 48.5299 70.9423C48.6304 70.8419 48.6304 70.6412 48.5299 70.5409C49.1328 70.4406 49.8361 70.3402 50.439 70.3402C50.7404 70.3402 50.9414 70.3402 51.2428 70.3402C51.5442 70.3402 51.8456 70.2399 51.6447 70.7416C51.5442 70.9423 51.8456 70.9423 51.7452 71.1429C51.4437 71.3436 51.1423 71.1429 50.8409 71.2433Z" fill="#F7C6A3"/>
<path d="M51.7452 71.1431C51.4437 70.9424 51.2428 71.1431 51.1423 70.9424C51.0418 70.7418 51.4437 70.6414 51.5442 70.4407C51.1423 70.3404 50.8409 70.3404 50.439 70.3404C51.2428 70.2401 52.1471 70.2401 52.9509 70.3404C53.4533 70.3404 53.8552 70.4407 54.2571 70.5411C54.458 70.5411 54.659 70.5411 54.659 70.7418C54.659 70.9424 54.3575 70.9424 54.2571 70.9424C53.6542 71.0428 52.9509 71.0428 52.348 71.0428C52.1471 71.1431 51.9461 71.1431 51.7452 71.1431Z" fill="#F6BD94"/>
<path d="M38.0806 34.8199C38.8844 34.7195 39.6882 34.7195 40.492 34.5189C41.0949 34.4185 41.6978 34.5189 42.0997 35.0206C41.7982 35.1209 41.3963 35.1209 41.0949 35.1209C40.2911 35.2212 39.4873 35.3216 38.7839 35.3216C38.382 35.3216 37.9801 35.2212 37.6787 34.9202C37.7792 34.8199 37.8797 34.8199 37.9801 34.8199C37.9801 34.8199 37.9801 34.8199 38.0806 34.8199Z" fill="#F1A268"/>
<path d="M54.056 65.6245C53.6541 65.7249 53.1518 65.7249 52.7499 65.7249C52.4484 65.7249 52.2475 65.8252 52.147 66.1262C52.0465 66.4272 51.8456 66.6279 51.5441 66.7283C51.3432 66.8286 51.0418 66.8286 50.8408 66.7283H50.5394C50.037 66.7283 49.9365 66.7283 50.1375 66.2266C50.238 66.0259 50.238 65.8252 49.9365 65.7249C50.4389 65.6245 50.8408 65.6245 51.3432 65.7249C51.6446 65.8252 51.8456 65.8252 52.147 65.7249L54.056 65.6245Z" fill="#F8CCAC"/>
<path d="M3.91843 48.9678C3.71748 49.5698 3.61701 50.0715 3.41605 50.6736C3.41605 50.8742 3.31558 50.9746 3.51653 51.0749L2.10986 51.978C2.41129 50.6736 2.71272 49.5698 3.91843 48.9678Z" fill="#F1A268"/>
<path d="M6.12882 43.6499C5.82739 44.553 5.32501 45.3557 5.02359 46.2587C5.02359 46.3591 4.82263 46.5598 4.92311 46.6601C4.62168 46.9611 4.21978 47.2621 3.81787 47.4628C4.32025 45.9577 4.82263 44.553 6.12882 43.6499ZM46.0179 79.973C47.1231 79.4713 48.1279 78.8693 49.0322 78.1669C49.3336 77.9662 49.635 77.8659 49.9364 77.7655C49.3336 78.5683 48.5298 79.07 47.8264 79.7724C47.726 79.8727 47.525 79.973 47.4245 79.8727L46.0179 79.973Z" fill="#F4B180"/>
<path d="M51.9463 49.4697C52.1472 49.4697 52.4487 49.4697 52.6496 49.4697C53.152 49.57 53.152 49.3693 53.0515 48.968C52.8506 48.5666 52.6496 47.9646 52.4487 47.3625C52.3482 47.1619 52.3482 46.9612 52.5491 46.8608C53.2525 46.9612 53.8553 46.8608 54.5587 46.9612C54.1568 47.0615 53.7549 47.0615 53.4534 47.0615C53.152 47.0615 53.0515 47.1619 53.152 47.4629C53.2525 47.7639 53.5539 48.4663 53.6544 49.0683C53.7549 49.269 53.8553 49.4697 54.0563 49.57L53.353 49.6704H53.2525C53.0515 49.57 52.7501 49.6704 52.4487 49.57L51.9463 49.4697Z" fill="#F8CBAA"/>
<path d="M45.2141 38.5324C44.5108 37.7297 43.9079 37.0273 43.2046 36.2246C43.9079 36.626 44.6113 37.1277 45.2141 37.529C45.5155 37.7297 45.9174 37.9304 46.1184 38.2314C46.1184 38.3318 46.3194 38.3318 46.2189 38.4321C46.1184 38.5324 46.0179 38.5324 45.9174 38.5324H45.817C45.7165 38.6328 45.4151 38.6328 45.2141 38.5324Z" fill="#F7C9A7"/>
<path d="M53.5537 68.8352C53.5537 68.4338 53.8551 68.3335 54.1566 68.1328L55.5632 68.3335C55.6637 68.3335 55.9651 68.3335 55.8647 68.5342C55.7642 68.7349 55.8647 69.1362 55.5632 69.1362C54.8599 69.0359 54.257 69.0359 53.5537 68.8352Z" fill="#F7C6A1"/>
<path d="M48.5302 42.2451H50.0374C49.7359 42.1447 49.535 41.8437 49.334 41.5427C49.1331 41.1413 48.9321 40.8403 48.6307 40.6396C48.4297 40.5393 48.4297 40.3386 48.6307 40.2383L49.2336 40.3386C48.9321 40.439 49.0326 40.6396 49.2336 40.74C49.6355 41.1413 50.0374 41.643 50.3388 42.0444C50.4393 42.1447 50.5397 42.2451 50.2383 42.3454C49.6355 42.3454 49.0326 42.2451 48.5302 42.2451Z" fill="#F7CAA9"/>
<path d="M47.5254 45.4561H54.5587C54.2573 45.5564 53.9559 45.6567 53.554 45.5564C53.0516 45.5564 52.5492 45.6567 52.0468 45.7571C52.0468 45.8574 51.9463 45.9578 51.8459 45.9578C51.444 45.9578 50.9416 45.9578 50.5397 45.8574C50.4392 45.8574 50.4392 45.7571 50.3387 45.7571C49.334 45.7571 48.4297 45.5564 47.5254 45.4561Z" fill="#E97B2C"/>
<path d="M54.3575 57.4971H55.1613C54.7594 57.5974 54.5584 57.7981 54.5584 58.1995C54.4579 58.9018 54.3575 59.7046 54.257 60.4069C54.056 60.4069 53.9556 60.4069 53.9556 60.1059C53.9556 59.2029 54.1565 58.4001 54.3575 57.4971Z" fill="#F8CBAB"/>
<path d="M54.3574 66.6279C54.9603 66.7283 55.4627 66.5276 55.7641 66.0259C55.8646 65.8252 56.166 65.9255 56.2665 65.8252C56.4674 65.8252 56.7689 65.9255 56.6684 66.2266C56.5679 66.5276 56.6684 66.9289 56.166 66.8286C55.5631 66.8286 54.9603 66.7283 54.3574 66.6279Z" fill="#F6BD93"/>
<path d="M48.5299 70.6416C48.7309 70.6416 48.8314 70.6416 49.0323 70.7419C48.9318 70.9426 48.8314 71.043 48.6304 71.1433C48.329 71.344 48.5299 71.4443 48.7309 71.5447L47.5252 71.7453C47.2237 71.645 47.4247 71.4443 47.5252 71.344C47.8266 71.043 47.6256 70.9426 47.3242 70.8423L48.5299 70.6416Z" fill="#F8CAAA"/>
<path d="M53.7547 62.0121C53.5538 62.6142 53.3528 63.2162 53.1519 63.8182C53.0514 64.1193 52.8504 64.2196 52.549 64.1193C52.4485 63.9186 52.4485 63.7179 52.549 63.5172C52.6495 63.2162 52.7499 62.9152 52.8504 62.6142C52.9509 62.2128 53.3528 61.9118 53.7547 62.0121Z" fill="#F6C29C"/>
<path d="M49.0324 50.7739C48.9319 50.8743 48.731 50.8743 48.6305 50.8743H44.2095C44.0086 50.8743 43.9081 50.8743 43.8076 50.7739H49.0324Z" fill="#F6BA8F"/>
<path d="M33.358 32.1106H32.5542C32.6547 32.0103 32.8556 32.0103 33.0566 32.0103H37.1761C37.3771 32.0103 37.4775 32.0103 37.6785 32.1106C36.8747 32.1106 36.1713 32.1106 35.3675 32.1106C34.6642 32.2109 34.0613 32.2109 33.358 32.1106Z" fill="#EA7E2F"/>
<path d="M48.8314 43.5496H45.1138C45.2142 43.4492 45.4152 43.4492 45.5157 43.4492H48.329C48.53 43.4492 48.6304 43.4492 48.8314 43.5496Z" fill="#E97826"/>
<path d="M52.75 64.3198H55.3624C54.4581 64.4202 53.6543 64.4202 52.75 64.3198Z" fill="#E97726"/>
<path d="M41.1953 34.017C41.3963 33.8163 41.6977 33.9167 41.9991 33.9167H43.2048C43.3053 34.1174 43.1044 34.017 43.0039 34.017H41.1953Z" fill="#F8CCAB"/>
<path d="M51.2427 61.8116H49.4341C50.0369 61.7112 50.6398 61.7112 51.2427 61.8116Z" fill="#E87726"/>
<path d="M51.8456 50.0716C51.6446 49.6703 51.2427 49.7706 50.8408 49.7706C51.3432 49.5699 51.8456 49.5699 52.348 49.7706C52.147 49.7706 51.8456 49.7706 51.8456 50.0716Z" fill="#EA7F32"/>
<path d="M48.3291 64.3198H49.9367C49.4343 64.5205 48.8315 64.5205 48.3291 64.3198Z" fill="#E97725"/>
<path d="M50.1375 57.4971C49.6351 57.5974 49.1328 57.5974 48.6304 57.4971H50.1375Z" fill="#F8CDAE"/>
<path d="M31.4492 75.8592C31.4492 75.8592 31.5497 75.6585 31.4492 75.8592C31.5497 76.1602 31.5497 76.5616 31.5497 76.8626C31.5497 76.963 31.5497 76.8626 31.4492 76.7623V75.8592Z" fill="#F8CFB0"/>
<path d="M55.5635 64.3198H57.1711C56.5682 64.5205 56.0659 64.5205 55.5635 64.3198Z" fill="#E87725"/>
<path d="M49.334 46.7603C48.9321 46.8606 48.4297 46.8606 48.0278 46.7603H49.334Z" fill="#F8CEAE"/>
<path d="M2.31097 53.2827C2.2105 53.4834 2.00955 53.5837 1.80859 53.6841L2.31097 53.2827Z" fill="#EB8439"/>
<path d="M52.147 65.6245C51.8455 65.8252 51.5441 65.8252 51.2427 65.7249L52.147 65.6245Z" fill="#F9D4B8"/>
<path d="M45.0132 45.5562H46.0179C45.7165 45.7568 45.3146 45.7568 45.0132 45.5562Z" fill="#E77522"/>
<path d="M53.353 49.8708H53.2525C52.9511 49.8708 52.6497 49.8708 52.4487 49.7705C52.7502 49.7705 53.0516 49.7705 53.353 49.8708Z" fill="#EA7F32"/>
<path d="M50.4392 46.3589C50.4392 46.1582 50.3388 45.9575 50.2383 45.8572V45.7568H50.4392C50.3388 46.0579 50.5397 46.1582 50.6402 46.3589H50.4392Z" fill="#EC8941"/>
<path d="M32.6548 32.111C32.3533 32.2114 32.0519 32.2114 31.7505 32.2114C32.0519 32.0107 32.3533 32.111 32.6548 32.111Z" fill="#EA7E2F"/>
<path d="M50.8408 71.2436C51.1422 71.0429 51.4437 71.1432 51.7451 71.1432C51.4437 71.2436 51.1422 71.2436 50.8408 71.2436Z" fill="#F6BD94"/>
<path d="M43.3052 45.6567H44.0085C43.8076 45.8574 43.6066 45.7571 43.3052 45.6567Z" fill="#E77522"/>
<path d="M52.4487 49.4697C52.7502 49.4697 52.9511 49.4697 53.2525 49.5701C53.0516 49.6704 52.7502 49.5701 52.4487 49.4697Z" fill="#EA7F32"/>
<path d="M45.2144 38.5327H46.0182C45.7167 38.6331 45.4153 38.6331 45.2144 38.5327Z" fill="#F6C29B"/>
<path d="M8.43994 77.5649C8.64089 77.5649 8.64089 77.6653 8.74137 77.7656C8.54042 77.866 8.54042 77.7656 8.43994 77.5649Z" fill="#EB833A"/>
<path d="M32.9564 31.8096C32.9564 31.7093 33.0569 31.7093 33.0569 31.6089C33.0569 31.5086 33.3583 31.6089 33.2578 31.7093C33.1574 31.91 33.0569 31.8096 32.9564 31.8096ZM31.7507 32.211C31.5497 32.3113 31.2483 32.3113 31.0474 32.3113C31.2483 32.1106 31.4493 32.211 31.7507 32.211Z" fill="#EA7E2F"/>
<path d="M51.9461 49.4697C51.7452 49.5701 51.5442 49.5701 51.3433 49.4697H51.9461Z" fill="#EA7F32"/>
<path d="M38.0802 34.8198C38.0802 35.2212 37.8793 34.9202 37.7788 34.9202C37.8793 34.8198 37.9798 34.8198 38.0802 34.8198Z" fill="#EF9959"/>
<path d="M30.9466 32.3116C30.7457 32.3116 30.5447 32.4119 30.3438 32.4119C30.5447 32.3116 30.7457 32.2112 30.9466 32.3116Z" fill="#EA7E2F"/>
<path d="M44.3098 39.0343L44.2094 39.1347L44.1089 39.0343C44.1089 38.934 44.2094 39.0343 44.3098 39.0343Z" fill="#EF9552"/>
<path d="M30.2431 32.4116L30.0422 32.512H29.7407C29.9417 32.4116 30.1426 32.3113 30.2431 32.4116ZM30.3436 32.1106C30.4441 32.0103 30.645 32.0103 30.846 32.0103C30.645 32.1106 30.4441 32.1106 30.3436 32.1106Z" fill="#EA7E2F"/>
<path d="M31.0474 32.0105C31.1478 31.9102 31.3488 31.9102 31.5497 31.9102C31.3488 32.0105 31.2483 32.0105 31.0474 32.0105Z" fill="#EA7E2F"/>
<path d="M33.1571 52.6804C33.9609 52.6804 34.7647 52.7807 35.5685 52.8811C36.0709 52.9814 36.5732 53.2824 36.8747 53.6838C37.2766 54.1855 37.1761 54.8879 36.6737 55.2892C35.669 55.9916 34.5637 56.4933 33.4585 56.8947C31.1475 57.6974 28.7361 58.0988 26.3247 58.2994C25.8223 58.3998 25.4204 58.2994 25.0185 58.0988C24.5161 57.8981 24.2147 57.3964 24.3151 56.7943C24.3151 56.694 24.4156 56.4933 24.5161 56.393C25.2194 55.1889 26.3247 54.3862 27.6309 53.8845C28.9371 53.2824 30.3437 52.8811 31.8509 52.5801C32.2528 52.7807 32.6547 52.7807 33.1571 52.6804ZM41.1951 55.3896L40.0899 55.2892C39.0851 55.1889 38.6832 54.3862 38.6832 53.4831C38.6832 52.9814 38.9847 52.7807 39.3866 52.4797C40.6928 51.677 42.1999 51.376 43.7071 51.677C44.0085 51.677 44.3099 51.7773 44.6113 51.7773C45.2142 51.8777 45.6161 52.4797 45.5156 53.0818C45.5156 53.2824 45.4151 53.3828 45.3147 53.4831C44.9128 54.0852 44.3099 54.5869 43.6066 54.7875C42.8028 55.2892 41.999 55.3896 41.1951 55.3896Z" fill="#E97D2E"/>
<path d="M50.238 60.4069L49.9365 60.5073C50.037 60.3066 50.1375 60.4069 50.238 60.4069Z" fill="#F8CAAA"/>
<path d="M9.24395 60.6073C8.33966 61.3097 7.43538 61.8114 6.43062 62.3131C5.62681 62.6141 4.823 62.8148 4.01919 62.9152C3.51681 62.9152 3.01442 62.8148 2.61252 62.5138C2.11014 62.0121 2.00966 61.3097 2.41157 60.808C2.61252 60.507 2.91395 60.206 3.21538 59.8046C4.52157 57.9985 6.43062 56.5937 8.64109 56.092C9.14347 56.092 9.54538 55.9917 10.0478 55.9917C10.8516 55.9917 11.4544 56.6941 11.4544 57.3965C11.4544 57.5971 11.3539 57.7978 11.3539 57.9985C10.952 58.9016 10.3492 59.7043 9.54538 60.3063C9.4449 60.3063 9.34442 60.507 9.24395 60.6073ZM15.9759 78.3675L17.6839 77.1635C18.5882 76.5614 19.4925 75.9594 20.4973 75.558C21.3011 75.257 22.1049 74.956 23.0092 74.7553C23.813 74.5546 24.6168 74.3539 25.4206 74.3539C25.923 74.2536 26.3249 74.5546 26.4254 74.956C26.5259 75.1567 26.4254 75.3573 26.3249 75.558C26.0235 76.2604 25.5211 76.8624 24.9182 77.2638C23.4111 78.3675 21.8035 79.371 20.0954 80.274L18.2868 81.0767C17.282 81.4781 16.1768 81.2774 15.4735 80.4747C15.0716 80.1737 15.0716 79.5716 15.373 79.2706C15.373 79.2706 15.373 79.2706 15.4735 79.1703C15.6744 78.8693 15.8754 78.5682 15.9759 78.3675Z" fill="#E97D2E"/>
<path d="M33.3579 32.1108H35.3674C34.7646 32.2112 34.0612 32.2112 33.3579 32.1108Z" fill="#F9D3B7"/>
<path d="M53.6545 62.012C53.3531 62.1123 53.1521 62.313 53.1521 62.5137C52.9512 63.0154 52.7502 63.6174 52.5492 64.1191C51.645 64.1191 51.645 64.1191 51.9464 63.3164C51.9464 63.1157 52.0469 63.0154 52.1473 62.8147C52.4488 61.9116 52.4488 61.9116 53.4535 61.9116L53.6545 62.012Z" fill="#F7C8A6"/>
<path d="M33.358 53.8848C34.0613 53.8848 34.6642 53.9851 35.267 54.2861C35.3675 54.2861 35.5685 54.3865 35.5685 54.4868C35.5685 54.6875 35.3675 54.7878 35.267 54.7878C34.0613 55.4902 32.7551 55.9919 31.4489 56.2929C29.6404 56.7946 27.8318 57.0956 26.0232 57.0956C25.9227 57.0956 25.8223 57.0957 25.8223 56.9953C25.8223 56.895 25.9227 56.7946 25.9227 56.7946C26.3246 56.2929 26.827 55.8916 27.4299 55.5905C29.3389 54.5871 31.3485 53.9851 33.358 53.8848Z" fill="#F7C7A3"/>
<path d="M40.9943 54.1855C40.6929 54.1855 40.4919 54.1855 40.1905 54.1855C39.9896 54.1855 39.8891 54.0851 39.7886 53.8844C39.6881 53.6838 39.8891 53.5834 39.9896 53.4831C40.6929 52.9814 41.5972 52.7807 42.5015 52.881C42.8029 52.881 43.2048 52.9814 43.5062 52.9814C43.9081 53.0817 43.8077 53.2824 43.6067 53.4831C43.4058 53.5834 43.2048 53.6838 43.0039 53.7841C42.5015 54.0851 41.7981 54.2858 40.9943 54.1855Z" fill="#F7C6A3"/>
<path d="M8.84215 59.0019C7.73691 60.206 6.22977 61.0087 4.62215 61.3098C4.4212 61.4101 4.11977 61.5104 3.91882 61.3098C3.81834 61.1091 4.01929 60.9084 4.22024 60.8081C5.12453 59.2026 6.73215 58.0989 8.54072 57.5972C8.74167 57.9985 8.84215 58.5002 8.84215 59.0019Z" fill="#F4AE7A"/>
<path d="M8.84185 59.0022C8.54042 58.6008 8.43994 58.0991 8.43994 57.4971C8.84185 57.3967 9.14328 57.2964 9.54518 57.2964C9.64566 57.2964 9.84661 57.2964 9.94708 57.3967C10.0476 57.4971 9.94709 57.5974 9.84661 57.6977C9.54518 58.1994 9.24375 58.6008 8.84185 59.0022Z" fill="#F5B788"/>
<path d="M17.4829 78.8691C18.7891 77.7654 20.2962 76.9626 21.9039 76.2603C22.3058 76.2603 22.6072 76.3606 22.9086 76.4609C23.1096 76.5613 23.2101 76.5613 23.2101 76.762C21.8034 77.8657 20.1958 78.6684 18.4877 79.2705C18.2867 79.3708 17.9853 79.3708 17.6839 79.2705C17.5834 79.2705 17.4829 79.1701 17.4829 78.8691Z" fill="#F7C5A0"/>
<path d="M23.21 76.8623C22.8081 76.7619 22.3057 76.5613 21.9038 76.2602C22.8081 75.8589 23.8129 75.6582 24.7171 75.4575C24.8176 75.4575 24.8176 75.5579 24.7171 75.6582C24.3152 76.1599 23.8129 76.5613 23.21 76.8623Z" fill="#F8CCAC"/>
<path d="M17.4828 78.8691C17.7842 79.0698 18.0856 79.2705 18.4875 79.3708L17.5832 79.6719C17.3823 79.7722 17.1813 79.6719 17.0809 79.5715C16.8799 79.4712 16.7794 79.3708 17.0809 79.1702C17.2818 79.0698 17.3823 78.9695 17.4828 78.8691Z" fill="#F5B687"/>
<path d="M24.8174 75.6583V75.4576C24.8174 75.3572 25.0183 75.3572 25.0183 75.4576C25.0183 75.6583 24.8174 75.6583 24.8174 75.6583Z" fill="#ED8C46"/>
</g>
<path d="M78.2328 32.2686V34.7822H80.4482C80.8883 34.7822 81.2183 34.7314 81.4384 34.6299C81.8277 34.4521 82.0224 34.1009 82.0224 33.5762C82.0224 33.0091 81.8341 32.6283 81.4574 32.4336C81.2458 32.3236 80.9285 32.2686 80.5053 32.2686H78.2328ZM80.9115 30.6436C81.5675 30.6562 82.071 30.7367 82.4223 30.8848C82.7777 31.0329 83.0782 31.2508 83.3236 31.5386C83.5268 31.7756 83.6876 32.0379 83.8061 32.3257C83.9246 32.6134 83.9838 32.9414 83.9838 33.3096C83.9838 33.7539 83.8717 34.1919 83.6474 34.6235C83.4231 35.0509 83.0528 35.3535 82.5365 35.5312C82.9682 35.7048 83.2729 35.9523 83.4506 36.2739C83.6326 36.5913 83.7235 37.078 83.7235 37.7339V38.3623C83.7235 38.7897 83.7405 39.0796 83.7743 39.2319C83.8251 39.4731 83.9436 39.6509 84.1298 39.7651V40H81.9779C81.9187 39.7926 81.8764 39.6255 81.851 39.4985C81.8002 39.2362 81.7727 38.9674 81.7685 38.6924L81.7558 37.8228C81.7473 37.2261 81.6373 36.8283 81.4257 36.6294C81.2183 36.4305 80.8269 36.3311 80.2514 36.3311H78.2328V40H76.3222V30.6436H80.9115ZM90.0709 38.6035C90.8454 38.6035 91.459 38.3179 91.9118 37.7466C92.3688 37.1753 92.5973 36.3628 92.5973 35.3091C92.5973 34.2596 92.3688 33.4492 91.9118 32.8779C91.459 32.3024 90.8454 32.0146 90.0709 32.0146C89.2965 32.0146 88.6787 32.3003 88.2174 32.8716C87.7562 33.4429 87.5255 34.2554 87.5255 35.3091C87.5255 36.3628 87.7562 37.1753 88.2174 37.7466C88.6787 38.3179 89.2965 38.6035 90.0709 38.6035ZM94.5524 35.3091C94.5524 36.9891 94.0805 38.2756 93.1369 39.1685C92.4302 39.8963 91.4082 40.2603 90.0709 40.2603C88.7337 40.2603 87.7117 39.8963 87.005 39.1685C86.0571 38.2756 85.5832 36.9891 85.5832 35.3091C85.5832 33.5952 86.0571 32.3088 87.005 31.4497C87.7117 30.7218 88.7337 30.3579 90.0709 30.3579C91.4082 30.3579 92.4302 30.7218 93.1369 31.4497C94.0805 32.3088 94.5524 33.5952 94.5524 35.3091ZM96.3104 30.6436H98.2655V38.3179H102.899V40H96.3104V30.6436ZM104.518 30.6436H106.473V38.3179H111.107V40H104.518V30.6436ZM114.515 40H112.573V30.6436H114.515V40ZM116.571 30.6436H118.622L122.348 37.1753V30.6436H124.17V40H122.214L118.393 33.354V40H116.571V30.6436ZM132.548 33.5635C132.4 32.9245 132.038 32.478 131.463 32.2241C131.141 32.0845 130.784 32.0146 130.39 32.0146C129.637 32.0146 129.017 32.3003 128.53 32.8716C128.048 33.4386 127.806 34.2935 127.806 35.436C127.806 36.5871 128.069 37.4017 128.594 37.8799C129.118 38.3581 129.715 38.5972 130.384 38.5972C131.04 38.5972 131.577 38.4089 131.996 38.0322C132.415 37.6514 132.673 37.1541 132.77 36.5405H130.606V34.979H134.503V40H133.208L133.012 38.832C132.635 39.2764 132.296 39.5895 131.996 39.7715C131.48 40.0889 130.845 40.2476 130.092 40.2476C128.852 40.2476 127.836 39.818 127.045 38.959C126.22 38.0957 125.807 36.915 125.807 35.417C125.807 33.902 126.224 32.6875 127.057 31.7734C127.891 30.8594 128.994 30.4023 130.365 30.4023C131.554 30.4023 132.508 30.7049 133.227 31.3101C133.951 31.911 134.366 32.6621 134.472 33.5635H132.548ZM141.93 37.1118C141.989 37.5392 142.105 37.8587 142.279 38.0703C142.596 38.4554 143.14 38.6479 143.91 38.6479C144.371 38.6479 144.746 38.5972 145.034 38.4956C145.579 38.3009 145.852 37.9391 145.852 37.4102C145.852 37.1012 145.717 36.8621 145.446 36.6929C145.175 36.5278 144.75 36.3818 144.17 36.2549L143.18 36.0327C142.207 35.8127 141.534 35.5736 141.161 35.3154C140.531 34.8838 140.216 34.2088 140.216 33.2905C140.216 32.4526 140.52 31.7565 141.13 31.2021C141.739 30.6478 142.634 30.3706 143.815 30.3706C144.801 30.3706 145.641 30.633 146.335 31.1577C147.033 31.6782 147.399 32.4357 147.433 33.4302H145.554C145.52 32.8674 145.275 32.4674 144.818 32.2305C144.513 32.0739 144.134 31.9956 143.681 31.9956C143.178 31.9956 142.776 32.0972 142.475 32.3003C142.175 32.5034 142.025 32.7869 142.025 33.1509C142.025 33.4852 142.173 33.7349 142.469 33.8999C142.66 34.0099 143.066 34.139 143.688 34.2871L145.3 34.6743C146.007 34.8436 146.54 35.07 146.9 35.3535C147.458 35.7936 147.738 36.4305 147.738 37.2642C147.738 38.119 147.41 38.8299 146.754 39.397C146.102 39.9598 145.18 40.2412 143.986 40.2412C142.767 40.2412 141.809 39.964 141.111 39.4097C140.412 38.8511 140.063 38.0851 140.063 37.1118H141.93ZM149.039 35.3979C149.039 33.7645 149.477 32.5055 150.353 31.6211C151.114 30.8509 152.083 30.4658 153.26 30.4658C154.834 30.4658 155.985 30.9821 156.713 32.0146C157.115 32.5944 157.331 33.1763 157.36 33.7603H155.405C155.278 33.3117 155.115 32.9731 154.917 32.7446C154.561 32.3384 154.034 32.1353 153.336 32.1353C152.625 32.1353 152.064 32.423 151.654 32.9985C151.243 33.5698 151.038 34.3802 151.038 35.4297C151.038 36.4792 151.254 37.2663 151.686 37.791C152.121 38.3115 152.674 38.5718 153.342 38.5718C154.028 38.5718 154.551 38.3475 154.91 37.8989C155.109 37.6577 155.274 37.2959 155.405 36.8135H157.341C157.172 37.8333 156.738 38.6628 156.04 39.3018C155.346 39.9408 154.455 40.2603 153.368 40.2603C152.022 40.2603 150.964 39.8286 150.194 38.9653C149.424 38.0978 149.039 36.9087 149.039 35.3979ZM166.018 32.3003H161.067V34.2871H165.612V35.9121H161.067V38.3179H166.247V40H159.157V30.6436H166.018V32.3003ZM167.999 30.6436H170.049L173.775 37.1753V30.6436H175.597V40H173.642L169.82 33.354V40H167.999V30.6436ZM180.243 36.4644H182.617L181.449 32.7827L180.243 36.4644ZM180.364 30.6436H182.573L185.886 40H183.766L183.163 38.0767H179.716L179.069 40H177.025L180.364 30.6436ZM189.294 32.2686V34.7822H191.51C191.95 34.7822 192.28 34.7314 192.5 34.6299C192.889 34.4521 193.084 34.1009 193.084 33.5762C193.084 33.0091 192.896 32.6283 192.519 32.4336C192.307 32.3236 191.99 32.2686 191.567 32.2686H189.294ZM191.973 30.6436C192.629 30.6562 193.133 30.7367 193.484 30.8848C193.839 31.0329 194.14 31.2508 194.385 31.5386C194.588 31.7756 194.749 32.0379 194.868 32.3257C194.986 32.6134 195.045 32.9414 195.045 33.3096C195.045 33.7539 194.933 34.1919 194.709 34.6235C194.485 35.0509 194.114 35.3535 193.598 35.5312C194.03 35.7048 194.334 35.9523 194.512 36.2739C194.694 36.5913 194.785 37.078 194.785 37.7339V38.3623C194.785 38.7897 194.802 39.0796 194.836 39.2319C194.887 39.4731 195.005 39.6509 195.191 39.7651V40H193.04C192.98 39.7926 192.938 39.6255 192.913 39.4985C192.862 39.2362 192.834 38.9674 192.83 38.6924L192.817 37.8228C192.809 37.2261 192.699 36.8283 192.487 36.6294C192.28 36.4305 191.889 36.3311 191.313 36.3311H189.294V40H187.384V30.6436H191.973ZM198.784 40H196.842V30.6436H198.784V40ZM205.011 38.6035C205.785 38.6035 206.399 38.3179 206.852 37.7466C207.309 37.1753 207.537 36.3628 207.537 35.3091C207.537 34.2596 207.309 33.4492 206.852 32.8779C206.399 32.3024 205.785 32.0146 205.011 32.0146C204.236 32.0146 203.618 32.3003 203.157 32.8716C202.696 33.4429 202.465 34.2554 202.465 35.3091C202.465 36.3628 202.696 37.1753 203.157 37.7466C203.618 38.3179 204.236 38.6035 205.011 38.6035ZM209.492 35.3091C209.492 36.9891 209.02 38.2756 208.077 39.1685C207.37 39.8963 206.348 40.2603 205.011 40.2603C203.674 40.2603 202.652 39.8963 201.945 39.1685C200.997 38.2756 200.523 36.9891 200.523 35.3091C200.523 33.5952 200.997 32.3088 201.945 31.4497C202.652 30.7218 203.674 30.3579 205.011 30.3579C206.348 30.3579 207.37 30.7218 208.077 31.4497C209.02 32.3088 209.492 33.5952 209.492 35.3091Z" fill="white"/>
<path d="M78.2328 32.2686V34.7822H80.4482C80.8883 34.7822 81.2183 34.7314 81.4384 34.6299C81.8277 34.4521 82.0224 34.1009 82.0224 33.5762C82.0224 33.0091 81.8341 32.6283 81.4574 32.4336C81.2458 32.3236 80.9285 32.2686 80.5053 32.2686H78.2328ZM80.9115 30.6436C81.5675 30.6562 82.071 30.7367 82.4223 30.8848C82.7777 31.0329 83.0782 31.2508 83.3236 31.5386C83.5268 31.7756 83.6876 32.0379 83.8061 32.3257C83.9246 32.6134 83.9838 32.9414 83.9838 33.3096C83.9838 33.7539 83.8717 34.1919 83.6474 34.6235C83.4231 35.0509 83.0528 35.3535 82.5365 35.5312C82.9682 35.7048 83.2729 35.9523 83.4506 36.2739C83.6326 36.5913 83.7235 37.078 83.7235 37.7339V38.3623C83.7235 38.7897 83.7405 39.0796 83.7743 39.2319C83.8251 39.4731 83.9436 39.6509 84.1298 39.7651V40H81.9779C81.9187 39.7926 81.8764 39.6255 81.851 39.4985C81.8002 39.2362 81.7727 38.9674 81.7685 38.6924L81.7558 37.8228C81.7473 37.2261 81.6373 36.8283 81.4257 36.6294C81.2183 36.4305 80.8269 36.3311 80.2514 36.3311H78.2328V40H76.3222V30.6436H80.9115ZM90.0709 38.6035C90.8454 38.6035 91.459 38.3179 91.9118 37.7466C92.3688 37.1753 92.5973 36.3628 92.5973 35.3091C92.5973 34.2596 92.3688 33.4492 91.9118 32.8779C91.459 32.3024 90.8454 32.0146 90.0709 32.0146C89.2965 32.0146 88.6787 32.3003 88.2174 32.8716C87.7562 33.4429 87.5255 34.2554 87.5255 35.3091C87.5255 36.3628 87.7562 37.1753 88.2174 37.7466C88.6787 38.3179 89.2965 38.6035 90.0709 38.6035ZM94.5524 35.3091C94.5524 36.9891 94.0805 38.2756 93.1369 39.1685C92.4302 39.8963 91.4082 40.2603 90.0709 40.2603C88.7337 40.2603 87.7117 39.8963 87.005 39.1685C86.0571 38.2756 85.5832 36.9891 85.5832 35.3091C85.5832 33.5952 86.0571 32.3088 87.005 31.4497C87.7117 30.7218 88.7337 30.3579 90.0709 30.3579C91.4082 30.3579 92.4302 30.7218 93.1369 31.4497C94.0805 32.3088 94.5524 33.5952 94.5524 35.3091ZM96.3104 30.6436H98.2655V38.3179H102.899V40H96.3104V30.6436ZM104.518 30.6436H106.473V38.3179H111.107V40H104.518V30.6436ZM114.515 40H112.573V30.6436H114.515V40ZM116.571 30.6436H118.622L122.348 37.1753V30.6436H124.17V40H122.214L118.393 33.354V40H116.571V30.6436ZM132.548 33.5635C132.4 32.9245 132.038 32.478 131.463 32.2241C131.141 32.0845 130.784 32.0146 130.39 32.0146C129.637 32.0146 129.017 32.3003 128.53 32.8716C128.048 33.4386 127.806 34.2935 127.806 35.436C127.806 36.5871 128.069 37.4017 128.594 37.8799C129.118 38.3581 129.715 38.5972 130.384 38.5972C131.04 38.5972 131.577 38.4089 131.996 38.0322C132.415 37.6514 132.673 37.1541 132.77 36.5405H130.606V34.979H134.503V40H133.208L133.012 38.832C132.635 39.2764 132.296 39.5895 131.996 39.7715C131.48 40.0889 130.845 40.2476 130.092 40.2476C128.852 40.2476 127.836 39.818 127.045 38.959C126.22 38.0957 125.807 36.915 125.807 35.417C125.807 33.902 126.224 32.6875 127.057 31.7734C127.891 30.8594 128.994 30.4023 130.365 30.4023C131.554 30.4023 132.508 30.7049 133.227 31.3101C133.951 31.911 134.366 32.6621 134.472 33.5635H132.548ZM141.93 37.1118C141.989 37.5392 142.105 37.8587 142.279 38.0703C142.596 38.4554 143.14 38.6479 143.91 38.6479C144.371 38.6479 144.746 38.5972 145.034 38.4956C145.579 38.3009 145.852 37.9391 145.852 37.4102C145.852 37.1012 145.717 36.8621 145.446 36.6929C145.175 36.5278 144.75 36.3818 144.17 36.2549L143.18 36.0327C142.207 35.8127 141.534 35.5736 141.161 35.3154C140.531 34.8838 140.216 34.2088 140.216 33.2905C140.216 32.4526 140.52 31.7565 141.13 31.2021C141.739 30.6478 142.634 30.3706 143.815 30.3706C144.801 30.3706 145.641 30.633 146.335 31.1577C147.033 31.6782 147.399 32.4357 147.433 33.4302H145.554C145.52 32.8674 145.275 32.4674 144.818 32.2305C144.513 32.0739 144.134 31.9956 143.681 31.9956C143.178 31.9956 142.776 32.0972 142.475 32.3003C142.175 32.5034 142.025 32.7869 142.025 33.1509C142.025 33.4852 142.173 33.7349 142.469 33.8999C142.66 34.0099 143.066 34.139 143.688 34.2871L145.3 34.6743C146.007 34.8436 146.54 35.07 146.9 35.3535C147.458 35.7936 147.738 36.4305 147.738 37.2642C147.738 38.119 147.41 38.8299 146.754 39.397C146.102 39.9598 145.18 40.2412 143.986 40.2412C142.767 40.2412 141.809 39.964 141.111 39.4097C140.412 38.8511 140.063 38.0851 140.063 37.1118H141.93ZM149.039 35.3979C149.039 33.7645 149.477 32.5055 150.353 31.6211C151.114 30.8509 152.083 30.4658 153.26 30.4658C154.834 30.4658 155.985 30.9821 156.713 32.0146C157.115 32.5944 157.331 33.1763 157.36 33.7603H155.405C155.278 33.3117 155.115 32.9731 154.917 32.7446C154.561 32.3384 154.034 32.1353 153.336 32.1353C152.625 32.1353 152.064 32.423 151.654 32.9985C151.243 33.5698 151.038 34.3802 151.038 35.4297C151.038 36.4792 151.254 37.2663 151.686 37.791C152.121 38.3115 152.674 38.5718 153.342 38.5718C154.028 38.5718 154.551 38.3475 154.91 37.8989C155.109 37.6577 155.274 37.2959 155.405 36.8135H157.341C157.172 37.8333 156.738 38.6628 156.04 39.3018C155.346 39.9408 154.455 40.2603 153.368 40.2603C152.022 40.2603 150.964 39.8286 150.194 38.9653C149.424 38.0978 149.039 36.9087 149.039 35.3979ZM166.018 32.3003H161.067V34.2871H165.612V35.9121H161.067V38.3179H166.247V40H159.157V30.6436H166.018V32.3003ZM167.999 30.6436H170.049L173.775 37.1753V30.6436H175.597V40H173.642L169.82 33.354V40H167.999V30.6436ZM180.243 36.4644H182.617L181.449 32.7827L180.243 36.4644ZM180.364 30.6436H182.573L185.886 40H183.766L183.163 38.0767H179.716L179.069 40H177.025L180.364 30.6436ZM189.294 32.2686V34.7822H191.51C191.95 34.7822 192.28 34.7314 192.5 34.6299C192.889 34.4521 193.084 34.1009 193.084 33.5762C193.084 33.0091 192.896 32.6283 192.519 32.4336C192.307 32.3236 191.99 32.2686 191.567 32.2686H189.294ZM191.973 30.6436C192.629 30.6562 193.133 30.7367 193.484 30.8848C193.839 31.0329 194.14 31.2508 194.385 31.5386C194.588 31.7756 194.749 32.0379 194.868 32.3257C194.986 32.6134 195.045 32.9414 195.045 33.3096C195.045 33.7539 194.933 34.1919 194.709 34.6235C194.485 35.0509 194.114 35.3535 193.598 35.5312C194.03 35.7048 194.334 35.9523 194.512 36.2739C194.694 36.5913 194.785 37.078 194.785 37.7339V38.3623C194.785 38.7897 194.802 39.0796 194.836 39.2319C194.887 39.4731 195.005 39.6509 195.191 39.7651V40H193.04C192.98 39.7926 192.938 39.6255 192.913 39.4985C192.862 39.2362 192.834 38.9674 192.83 38.6924L192.817 37.8228C192.809 37.2261 192.699 36.8283 192.487 36.6294C192.28 36.4305 191.889 36.3311 191.313 36.3311H189.294V40H187.384V30.6436H191.973ZM198.784 40H196.842V30.6436H198.784V40ZM205.011 38.6035C205.785 38.6035 206.399 38.3179 206.852 37.7466C207.309 37.1753 207.537 36.3628 207.537 35.3091C207.537 34.2596 207.309 33.4492 206.852 32.8779C206.399 32.3024 205.785 32.0146 205.011 32.0146C204.236 32.0146 203.618 32.3003 203.157 32.8716C202.696 33.4429 202.465 34.2554 202.465 35.3091C202.465 36.3628 202.696 37.1753 203.157 37.7466C203.618 38.3179 204.236 38.6035 205.011 38.6035ZM209.492 35.3091C209.492 36.9891 209.02 38.2756 208.077 39.1685C207.37 39.8963 206.348 40.2603 205.011 40.2603C203.674 40.2603 202.652 39.8963 201.945 39.1685C200.997 38.2756 200.523 36.9891 200.523 35.3091C200.523 33.5952 200.997 32.3088 201.945 31.4497C202.652 30.7218 203.674 30.3579 205.011 30.3579C206.348 30.3579 207.37 30.7218 208.077 31.4497C209.02 32.3088 209.492 33.5952 209.492 35.3091Z" fill="#E7A271"/>
<defs>
<clipPath id="clip0_2952_69291">
<rect width="211" height="59" fill="white" transform="translate(0 29)"/>
</clipPath>
</defs>
</svg>
