<svg id="Layer_1" data-name="Layer 1" xmlns="http://www.w3.org/2000/svg" width="207" height="58" xmlns:xlink="http://www.w3.org/1999/xlink" viewBox="0 0 207 58"><defs><clipPath id="clip-path"><rect width="58" height="58" style="fill:none"/></clipPath><mask id="mask" x="41" y="18" width="177.32" height="73.01" maskUnits="userSpaceOnUse"><g id="mask0"><path d="M75.5,18h6.15V35.56a8.37,8.37,0,0,1-1.14,4.36,7.64,7.64,0,0,1-3.17,3A9.66,9.66,0,0,1,72.82,44a9.36,9.36,0,0,1-6.5-2.11,7.67,7.67,0,0,1-2.32-6h6.19a4.27,4.27,0,0,0,.6,2.55,2.41,2.41,0,0,0,2,.79,2.28,2.28,0,0,0,2-1,4.48,4.48,0,0,0,.71-2.69Z" style="fill:#fafafa"/><path d="M105.63,18V34.75a9.65,9.65,0,0,1-1.22,4.94,7.94,7.94,0,0,1-3.48,3.17A12.35,12.35,0,0,1,95.57,44a10.56,10.56,0,0,1-7.36-2.43,8.65,8.65,0,0,1-2.75-6.64V18h6.21V35q.1,4.2,3.9,4.2a3.76,3.76,0,0,0,2.9-1.06,4.89,4.89,0,0,0,1-3.42V18Z" style="fill:#fafafa"/><path d="M115.66,34.91v8.68h-6.17V18h10.22a11.71,11.71,0,0,1,5.18,1.09,8,8,0,0,1,3.5,3.08,8.31,8.31,0,0,1,1.25,4.51,7.44,7.44,0,0,1-2.69,6,11.11,11.11,0,0,1-7.35,2.23Zm0-4.76h4a3.77,3.77,0,0,0,2.72-.9,3.32,3.32,0,0,0,.95-2.53,4.11,4.11,0,0,0-1-2.87,3.45,3.45,0,0,0-2.63-1.09h-4.12Z" style="fill:#fafafa"/><path d="M139.52,43.59h-6.16V18h6.16Z" style="fill:#fafafa"/><path d="M163.37,22.76h-7.68V43.59h-6.17V22.76H142V18h21.39Z" style="fill:#fafafa"/><path d="M181.86,32.75h-9.7v6.1h11.46v4.74H166V18h17.66v4.76H172.16v5.4h9.7Z" style="fill:#fafafa"/><path d="M195.64,34.56H192.3v9h-6.17V18h10.08a11.2,11.2,0,0,1,7.11,2,6.83,6.83,0,0,1,2.57,5.71,8.22,8.22,0,0,1-1.09,4.43A7.52,7.52,0,0,1,201.43,33l5.34,10.32v.26h-6.61Zm-3.34-4.77h3.91a3.47,3.47,0,0,0,2.63-.91,3.55,3.55,0,0,0,.9-2.58,3.58,3.58,0,0,0-.9-2.59,3.46,3.46,0,0,0-2.63-.95H192.3Z" style="fill:#fafafa"/></g></mask></defs><title>Artboard 1</title><g style="clip-path:url(#clip-path)"><path d="M27.42,58h-.63c-.71-.13-1.42-.11-2.14-.17a21.84,21.84,0,0,1-5.11-1.2,28.6,28.6,0,0,1-6.64-3.25,29.87,29.87,0,0,1-3.52-2.76,28.11,28.11,0,0,1-4.9-5.76A28.26,28.26,0,0,1,.24,34.14c-.15-.89-.13-1.81-.19-2.71a.44.44,0,0,0,0-.22v-.63c.1-.17,0-.36.05-.54s.05-.37,0-.55v-1c.1-.17,0-.36.05-.55s.05-.37,0-.54v-.63a16.83,16.83,0,0,0,.15-2,20.71,20.71,0,0,1,1.16-5.11,28.26,28.26,0,0,1,3.53-7.11A31.1,31.1,0,0,1,9.3,7.42,29.44,29.44,0,0,1,16.48,2.6,26.82,26.82,0,0,1,24,.23,24.66,24.66,0,0,1,26.57.05c.1,0,.21,0,.31,0h.54c.17.1.36,0,.54.05s.37.05.55,0h1c.17.09.36,0,.54.05s.31,0,.46,0h.63A21.46,21.46,0,0,0,33.4.16a12.76,12.76,0,0,1,2,.33A29.14,29.14,0,0,1,54.32,14.4a28.54,28.54,0,0,1,3.44,9.46,24.7,24.7,0,0,1,.2,2.72c0,.1,0,.21,0,.31v.54c-.1.17,0,.36,0,.54s-.05.37,0,.55v1c-.1.17,0,.36,0,.54s-.05.38,0,.55v.63a16.83,16.83,0,0,0-.15,2,20.81,20.81,0,0,1-1.16,5.11,28.26,28.26,0,0,1-3.53,7.11,30.31,30.31,0,0,1-4.46,5.14,29.44,29.44,0,0,1-7.18,4.82A27.15,27.15,0,0,1,34,57.79a24.66,24.66,0,0,1-2.58.18c-.1,0-.21,0-.31.05H30.5c-.15-.09-.31,0-.46-.05s-.37,0-.54.05h-1c-.18-.1-.37,0-.55-.05S27.59,57.91,27.42,58Z" style="fill:#e97d2e"/><path d="M0,29.5a.87.87,0,0,1,.08.55c0,.07-.06.06-.08,0Z" style="fill:#ee914c"/><path d="M28,.08c-.18,0-.37.08-.54-.08H28C28,0,28,.06,28,.08Z" style="fill:#f1a973"/><path d="M30.05.08A.81.81,0,0,1,29.5,0h.55C30.11,0,30.12.05,30.05.08Z" style="fill:#ee914c"/><path d="M0,27.42c.16.15.06.35.08.53S0,28,0,28Z" style="fill:#f1a973"/><path d="M28,.08V0h.55A.81.81,0,0,1,28,.08Z" style="fill:#ee914c"/><path d="M0,28H.08a.84.84,0,0,1-.08.56Z" style="fill:#ee914c"/><path d="M0,30.05H.08c0,.19.08.38-.08.54Z" style="fill:#f1a973"/><path d="M27.42,58c.15-.16.35-.06.53-.08S28,58,28,58Z" style="fill:#f1a973"/><path d="M28,58v-.08a.81.81,0,0,1,.55.08Z" style="fill:#ee914c"/><path d="M29.5,58a.81.81,0,0,1,.55-.08c.07,0,.06.06,0,.08Z" style="fill:#ee914c"/><path d="M30.05.08V0h.45C30.37.14,30.2.07,30.05.08Z" style="fill:#f1a973"/><path d="M30.05,58v-.08c.16,0,.32-.06.45.08Z" style="fill:#f1a973"/><path d="M48.14,21.37c.65.15,1.34,0,2,.16a.47.47,0,0,1,.38.44A20.39,20.39,0,0,1,51,26.08a.81.81,0,0,1-.13.52,68.67,68.67,0,0,0-9.17.71,79.38,79.38,0,0,0-15.57,4.24c-2.65,1-5.29,2-7.84,3.26A58.93,58.93,0,0,0,12,38.37a1,1,0,0,1-.73-1.16l5.42-3,4.68-2.55a1.09,1.09,0,0,0,.66-1.22,1.37,1.37,0,0,0-1.09-1,2.15,2.15,0,0,1-1.76-3,1.09,1.09,0,0,1,.55-.57,21.09,21.09,0,0,1,5.62-2.21c2-.51,4.07-.81,6.12-1.12,1.23-.19,2.46-.43,3.69-.64s2.57-.27,3.87-.36,2.55-.16,3.83-.24a9,9,0,0,0,1.47,0C45.63,21.38,46.88,21.45,48.14,21.37Z" style="fill:#f5b789"/><path d="M50,20c-1.5,0-3-.16-4.47-.1-2.17.1-4.32.21-6.48.37a82.64,82.64,0,0,0-14.76,2.33A24.78,24.78,0,0,0,19,24.75a2.38,2.38,0,0,0-1.24,2.05,3.38,3.38,0,0,0,2.33,3.78l.34.14c-3.27,1.8-6.55,3.38-9.63,5.29-.21,0-.3-.11-.36-.26a12.29,12.29,0,0,1-.55-1.58.58.58,0,0,1,.09-.51c1-.63,1.93-1.3,2.93-1.89a2.88,2.88,0,0,0,1.45-3.24c-.39-1.84.49-2.94,1.81-3.85A30.29,30.29,0,0,1,21,22.05a45.89,45.89,0,0,1,11.3-3.22c2.65-.42,5.3-.79,8-1,2.16-.18,4.32-.33,6.49-.33l.36,0a9.51,9.51,0,0,0,1.19,0,.71.71,0,0,1,.81.47,11.68,11.68,0,0,1,.49,1.15c.1.26.25.5.35.76A.22.22,0,0,1,50,20Z" style="fill:#f7c7a4"/><path d="M12.77,39.56A19.38,19.38,0,0,1,15.27,38a78.92,78.92,0,0,1,10.56-5,76.46,76.46,0,0,1,12.74-3.8,65.06,65.06,0,0,1,9.11-1.18,5.45,5.45,0,0,0,1.51,0l.2-.07a5.6,5.6,0,0,0,1.08,0c.33,0,.48.12.44.46-.06.58,0,1.17-.13,1.76a1.12,1.12,0,0,1-.28.65,5.79,5.79,0,0,1-1.1,0h0a6.05,6.05,0,0,0,1.47-.13,5.16,5.16,0,0,1,1.52,0c.16,0,.3.07.29.27a44.94,44.94,0,0,0-7.15.3c-3.71.48-7.38,1.07-11,1.91a75.68,75.68,0,0,0-11.48,3.61,58.64,58.64,0,0,0-6.36,3L14.2,41.29a.47.47,0,0,1-.55-.2c-.29-.35-.58-.69-.86-1A.48.48,0,0,1,12.77,39.56Z" style="fill:#f7c7a4"/><path d="M53.39,16a1.3,1.3,0,0,1,.08.17.18.18,0,0,1-.15.07c-1.56,0-3.11.2-4.67.06-.68-.06-1.37,0-2-.1a5,5,0,0,0-1.45.07,2.21,2.21,0,0,1-1,0,2,2,0,0,0-.92.07,1.15,1.15,0,0,1-.71,0c-1.45,0-2.91.17-4.36.33a71.8,71.8,0,0,0-11.18,2,42.25,42.25,0,0,0-9.22,3.42A19.72,19.72,0,0,0,13.7,25a3,3,0,0,0-.74,1.8,9.25,9.25,0,0,0,0,2.35,1.34,1.34,0,0,1-.64,1.32c-.86.58-1.67,1.22-2.59,1.72-.21.11-.31,0-.36-.18-.11-.35-.28-.66-.4-1s.17-.36.34-.5a5.36,5.36,0,0,0,1.55-2,1.21,1.21,0,0,0-1.11-1.8,9.8,9.8,0,0,1-1.43.08A.6.6,0,0,1,8,26.44a6.25,6.25,0,0,1-.1-2,37,37,0,0,1,5.44-2.85c3.41-1.52,6.94-2.76,10.48-3.95a61.09,61.09,0,0,1,13-2.72c2.41-.26,4.81-.5,7.25-.53a1.22,1.22,0,0,0,.26-.06,6.85,6.85,0,0,1,1.43-.05c.62,0,1.24,0,1.86,0,.11,0,.24-.06.32.07v.07c-.36.43-.37.43,0,1a1.87,1.87,0,0,1,.17.31c.08.26,0,.41-.28.4-.6,0-1.21,0-1.8,0a1.21,1.21,0,0,1,.19,0,25.51,25.51,0,0,0,3.39-.23A7,7,0,0,1,51,15.9a7.88,7.88,0,0,0,1.39.08A5.17,5.17,0,0,1,53.39,16Z" style="fill:#f8ceaf"/><path d="M43.07,9.39c-1.13,0-2.26,0-3.39.11a58.18,58.18,0,0,0-7.67,1A105,105,0,0,0,21.8,13.23,86.21,86.21,0,0,0,12,17c-1.29.6-2.52,1.3-3.79,1.92A.18.18,0,0,1,8,18.71a4.24,4.24,0,0,1,.65-2.35,18.81,18.81,0,0,1,2.48-1.47,66.14,66.14,0,0,1,9.14-4c2.81-1,5.66-1.85,8.55-2.58A60.59,60.59,0,0,1,36.2,6.87c.76-.1,1.51-.22,2.27-.34A12.43,12.43,0,0,1,42.33,8.8a1.67,1.67,0,0,0,.53.32C43,9.16,43.1,9.21,43.07,9.39Z" style="fill:#f5b789"/><path d="M47.42,34.76c-1.09.09-2.19.17-3.28.28a59.17,59.17,0,0,0-6.84,1.15,64.32,64.32,0,0,0-9.76,3.09,59.47,59.47,0,0,0-8,3.9c-.57.33-1.16.65-1.73,1A.87.87,0,0,1,17,44a13.45,13.45,0,0,1-1.57-1.25c-.14-.13-.29-.28-.17-.51a22.12,22.12,0,0,1,2.49-1.45,60,60,0,0,1,11.6-4.74A89.06,89.06,0,0,1,39,33.66c2.41-.46,4.83-.84,7.27-1.08.74-.07,1.48-.17,2.22-.25a6,6,0,0,1,1.79,0h.18a4.91,4.91,0,0,1-.73,2.34c-.24,0-.5-.06-.74.09A6.12,6.12,0,0,1,47.42,34.76Z" style="fill:#f5b789"/><path d="M42.34,13a9.68,9.68,0,0,1-2,.16,88.72,88.72,0,0,0-9.74,1.34,58.43,58.43,0,0,0-8.72,2.34,109.57,109.57,0,0,0-11.59,4.67c-.75.37-1.49.78-2.24,1.17-.19.1-.3,0-.33-.17a4.12,4.12,0,0,1,0-1.64A.5.5,0,0,1,8,20.63a13.06,13.06,0,0,1,2.11-1.21,82.13,82.13,0,0,1,19-6.83,78.56,78.56,0,0,1,10-1.72A15,15,0,0,1,43,10.75c.52.08,1.05-.16,1.56,0,0,.46.4.72.65,1.05s.38.43.54.67.17.26.09.41-.25.09-.37.1H42.79A.7.7,0,0,0,42.34,13Z" style="fill:#f7c7a4"/><path d="M35.76,5.52l-4.25.81a82.23,82.23,0,0,0-13.06,3.85C16.17,11,14,12,11.77,13c-.82.39-1.63.84-2.44,1.26-.31,0-.28-.24-.22-.43a8.12,8.12,0,0,1,1.13-2.64A26.59,26.59,0,0,1,13.81,9a48.89,48.89,0,0,1,12-4.76c1.13-.28,2.26-.52,3.39-.78a.52.52,0,0,1,.25,0c.84.24,1.7.38,2.54.62,1.12.33,2.23.71,3.33,1.13C35.52,5.21,35.72,5.29,35.76,5.52Z" style="fill:#f7c7a4"/><path d="M18.92,45.08a64.19,64.19,0,0,1,12.66-5.89,63.25,63.25,0,0,1,10.87-2.6A54.79,54.79,0,0,1,49,36c.25,0,.48.11.39.44s0,.31.23.35a.23.23,0,0,1,.21.2,16.19,16.19,0,0,1-2.21.14,39.86,39.86,0,0,0-5,.79,49.87,49.87,0,0,0-7.51,2.13,20,20,0,0,0-4.31,2.36,3.59,3.59,0,0,0-1.32,3.94c.09.33,0,.46-.27.62a20.72,20.72,0,0,1-2,1,5.43,5.43,0,0,1-2.5-.23.42.42,0,0,1-.29-.2c-.1-.25,0-.39.21-.53a3.35,3.35,0,0,0,.9-1.18c.32-.67,0-1.11-.69-1.08a12.7,12.7,0,0,0-2.92.58c-.63.19-1.23.44-1.88.6a4.9,4.9,0,0,1-.95-.46C19,45.37,18.85,45.28,18.92,45.08Z" style="fill:#f7c7a3"/><path d="M45.16,50.12a39,39,0,0,0-9.58,1.64h-.09c-1.25.21-2.53.22-3.79.38-.22,0-.44.08-.67.09s-.35,0-.36-.22a57.6,57.6,0,0,1,6.48-2.47c1-.34,1-.64.92-1.64a3.83,3.83,0,0,0-.25-.86.34.34,0,0,1,.23-.25c.83-.24,1.62-.58,2.46-.75a.81.81,0,0,1,.22,0c.41.77.78.9,1.66.8,1.7-.19,3.38-.52,5.09-.6a6.59,6.59,0,0,1,2.45.31c.24.08.32.18.11.4s-.65.67-1,1c-.67.42-1.31.88-1.94,1.36A3.85,3.85,0,0,1,45.16,50.12Z" style="fill:#f6bd95"/><path d="M30.13,48.05a2.11,2.11,0,0,0,.7-1.12,1.48,1.48,0,0,0,0-.93,3.53,3.53,0,0,1-.13-1.07.89.89,0,0,1,.23-.66,10.4,10.4,0,0,1,4.54-2.93A56.38,56.38,0,0,1,47,38.55a28.28,28.28,0,0,1,6.1-.08.73.73,0,0,1-.55.72c-.91,0-1.84,0-2.75.09a37.47,37.47,0,0,0-5.78.85c-1.59.38-3.2.75-4.75,1.28a15.47,15.47,0,0,0-3.7,1.86,1.94,1.94,0,0,0,0,3.18,2.67,2.67,0,0,1,.93,1c0,.34-.23.39-.46.45a9.22,9.22,0,0,1-2,.38,23.68,23.68,0,0,1-3.37.1C30.46,48.33,30.17,48.41,30.13,48.05Z" style="fill:#f8ceaf"/><path d="M44.76,51.57a27.4,27.4,0,0,1-16.22,5A33.77,33.77,0,0,1,44.76,51.57Z" style="fill:#f1a268"/><path d="M12.3,7a23.2,23.2,0,0,1,5-3.07,30.34,30.34,0,0,1,15.1-2.42,3,3,0,0,1-1.18.21c-1.53.23-3,.56-4.55.88A50.07,50.07,0,0,0,14.13,7.33c-.83.43-1.63.91-2.45,1.37-.35.05-.27-.17-.21-.35A4.48,4.48,0,0,1,12.3,7Z" style="fill:#f8ceae"/><path d="M30.13,48.05a7.64,7.64,0,0,0,2.24.07,15.51,15.51,0,0,0,3.18-.37,2.06,2.06,0,0,0,.92-.34,2.46,2.46,0,0,1,.22.34c.13.31.13.55-.29.67a51.68,51.68,0,0,0-8,3.08l-1.57.78A6.42,6.42,0,0,1,24,52.07a3.93,3.93,0,0,1-.73-.19c-.19-.06-.38-.13-.33-.4l4.73-2.22Z" style="fill:#f7c6a1"/><path d="M40.72,46.05a.3.3,0,0,1-.21.2c-.91.24-1.77.65-2.7.81a6.45,6.45,0,0,0-1.5-1.67c-.41-.31-.36-.64.07-.93A22.18,22.18,0,0,1,45,41.32c.49-.09,1-.15,1.47-.23a.32.32,0,0,0,.17,0c.38,0,.41.1.24.44-.07.14-.21.25-.22.43-.92.22-1.86.34-2.76.62A4.66,4.66,0,0,0,41.41,44,2.25,2.25,0,0,0,40.72,46.05Z" style="fill:#f7c7a3"/><path d="M20.91,51l-3.64,1.81a.85.85,0,0,0-.25.13c-.51.49-1,.3-1.5,0-1.3-.82-2.61-1.63-3.82-2.57-.19-.15-.33-.26,0-.47a30.54,30.54,0,0,1,2.91-2c.47.17,1,.21,1.28.72.06.27-.15.4-.29.57-.72.83-.32,1.29.38,1.68a2.2,2.2,0,0,0,2.11.12c.43-.2.87-.38,1.32-.56a.57.57,0,0,1,.47-.09c.22.2.52.19.76.35S20.92,50.72,20.91,51Z" style="fill:#f4b180"/><path d="M22.91,51.5a8,8,0,0,0,2.52.62c.47.07.95.12,1.43.18-.43.26-.86.54-1.3.8a34.11,34.11,0,0,0-3.25,2.18.74.74,0,0,1-.74.14,21.48,21.48,0,0,1-3.74-1.37C19.53,53.1,21.21,52.3,22.91,51.5Z" style="fill:#f5b88b"/><path d="M15.19,42.25a6.59,6.59,0,0,0,2.62,1.9c-1.57.88-3,1.9-4.6,2.82a.66.66,0,0,1-.72-.18c-.46-.38-.94-.74-1.39-1.14-.18-.17-.37-.34-.18-.61C12.32,44.05,13.72,43.1,15.19,42.25Z" style="fill:#f4ae7b"/><path d="M10,33.67A13.23,13.23,0,0,0,10.78,36L6.22,38.77a3.31,3.31,0,0,1-.33.15c-.28,0-.41-.15-.51-.36-.25-.46-.48-.94-.71-1.41a.48.48,0,0,1,0-.59C6.43,35.54,8.2,34.62,10,33.67Z" style="fill:#f6bd95"/><path d="M30.67,52c.73,0,1.45-.19,2.18-.21a9.34,9.34,0,0,1,2.64,0c-.86.32-1.73.62-2.58,1a38.76,38.76,0,0,0-6.16,3.13A2.72,2.72,0,0,1,25,56.2c-.39,0-.77-.15-1.15-.22,0-.21.15-.22.25-.3a43.94,43.94,0,0,1,6.46-3.62Z" style="fill:#f4b180"/><path d="M46.85,43.33c1.24-.24,2.49-.41,3.74-.55A12.78,12.78,0,0,1,53,42.62a24.2,24.2,0,0,1-1.57,2.47.44.44,0,0,1-.54.15A7.42,7.42,0,0,0,49,45a27.1,27.1,0,0,0-5.69.46c-.07-.3.14-.4.35-.48a18.13,18.13,0,0,0,2.64-1.33C46.5,43.52,46.76,43.58,46.85,43.33Z" style="fill:#f4ae7a"/><path d="M35.76,5.52,33.3,4.65a21.64,21.64,0,0,0-3.16-.84,2.29,2.29,0,0,0-.92-.17l.28-.2a.68.68,0,0,1,.23-.07h0c.18-.12.4,0,.58-.09a0,0,0,0,0,.06,0c.23-.13.49,0,.73-.09h0c.29-.15.62,0,.92-.1h0A1.9,1.9,0,0,1,32.75,3a10,10,0,0,0,2,0,16.17,16.17,0,0,1,2.2.06l.73.08c0,.29-.22.27-.41.29a5.89,5.89,0,0,1-1.48-.2A10.8,10.8,0,0,1,39,4.38a3.42,3.42,0,0,0,.91.37c.15,0,.31.07.27.28C38.7,5.19,37.23,5.45,35.76,5.52Z" style="fill:#f8caaa"/><path d="M53.3,21.79a5,5,0,0,1,2.25.54.77.77,0,0,1,.41.55c.2,1.14.43,2.27.56,3.42,0,.19,0,.32-.21.28a12.55,12.55,0,0,0-2.74,0,.87.87,0,0,1-.12-.52,24.59,24.59,0,0,0-.31-3.63C53.1,22.21,53,22,53.3,21.79Z" style="fill:#f5b789"/><path d="M12.77,39.56a8.17,8.17,0,0,0,1.45,1.71c-.84.54-1.7,1.08-2.54,1.63L9.87,44.07a2.46,2.46,0,0,1-1.53-1.46.27.27,0,0,1,.08-.17A37.22,37.22,0,0,1,12.77,39.56Z" style="fill:#f6bd95"/><path d="M7.86,24.42a.9.9,0,0,1,.19.67,6.07,6.07,0,0,0,.09,1.2c0,.19.1.31.3.33,0,.23-.16.28-.31.31a8.49,8.49,0,0,0-3.67,2.12c-.35.33-.63.71-1,1.07-.16.16-.31.28-.54.15a.3.3,0,0,1-.14-.22,3.92,3.92,0,0,1,0-2.25A32.14,32.14,0,0,1,7.86,24.42Z" style="fill:#f7c6a1"/><path d="M8,20.63a7,7,0,0,0-.07,1.88.22.22,0,0,0,.16.2c-1,.6-2,1.19-3,1.81-.74.47-1.47,1-2.2,1.45a.22.22,0,0,1-.24-.26,3.93,3.93,0,0,1,.34-2A52.59,52.59,0,0,1,8,20.63Z" style="fill:#f6bd95"/><path d="M10.23,11.23c-.14.79-.58,1.48-.77,2.25-.07.27-.29.51-.14.82-1.56.95-3,2-4.55,3.05-.32-.08-.17-.3-.11-.46A9.87,9.87,0,0,1,6,14.37a21.64,21.64,0,0,1,2.33-1.84A16,16,0,0,1,10.23,11.23Z" style="fill:#f6bd95"/><path d="M8.59,16.35c-.15.68-.29,1.37-.42,2a1,1,0,0,0,0,.52c-1.56.9-3.11,1.83-4.63,2.79-.34.08-.35-.14-.32-.35a3.13,3.13,0,0,1,.68-1.73,22.9,22.9,0,0,1,2.8-2.09A16,16,0,0,1,8.59,16.35Z" style="fill:#f4ae7a"/><path d="M54.11,28a9.91,9.91,0,0,0,2.24.11c.24,0,.31.07.29.27-.08.94-.09,1.87-.08,2.8,0,.24-.13.21-.3.19-.91-.12-1.82-.26-2.73-.29l-.59,0c0-.14.16-.2.12-.33.09-.63.16-1.24.23-1.87,0-.12.06-.26.07-.38a.41.41,0,0,1,.53-.43A.35.35,0,0,0,54.11,28Z" style="fill:#f7c7a4"/><path d="M2.81,27.79a10,10,0,0,0,.29,2.45c.14.22,0,.37-.12.52a3.16,3.16,0,0,0-.51.69,1.12,1.12,0,0,0,.91,1.63c.22,0,.47,0,.62.19a2.24,2.24,0,0,0,.14,1.42.94.94,0,0,1,0,.44c-.48.3-1,.59-1.45.91-.27.18-.36.06-.42-.19a31.78,31.78,0,0,1-.61-3.51c-.11-.93-.21-1.87-.33-2.8a.89.89,0,0,1,.39-1C2.11,28.31,2.45,28.05,2.81,27.79Z" style="fill:#f5b88b"/><path d="M10.93,45c.13.43.51.62.82.86A6.1,6.1,0,0,0,13.21,47c-.84.6-1.68,1.21-2.51,1.84a.43.43,0,0,1-.66,0c-.53-.49-1.08-1-1.63-1.43-.2-.17-.22-.32,0-.47C9.26,46.26,10.1,45.66,10.93,45Z" style="fill:#f1a268"/><path d="M43.07,9.39a1.9,1.9,0,0,1-1-.49,14.93,14.93,0,0,0-3.18-2c-.17-.08-.37-.14-.44-.35a18.81,18.81,0,0,1,3.44-.19,1.37,1.37,0,0,1,1.2.33,19.6,19.6,0,0,1,2.77,2.21c.31.28.31.37.08.55-.27,0-.54.13-.81,0-.23-.42-.68-.57-1-.84s-.9-.66-1.24-.94A9.22,9.22,0,0,1,44.27,9c.12.12.23.25.08.43A3.91,3.91,0,0,1,43.07,9.39Z" style="fill:#f6c29b"/><path d="M20.91,51c-.36-.23-.8-.3-1.09-.62a.35.35,0,0,1,.25-.38,29.34,29.34,0,0,0,4-2.5c.15-.1.28-.17.46-.06a8.23,8.23,0,0,0,2.2.47l.53.1c-1,.47-1.91.93-2.87,1.38Z" style="fill:#f6bd95"/><path d="M4.18,35.12a3.59,3.59,0,0,1-.56-1.52c-.08-.27.25-.18.36-.3s.26-.25.43-.28a10.15,10.15,0,0,0,4.05-1.81c.17-.11.34-.34.6-.15s.31.45.41.7,0,.38.22.46A56.67,56.67,0,0,1,4.18,35.12Z" style="fill:#f7c6a1"/><path d="M51.76,34.67l-.19,0a.2.2,0,0,1,0-.13.72.72,0,0,0,.37-.46c.13-.38.29-.75.41-1.13a.78.78,0,0,1,.38-.52,19.67,19.67,0,0,1,3.15.4c.4.06.44.27.37.59s-.17.88-.26,1.32a3.48,3.48,0,0,1-1.54,0l-.19-.06A21,21,0,0,1,51.76,34.67Z" style="fill:#f5b789"/><path d="M11.32,37.21a5.39,5.39,0,0,0,.73,1.16l-4.54,3a1.18,1.18,0,0,1-.9-1.27C8.14,39.08,9.73,38.14,11.32,37.21Z" style="fill:#f4ae7a"/><path d="M51.85,21.62a3.39,3.39,0,0,1,.9.08,1.09,1.09,0,0,1,.34.62,20.57,20.57,0,0,1,.32,3.59c0,.59-.06.64-.64.64-.23,0-.45,0-.68,0s-.53-.12-.54-.48A28.31,28.31,0,0,0,51,22.41C50.86,21.53,50.91,21.48,51.85,21.62Z" style="fill:#f7c9a7"/><path d="M46,9.43c.07-.2-.1-.27-.2-.36a26.26,26.26,0,0,0-3.23-2.53,1.16,1.16,0,0,0-.63-.21,2.2,2.2,0,0,1,1.32,0,8.11,8.11,0,0,1,5.36,3.28c-.51-.08-1,0-1.49-.1S46.3,9.72,46,9.43Z" style="fill:#f5b789"/><path d="M51.86,21.62c-.76,0-.75,0-.62.74a22.56,22.56,0,0,1,.52,3.75c0,.29.13.39.41.41,1,.05,1.11,0,1-1.1a30.54,30.54,0,0,0-.44-3.71,1.39,1.39,0,0,1,.54.09c.11,1,.22,1.95.31,2.91a5.22,5.22,0,0,1,0,1.89c-.91,0-1.81.08-2.72,0a19.42,19.42,0,0,1-.17-2,16,16,0,0,0-.56-3.06A6,6,0,0,1,51.86,21.62Z" style="fill:#f6c29c"/><path d="M8.42,42.45a5.91,5.91,0,0,0,1.44,1.63L7.52,45.84c-.17.12-.28.11-.41-.08-.29-.42-.59-.84-.89-1.24A.33.33,0,0,1,6.3,44C7,43.48,7.67,42.9,8.42,42.45Z" style="fill:#f4b180"/><path d="M53.39,16a7.25,7.25,0,0,1-2.37.07c-.57,0-1.13,0-1.7,0A38.49,38.49,0,0,1,45.45,16h2c.14,0,.33.07.41-.1s-.08-.28-.16-.4-.36-.51-.54-.78-.1-.35.19-.35h.54a12.93,12.93,0,0,1,3,.28c.52,1.4.54,1.09,1.72,1.13.24,0,.5-.12.74,0A1.71,1.71,0,0,0,53.39,16Z" style="fill:#f8cfb1"/><path d="M15.73,48.5l-.83-.42c-.14-.07-.29-.13-.34-.32,1.39-1,2.9-1.8,4.36-2.68a4,4,0,0,0,1.19.62c.06.24-.11.33-.27.4a20,20,0,0,0-3.62,2.35C16.05,48.58,15.91,48.65,15.73,48.5Z" style="fill:#f6bd95"/><path d="M53.57,17.65a.62.62,0,0,1,.7.47c.28.68.62,1.33.93,2,.15.31.08.44-.29.39-.53-.08-1.07-.12-1.6-.22-.31-.06-.61.18-.9-.05.07-.25.25-.19.42-.13a.52.52,0,0,1-.31-.35c-.2-.54-.37-1.08-.57-1.62-.11-.32,0-.43.32-.45A8,8,0,0,0,53.57,17.65Z" style="fill:#f7c7a3"/><path d="M4.71,36.56a8.64,8.64,0,0,0,1.18,2.35l-1.69,1c-.26.16-.42.14-.53-.18-.23-.65-.48-1.27-.73-1.9-.07-.19-.09-.34.16-.42A18,18,0,0,0,4.71,36.56Z" style="fill:#f4b180"/><path d="M40.17,5.06c-1.66-.44-3.1-1.47-4.8-1.83a4.63,4.63,0,0,1,1.34,0,1.7,1.7,0,0,0,1-.06,9.39,9.39,0,0,1,4.7,1.71,8.33,8.33,0,0,1-1.5,0c-.15,0-.32,0-.47.06Z" style="fill:#f7c7a3"/><path d="M53.2,30.86l.09,0s0,.05,0,.05a1.89,1.89,0,0,1-.34.09h-.19a.92.92,0,0,0-.57-.09H49.31c-.06,0-.06,0,0-.07h1.18a.51.51,0,0,1,.3-.19c.49,0,.61-.38.63-.79s.14-1,.12-1.57c0-.28.1-.41.4-.4s.87,0,1.31,0c.24.15.12.37.1.56-.07.67-.22,1.33-.24,2A.43.43,0,0,0,53.2,30.86Z" style="fill:#f8cdae"/><path d="M6.6,40.07a5.63,5.63,0,0,0,.9,1.27c-.61.45-1.24.9-1.84,1.36-.28.2-.44.15-.62-.13-.65-1-.66-1,.31-1.68Z" style="fill:#f1a268"/><path d="M50,20v-.11a.8.8,0,0,0,.13-1,9.53,9.53,0,0,0-.44-1c-.14-.23-.12-.37.2-.35a7.46,7.46,0,0,1,1.16,0,.88.88,0,0,1,.6,0c.26.71.58,1.42.78,2.16.1.38,0,.45-.36.47s-.66-.07-1,0a3,3,0,0,1-.6,0Z" style="fill:#f8ceaf"/><path d="M48.23,11.13a5.31,5.31,0,0,0,1.24.18c.84-.06,1.2.49,1.58,1a4.71,4.71,0,0,1,.56.84,3.47,3.47,0,0,1-.65,0c-.58-.09-1.16,0-1.74-.08-.32-.55-.79-1-1.16-1.51C47.85,11.28,47.83,11.25,48.23,11.13Z" style="fill:#f7c6a3"/><path d="M46.85,43.33c.3.05.14.15,0,.23-.34.2-.66.4-1,.58-.83.44-1.67.86-2.51,1.29l-.32,0c-.22,0-.53.22-.66,0s.18-.38.32-.56a4.09,4.09,0,0,1,2.6-1.39C45.8,43.43,46.33,43.39,46.85,43.33Z" style="fill:#f5b789"/><path d="M45.74,10.85a6.4,6.4,0,0,1,1.95.19A14.33,14.33,0,0,0,49,12.76c.06.07.14.14.11.23s-.15.09-.23.09a8.89,8.89,0,0,1-1.26,0,7.34,7.34,0,0,1-1.69,0c0-.34.27-.27.46-.29s.34-.14.15-.36c-.37-.42-.59-1-1.14-1.25a.19.19,0,0,1-.12-.22c0-.1.12-.08.19-.08A.69.69,0,0,1,45.74,10.85Z" style="fill:#f8ceae"/><path d="M45.74,10.85l-.31,0c.4.09.54.45.76.71s.51.67.75,1,.14.34-.17.35a2.23,2.23,0,0,0-.89.07H42.35a3.09,3.09,0,0,1,1.21-.08c.57,0,1.14,0,1.72,0,.12,0,.3.07.38-.07s-.09-.27-.19-.38c-.43-.53-.86-1.07-1.3-1.6.11-.17.26-.09.38-.13A3.67,3.67,0,0,1,45.74,10.85Z" style="fill:#f8caaa"/><path d="M53.29,28H52.13c-.26,0-.38.06-.37.36a20,20,0,0,1-.16,2.05c0,.41-.2.53-.56.49a4.86,4.86,0,0,0-.54,0c.12-.8.16-1.61.22-2.41,0-.28-.06-.38-.32-.39a2.7,2.7,0,0,1-1-.08c1.3,0,2.61-.12,3.91-.09a1.17,1.17,0,0,1,.25.07A.19.19,0,0,1,53.29,28Z" style="fill:#f8caaa"/><path d="M53,36a15.62,15.62,0,0,1,2.17.17,1.62,1.62,0,0,1-1.07.86,2.38,2.38,0,0,1-.84,0H50.49a1.24,1.24,0,0,1,1.15-1A7.06,7.06,0,0,0,53,36Z" style="fill:#f7c7a3"/><path d="M3,23.71l-.12,1.92c0,.12-.05.23,0,.34-.41.34-.82.66-1.22,1-.07.05-.13.15-.22.13s-.09-.18-.09-.28A3.11,3.11,0,0,1,3,23.71Z" style="fill:#f4b180"/><path d="M29.76,3.07a7,7,0,0,0-.8.13,4.13,4.13,0,0,1-2.12-.13c.05-.16.17-.13.25-.15a16.51,16.51,0,0,1,3.19-.55c.72,0,1.39.22,2.1.25.06.11,0,.14-.1.18l-1.35.11c-.14.08-.31,0-.46.07h-.26C30.07,3.09,29.9,3,29.76,3.07Z" style="fill:#f1a267"/><path d="M12.3,7a8.34,8.34,0,0,1-.6,1.33c0,.1-.22.21,0,.33l-3.17,2a.73.73,0,0,0-.08-.09A29.6,29.6,0,0,1,12.3,7Z" style="fill:#f7c5a1"/><path d="M51,17.55H49.7a9.48,9.48,0,0,1,.72,1.66c.24.62.2.68-.47.69-.28,0-.36-.23-.43-.45a13.24,13.24,0,0,0-.68-1.6c-.1-.19-.21-.33-.43-.31-.07,0-.07-.06,0-.08A15.86,15.86,0,0,1,51,17.55Z" style="fill:#f8cbab"/><path d="M51.57,34.57v.08H49.76c.15-.65.3-1.31.44-2a.64.64,0,0,1,.28-.38,10,10,0,0,1,2.19.08l0,0c-.23.19-.52.1-.78.18a.5.5,0,0,0-.42.4,4.22,4.22,0,0,1-.2.6c-.2.59-.2.59.31.9C51.57,34.52,51.57,34.55,51.57,34.57Z" style="fill:#f6c29c"/><path d="M53.31,15.83a.72.72,0,0,1-.58.19H52.1c-.91,0-1.09-.15-1.4-1-.08-.21,0-.27.15-.35.56.13,1.13.27,1.7.37A.84.84,0,0,1,53.31,15.83Z" style="fill:#f8ceae"/><path d="M49.86,41.54l-2.09.25c-.5-.08-.53-.14-.21-.55a.27.27,0,0,0,0-.35,9.44,9.44,0,0,1,1.91-.18,2.76,2.76,0,0,1,.81,0c.25,0,.57-.06.36.39-.07.15.22.22.14.39h0C50.47,41.57,50.15,41.41,49.86,41.54Z" style="fill:#f7c6a3"/><path d="M50.78,41.46l-.08-.05c-.17-.12-.46.05-.52-.13s.25-.28.4-.48a3.76,3.76,0,0,0-1.1-.08,8.88,8.88,0,0,1,2.47,0,10.59,10.59,0,0,1,1.33.23c.15,0,.41,0,.41.2s-.28.19-.43.21c-.63.07-1.26.08-1.88.12A5.88,5.88,0,0,0,50.78,41.46Z" style="fill:#f6bd94"/><path d="M37.38,5.7c.77-.08,1.55-.14,2.33-.25a1.69,1.69,0,0,1,1.57.45,4.17,4.17,0,0,1-1,.1c-.76.09-1.53.16-2.29.22a1.87,1.87,0,0,1-1.12-.36c.08-.11.18-.08.27-.09S37.29,5.79,37.38,5.7Z" style="fill:#f1a268"/><path d="M53,36a3.5,3.5,0,0,1-1.29.08c-.28,0-.5.06-.62.35a1,1,0,0,1-.61.56.9.9,0,0,1-.7,0l-.32,0c-.54,0-.55,0-.37-.5.08-.22.08-.37-.15-.48a3.71,3.71,0,0,1,1.37,0,1.08,1.08,0,0,0,.79,0Z" style="fill:#f8ccac"/><path d="M3.88,19.63c-.15.55-.31,1.1-.45,1.65,0,.15-.14.33.08.43l-1.37.92C2.39,21.36,2.65,20.21,3.88,19.63Z" style="fill:#f1a268"/><path d="M6,14.38c-.27.89-.77,1.68-1.08,2.55,0,.14-.17.26-.11.42a5.15,5.15,0,0,1-1.09.75C4.25,16.73,4.71,15.3,6,14.38Z" style="fill:#f4b180"/><path d="M45.16,50.12a14.26,14.26,0,0,0,3-1.8,2.47,2.47,0,0,1,.87-.36c-.63.75-1.41,1.33-2.09,2a.5.5,0,0,1-.42.13Z" style="fill:#f4b180"/><path d="M51,20.09a5.93,5.93,0,0,1,.73,0c.46.05.51-.14.36-.51s-.38-1-.6-1.55c-.08-.2-.09-.35.07-.48.66.12,1.32,0,2,.11a3,3,0,0,1-1.12.08c-.29,0-.41.06-.28.4s.37,1,.54,1.53c.08.21.16.42.4.48l-.7.09-.16,0c-.24-.1-.51,0-.76-.07l-.41,0C51,20.16,51,20.14,51,20.09Z" style="fill:#f8cbaa"/><path d="M44.33,9.42c-.65-.76-1.32-1.49-2-2.26.66.43,1.34.86,2,1.32a5.32,5.32,0,0,1,.93.71c0,.05.16.09.11.16s-.17.05-.25.07h-.05A1.59,1.59,0,0,1,44.33,9.42Z" style="fill:#f7c9a7"/><path d="M52.56,39.19c0-.38.34-.5.55-.72l1.4.15c.14,0,.35,0,.3.22s0,.59-.33.55A11.27,11.27,0,0,1,52.56,39.19Z" style="fill:#f7c6a1"/><path d="M47.57,13H49a1.31,1.31,0,0,1-.66-.71,2.57,2.57,0,0,0-.66-.91c-.18-.14-.16-.26,0-.37l.55.09c-.27.14-.15.26,0,.41a12.34,12.34,0,0,1,1.07,1.32c.08.12.19.23-.08.26A15.3,15.3,0,0,1,47.57,13Z" style="fill:#f7caa9"/><path d="M46.61,16.2l6,0h.89a1.36,1.36,0,0,1-.95.1,5.07,5.07,0,0,0-1.5.2.26.26,0,0,1-.21.2,3.85,3.85,0,0,1-1.31-.09.46.46,0,0,1-.19-.13C48.4,16.47,47.51,16.25,46.61,16.2Z" style="fill:#e97b2c"/><path d="M53.29,28h.82c-.44.05-.57.33-.61.72-.08.72-.19,1.45-.29,2.17-.17,0-.34,0-.31-.27A18,18,0,0,1,53.29,28Z" style="fill:#f8cbab"/><path d="M53.29,37a1.28,1.28,0,0,0,1.41-.58c.1-.19.36-.11.5-.24.23,0,.49.05.42.38s0,.68-.52.62A17.61,17.61,0,0,1,53.29,37Z" style="fill:#f6bd93"/><path d="M47.57,40.89c.15,0,.3,0,.46.08a1,1,0,0,1-.36.43c-.27.23-.1.31.09.39l-1.15.2c-.27-.13-.12-.32,0-.42.26-.3.11-.4-.17-.48Z" style="fill:#f8caaa"/><path d="M52.75,32.41c-.21.6-.42,1.21-.62,1.82-.09.29-.29.35-.56.33a.54.54,0,0,1,0-.62c.11-.31.24-.61.34-.93a.72.72,0,0,1,.78-.61l0,0Z" style="fill:#f6c29c"/><path d="M48.14,21.37a.84.84,0,0,1-.44.08H43.33a.79.79,0,0,1-.43-.08Z" style="fill:#f6ba8f"/><path d="M32.76,3.09H32a.87.87,0,0,1,.48-.1h4a.69.69,0,0,1,.47.1,21.3,21.3,0,0,0-2.26,0A11.9,11.9,0,0,1,32.76,3.09Z" style="fill:#ea7e2f"/><path d="M47.86,14.33l-3.61,0a.74.74,0,0,1,.44-.1H47.4A.63.63,0,0,1,47.86,14.33Z" style="fill:#e97826"/><path d="M51.76,34.67h2.53A7.67,7.67,0,0,1,51.76,34.67Z" style="fill:#e97726"/><path d="M40.46,5c.23-.22.51-.08.76-.09.41,0,.81,0,1.21,0,.07.2-.1.1-.15.1Z" style="fill:#f8ccab"/><path d="M50.31,32.3l-1.79,0A3.4,3.4,0,0,1,50.31,32.3Z" style="fill:#e87726"/><path d="M50.86,20.72c-.24-.44-.64-.25-1-.27a2.39,2.39,0,0,1,1.45,0C51.11,20.47,50.88,20.42,50.86,20.72Z" style="fill:#ea7f32"/><path d="M47.42,34.76l1.61,0A3,3,0,0,1,47.42,34.76Z" style="fill:#e97725"/><path d="M49.21,28a2.67,2.67,0,0,1-1.51,0Z" style="fill:#f8cdae"/><path d="M30.84,46s.07-.2.08-.06a3.14,3.14,0,0,1,0,1.06c0,.14,0,0-.08-.06Z" style="fill:#f8cfb0"/><path d="M54.47,34.73H56A2.26,2.26,0,0,1,54.47,34.73Z" style="fill:#e87725"/><path d="M48.41,17.48v.08a4.44,4.44,0,0,1-1.26-.08Z" style="fill:#f8ceae"/><path d="M2.33,23.89a1.62,1.62,0,0,1-.48.37Z" style="fill:#eb8439"/><path d="M51.12,36a1,1,0,0,1-.83.08,0,0,0,0,1,0,0l0,0Z" style="fill:#f9d4b8"/><path d="M44.16,16.29l1,0A1.18,1.18,0,0,1,44.16,16.29Z" style="fill:#e77522"/><path d="M52.38,20.52l-.18,0a3.31,3.31,0,0,1-.83-.1A3.11,3.11,0,0,1,52.38,20.52Z" style="fill:#ea7f32"/><path d="M49.48,17.09c0-.18-.11-.36-.17-.53v-.09h.2c-.13.25.11.42.16.62Z" style="fill:#ec8941"/><path d="M32,3.08a3.51,3.51,0,0,1-.92.1C31.41,3,31.73,3.1,32,3.08Z" style="fill:#ea7e2f"/><path d="M49.85,41.54c.29-.18.61-.08.92-.09A5.73,5.73,0,0,1,49.85,41.54Z" style="fill:#f6bd94"/><path d="M42.52,16.38h.71C43,16.57,42.77,16.47,42.52,16.38Z" style="fill:#e77522"/><path d="M51.49,20.18a2.4,2.4,0,0,1,.76.07A1.4,1.4,0,0,1,51.49,20.18Z" style="fill:#ea7f32"/><path d="M44.33,9.41h.76A1.1,1.1,0,0,1,44.33,9.41Z" style="fill:#f6c29b"/><path d="M8.31,47.76c.18,0,.22.1.31.22C8.43,48,8.39,47.87,8.31,47.76Z" style="fill:#eb833a"/><path d="M32.29,2.8c0-.06.06-.12.1-.18s.26,0,.22.12S32.4,2.79,32.29,2.8Z" style="fill:#ea7e2f"/><path d="M31.13,3.18a2.25,2.25,0,0,1-.73.09C30.63,3.11,30.89,3.19,31.13,3.18Z" style="fill:#ea7e2f"/><path d="M51,20.09l.06.07a1.17,1.17,0,0,1-.67-.06Z" style="fill:#ea7f32"/><path d="M37.38,5.7c0,.35-.19.09-.29.07A1.53,1.53,0,0,0,37.38,5.7Z" style="fill:#ef9959"/><path d="M30.35,3.27a5.81,5.81,0,0,0-.58.09A.9.9,0,0,1,30.35,3.27Z" style="fill:#ea7e2f"/><path d="M1.64,23.38a.61.61,0,0,0,0-.06l.06,0s0,0,0,.06Z" style="fill:#ef924e"/><path d="M43.43,9.86l-.11.1s-.12-.05-.07-.11S43.37,9.84,43.43,9.86Z" style="fill:#ef9552"/><path d="M29.72,3.36l-.23.07h-.26A.76.76,0,0,1,29.72,3.36Z" style="fill:#ea7e2f"/><path d="M29.76,3.07A.79.79,0,0,1,30.22,3,.68.68,0,0,1,29.76,3.07Z" style="fill:#ea7e2f"/><path d="M1,27.91l0,.06s0,0,0,0L1,28Z" style="fill:#ee8d47"/><path d="M30.48,3a.81.81,0,0,1,.46-.08A.68.68,0,0,1,30.48,3Z" style="fill:#ea7e2f"/><path d="M32.54,23.3a15.73,15.73,0,0,1,2.38.24,2.67,2.67,0,0,1,1.3.78A1.11,1.11,0,0,1,36,25.91a13.52,13.52,0,0,1-3.17,1.61,30,30,0,0,1-7,1.41,2.14,2.14,0,0,1-1.31-.24,1,1,0,0,1-.45-1.61,5.82,5.82,0,0,1,3.05-2.44,19.35,19.35,0,0,1,4.09-1.25C31.64,23.34,32.09,23.34,32.54,23.3Z" style="fill:#e97d2e"/><path d="M40.38,25.92l-1.08-.09c-1-.1-1.35-.93-1.36-1.77,0-.45.34-.71.68-.94a6.1,6.1,0,0,1,4.21-.81,7.73,7.73,0,0,1,.84.13,1.13,1.13,0,0,1,.76,1.74,3.33,3.33,0,0,1-1.66,1.32A6.06,6.06,0,0,1,40.38,25.92Z" style="fill:#e97d2e"/><path d="M49.31,30.86v.07H49C49.11,30.82,49.22,30.87,49.31,30.86Z" style="fill:#f8caaa"/><path d="M9.05,31.05A15,15,0,0,1,6.27,32.7,8.7,8.7,0,0,1,4,33.3a1.89,1.89,0,0,1-1.46-.4,1.3,1.3,0,0,1-.16-1.71c.24-.32.5-.63.74-1a9.06,9.06,0,0,1,5.33-3.62c.47,0,.93-.12,1.4-.1a1.4,1.4,0,0,1,1.24,2,5.6,5.6,0,0,1-1.75,2.25A2.44,2.44,0,0,0,9.05,31.05Z" style="fill:#e97d2e"/><path d="M15.73,48.5l1.63-1.19A24.26,24.26,0,0,1,20.1,45.7c.81-.27,1.62-.56,2.43-.8a12.2,12.2,0,0,1,2.39-.41.83.83,0,0,1,.94,1.19,3.83,3.83,0,0,1-1.35,1.7,29.26,29.26,0,0,1-4.69,2.94l-1.77.76a2.48,2.48,0,0,1-2.8-.61.87.87,0,0,1-.08-1.28C15.35,49,15.54,48.72,15.73,48.5Z" style="fill:#e97d2e"/><path d="M32.76,3.09h2A4.89,4.89,0,0,1,32.76,3.09Z" style="fill:#f9d3b7"/><path d="M52.64,32.41a.68.68,0,0,0-.51.54c-.17.54-.42,1.06-.55,1.62-.84,0-.84,0-.6-.81,0-.16.11-.31.16-.47.33-.9.33-.9,1.29-.88Z" style="fill:#f7c8a6"/><path d="M32.73,24.44a5.13,5.13,0,0,1,1.9.36c.13,0,.29.06.32.21s-.15.25-.27.32a18.28,18.28,0,0,1-3.76,1.52,23.2,23.2,0,0,1-5.3.81c-.08,0-.2,0-.24-.07s.06-.16.11-.23A5,5,0,0,1,27,26.15,13.3,13.3,0,0,1,32.73,24.44Z" style="fill:#f7c7a3"/><path d="M40.25,24.81a6.69,6.69,0,0,1-.77,0,.42.42,0,0,1-.38-.28c-.05-.21.1-.3.24-.39a3.93,3.93,0,0,1,2.49-.64,9,9,0,0,1,1,.11c.37.06.32.25.13.46a1.31,1.31,0,0,1-.56.29A4.52,4.52,0,0,1,40.25,24.81Z" style="fill:#f7c6a3"/><path d="M8.68,29.49a8.38,8.38,0,0,1-4.1,2.31c-.22.06-.52.19-.67,0s.1-.4.23-.58a6.94,6.94,0,0,1,4.19-3.13A2.45,2.45,0,0,1,8.68,29.49Z" style="fill:#f4ae7a"/><path d="M8.68,29.49a1.94,1.94,0,0,1-.35-1.44,5,5,0,0,1,1.09-.19c.14,0,.27,0,.35.13a.29.29,0,0,1-.07.33A8.15,8.15,0,0,1,8.68,29.49Z" style="fill:#f5b788"/><path d="M17.19,49a16.08,16.08,0,0,1,4.35-2.53,2.06,2.06,0,0,1,1,.21c.15.07.31.13.3.34a14.2,14.2,0,0,1-4.61,2.44,1.1,1.1,0,0,1-.74,0C17.29,49.38,17.13,49.28,17.19,49Z" style="fill:#f7c5a0"/><path d="M22.81,47.06a7.17,7.17,0,0,1-1.27-.55,13.49,13.49,0,0,1,2.79-.8c.07,0,.1.11,0,.15A10.2,10.2,0,0,1,22.81,47.06Z" style="fill:#f8ccac"/><path d="M17.19,49a2.38,2.38,0,0,0,1,.46l-.84.31a.7.7,0,0,1-.53-.05c-.21-.1-.3-.2,0-.38A4.1,4.1,0,0,0,17.19,49Z" style="fill:#f5b687"/><path d="M24.31,45.86s0-.1,0-.15.15-.12.18,0S24.39,45.83,24.31,45.86Z" style="fill:#ed8c46"/></g><g style="mask:url(#mask)"><rect x="41" y="18" width="171" height="38" style="fill:#fafafa"/><path d="M218.22,50.2C220.32,67,190.54,81.77,126,89.82S52.1,62.81,50,46s3.85-9,68.39-17.06S216.12,33.39,218.22,50.2Z" style="fill:#f6bd95;fill-opacity:0.5"/></g></svg>