<?xml version="1.0" encoding="utf-8"?>
<!-- Generator: Adobe Illustrator 23.0.3, SVG Export Plug-In . SVG Version: 6.00 Build 0)  -->
<svg version="1.1" id="Layer_1" xmlns="http://www.w3.org/2000/svg" xmlns:xlink="http://www.w3.org/1999/xlink" x="0px" y="0px"
	 viewBox="0 0 207 58" style="enable-background:new 0 0 207 58;" xml:space="preserve">
<style type="text/css">
	.st0{clip-path:url(#SVGID_2_);}
	.st1{fill:#E97D2E;}
	.st2{fill:#F0924C;}
	.st3{fill:#F1AA74;}
	.st4{fill:#F6B88A;}
	.st5{fill:#F7C7A4;}
	.st6{fill:#F8CEAF;}
	.st7{fill:#F7C7A3;}
	.st8{fill:#F6BD95;}
	.st9{fill:#F2A369;}
	.st10{fill:#F8CEAE;}
	.st11{fill:#F7C6A1;}
	.st12{fill:#F5B281;}
	.st13{fill:#F6B98C;}
	.st14{fill:#F4AE7B;}
	.st15{fill:#F4AF7B;}
	.st16{fill:#F8CAAA;}
	.st17{fill:#F6C29B;}
	.st18{fill:#F7C9A8;}
	.st19{fill:#F6C29C;}
	.st20{fill:#F8CFB1;}
	.st21{fill:#F7C6A3;}
	.st22{fill:#F2A368;}
	.st23{fill:#F7C6A2;}
	.st24{fill:#F8CBAB;}
	.st25{fill:#F8CCAD;}
	.st26{fill:#F8CBAA;}
	.st27{fill:#EA7B2C;}
	.st28{fill:#F6BD94;}
	.st29{fill:#F6BA90;}
	.st30{fill:#EB7E2F;}
	.st31{fill:#E97827;}
	.st32{fill:#E97726;}
	.st33{fill:#F8CDAB;}
	.st34{fill:#E87726;}
	.st35{fill:#EB7F33;}
	.st36{fill:#F8CFB0;}
	.st37{fill:#E87725;}
	.st38{fill:#EB843A;}
	.st39{fill:#F9D4B9;}
	.st40{fill:#E77523;}
	.st41{fill:#EE8A43;}
	.st42{fill:#EC833C;}
	.st43{fill:#F09A5A;}
	.st44{fill:#F1934E;}
	.st45{fill:#F19653;}
	.st46{fill:#EF8E47;}
	.st47{fill:#F9D3B7;}
	.st48{fill:#F7C8A6;}
	.st49{fill:#F6B889;}
	.st50{fill:#F5B788;}
	.st51{fill:#EE8D46;}
	.st52{fill:#FCFBFB;filter:url(#Adobe_OpacityMaskFilter);}
	.st53{fill:#FCFBFB;}
	.st54{mask:url(#mask0_2_);}
	.st55{fill:#F6BD95;fill-opacity:0.5;}
</style>
<g>
	<defs>
		<rect id="SVGID_1_" width="58" height="58"/>
	</defs>
	<clipPath id="SVGID_2_">
		<use xlink:href="#SVGID_1_"  style="overflow:visible;"/>
	</clipPath>
	<g class="st0">
		<path class="st1" d="M27.42,58c-0.21,0-0.43,0-0.63,0c-0.71-0.13-1.42-0.11-2.14-0.17c-1.76-0.14-3.45-0.63-5.11-1.19
			c-2.35-0.79-4.56-1.89-6.63-3.26c-1.25-0.81-2.41-1.75-3.52-2.75c-1.9-1.7-3.52-3.63-4.9-5.76c-2.14-3.28-3.57-6.85-4.24-10.71
			c-0.15-0.9-0.14-1.81-0.2-2.71C0.04,31.36,0.05,31.28,0,31.21c0-0.21,0-0.43,0-0.63c0.1-0.17,0.02-0.36,0.05-0.54
			C0.02,29.86,0.1,29.67,0,29.49c0-0.33,0-0.66,0-1c0.1-0.17,0.02-0.36,0.05-0.54C0.02,27.77,0.1,27.58,0,27.41
			c0-0.21,0-0.43,0-0.63c0.12-0.66,0.11-1.34,0.15-2.01c0.12-1.76,0.61-3.45,1.16-5.11c0.84-2.53,2.02-4.9,3.53-7.1
			c1.29-1.87,2.78-3.58,4.46-5.13c2.15-1.97,4.54-3.57,7.18-4.82c2.39-1.14,4.89-1.96,7.51-2.37c0.85-0.14,1.72-0.13,2.58-0.18
			c0.1-0.01,0.21,0.04,0.31-0.05c0.18,0,0.36,0,0.54,0c0.17,0.1,0.36,0.02,0.54,0.05C28.14,0.02,28.33,0.1,28.51,0
			c0.33,0,0.66,0,1,0c0.17,0.09,0.35,0.02,0.53,0.05C30.19,0.03,30.35,0.09,30.5,0c0.21,0,0.43,0,0.63,0
			c0.75,0.12,1.51,0.12,2.27,0.16c0.69,0.05,1.37,0.17,2.04,0.33c4.75,1.1,9,3.22,12.7,6.42c2.49,2.14,4.54,4.65,6.18,7.49
			c1.69,2.95,2.88,6.1,3.45,9.47c0.15,0.9,0.14,1.81,0.2,2.71c0.01,0.1-0.04,0.21,0.05,0.31c0,0.18,0,0.36,0,0.54
			c-0.1,0.17-0.02,0.36-0.05,0.54c0.03,0.18-0.05,0.37,0.05,0.54c0,0.33,0,0.66,0,1c-0.1,0.17-0.02,0.36-0.05,0.54
			c0.03,0.18-0.05,0.37,0.05,0.54c0,0.21,0,0.43,0,0.63c-0.12,0.66-0.11,1.34-0.15,2.01c-0.12,1.76-0.61,3.45-1.16,5.11
			c-0.84,2.53-2.02,4.9-3.53,7.1c-1.29,1.88-2.77,3.59-4.46,5.14c-2.15,1.97-4.54,3.57-7.18,4.82c-2.39,1.14-4.89,1.96-7.51,2.37
			c-0.85,0.14-1.72,0.13-2.58,0.18c-0.1,0.01-0.21-0.04-0.31,0.05c-0.21,0-0.43,0-0.63,0c-0.14-0.09-0.31-0.03-0.46-0.05
			c-0.18,0.03-0.36-0.05-0.53,0.05c-0.33,0-0.66,0-1,0c-0.17-0.1-0.36-0.02-0.54-0.05C27.78,57.98,27.59,57.91,27.42,58z"/>
		<path class="st2" d="M0,29.5c0.11,0.17,0.09,0.36,0.08,0.55C0.05,30.12,0.02,30.11,0,30.05C0,29.86,0,29.68,0,29.5z"/>
		<path class="st3" d="M27.95,0.08C27.77,0.06,27.58,0.16,27.41,0c0.18,0,0.36,0,0.54,0C28.03,0.04,28.02,0.06,27.95,0.08z"/>
		<path class="st2" d="M30.05,0.08C29.86,0.09,29.67,0.12,29.5,0c0.18,0,0.36,0,0.54,0C30.11,0.02,30.12,0.05,30.05,0.08z"/>
		<path class="st3" d="M0,27.42c0.16,0.15,0.06,0.35,0.08,0.53C0.06,28.03,0.04,28.03,0,27.96C0,27.78,0,27.6,0,27.42z"/>
		<path class="st2" d="M27.95,0.08c0-0.03,0.01-0.05,0.01-0.08c0.18,0,0.36,0,0.54,0C28.33,0.12,28.14,0.09,27.95,0.08z"/>
		<path class="st2" d="M0,27.96c0.03,0,0.05-0.01,0.08-0.01c0.01,0.19,0.04,0.38-0.08,0.55C0,28.33,0,28.14,0,27.96z"/>
		<path class="st3" d="M0,30.05c0.03,0,0.05,0.01,0.08,0.01C0.06,30.24,0.16,30.43,0,30.59C0,30.41,0,30.23,0,30.05z"/>
		<path class="st3" d="M27.42,58c0.15-0.16,0.35-0.06,0.53-0.08c0.07,0.02,0.07,0.05,0.01,0.08C27.78,58,27.6,58,27.42,58z"/>
		<path class="st2" d="M27.96,58c0-0.03-0.01-0.05-0.01-0.08c0.19-0.01,0.38-0.04,0.55,0.08C28.33,58,28.15,58,27.96,58z"/>
		<path class="st2" d="M29.5,58c0.17-0.12,0.36-0.09,0.55-0.08c0.06,0.04,0.05,0.06-0.01,0.08C29.86,58,29.68,58,29.5,58z"/>
		<path class="st3" d="M30.05,0.08c0-0.03-0.01-0.05-0.01-0.08c0.15,0,0.3,0,0.45,0C30.37,0.14,30.2,0.07,30.05,0.08z"/>
		<path class="st3" d="M30.05,58c0-0.03,0.01-0.05,0.01-0.08c0.15,0.01,0.32-0.06,0.44,0.08C30.34,58,30.19,58,30.05,58z"/>
		<path class="st4" d="M48.14,21.37c0.65,0.15,1.34-0.02,1.99,0.16c0.25,0.04,0.34,0.24,0.38,0.44c0.27,1.36,0.48,2.72,0.47,4.11
			c0,0.18-0.01,0.36-0.13,0.52c-3.07,0.05-6.13,0.25-9.17,0.71c-5.36,0.81-10.51,2.35-15.57,4.24c-2.65,0.99-5.29,2.05-7.84,3.27
			c-2.16,1.04-4.23,2.25-6.24,3.56c-0.46-0.05-0.86-0.7-0.72-1.16c1.8-1,3.61-2,5.42-3c1.56-0.85,3.12-1.69,4.68-2.55
			c0.54-0.3,0.75-0.71,0.66-1.21c-0.07-0.43-0.57-0.87-1.1-0.96c-1.53-0.26-2.24-1.5-1.76-3c0.1-0.29,0.32-0.43,0.55-0.57
			c1.76-1.04,3.65-1.71,5.61-2.21c2.02-0.51,4.07-0.81,6.13-1.12c1.23-0.19,2.46-0.43,3.69-0.63c1.28-0.21,2.57-0.27,3.86-0.36
			c1.28-0.1,2.55-0.16,3.83-0.24c0.49,0.08,0.99,0.04,1.48,0.04C45.63,21.38,46.88,21.45,48.14,21.37z"/>
		<path class="st5" d="M49.95,20.02c-1.49-0.03-2.98-0.16-4.47-0.1c-2.16,0.1-4.32,0.21-6.48,0.37c-4.99,0.38-9.92,1.06-14.76,2.33
			c-1.85,0.49-3.57,1.23-5.26,2.13c-0.87,0.47-1.15,1.19-1.24,2.05c-0.21,1.79,0.65,3.15,2.33,3.78c0.07,0.03,0.14,0.06,0.33,0.14
			c-3.27,1.79-6.54,3.38-9.63,5.28c-0.21,0.03-0.3-0.11-0.36-0.26c-0.24-0.51-0.38-1.04-0.54-1.57c-0.05-0.18-0.03-0.36,0.09-0.52
			c0.97-0.62,1.93-1.29,2.92-1.88c1.27-0.75,1.73-1.95,1.45-3.24c-0.39-1.85,0.5-2.94,1.82-3.86c1.53-1.06,3.19-1.87,4.89-2.62
			c3.62-1.6,7.41-2.6,11.3-3.22c2.64-0.43,5.29-0.8,7.96-1.01c2.16-0.18,4.33-0.33,6.49-0.33c0.12,0,0.24-0.02,0.36-0.03
			c0.4,0.07,0.8,0.02,1.19,0.04c0.4-0.06,0.63,0.12,0.81,0.47c0.19,0.37,0.34,0.76,0.49,1.15c0.1,0.26,0.25,0.5,0.35,0.76
			C50,19.94,49.98,19.98,49.95,20.02z"/>
		<path class="st5" d="M12.77,39.56c0.77-0.61,1.66-1.04,2.5-1.52c3.39-1.93,6.92-3.57,10.56-4.99c4.14-1.61,8.38-2.93,12.74-3.8
			c3.01-0.6,6.05-1.01,9.11-1.18c0.51,0.03,1.01,0.09,1.51-0.03c0.06-0.02,0.14-0.05,0.2-0.06c0.36,0.07,0.71,0.03,1.08,0.03
			c0.33,0,0.48,0.12,0.44,0.46c-0.06,0.58-0.05,1.17-0.14,1.76c-0.04,0.24-0.1,0.47-0.28,0.65c-0.36,0.09-0.73,0.02-1.1,0.05
			c-0.05,0-0.11,0-0.17,0c0.06,0,0.14,0,0.21,0c0.5,0,0.98-0.01,1.48-0.14c0.49-0.13,1.01-0.02,1.52,0c0.15,0.01,0.3,0.07,0.29,0.27
			c-2.4-0.07-4.79-0.01-7.16,0.3c-3.7,0.48-7.38,1.07-11.01,1.91c-3.92,0.91-7.76,2.09-11.48,3.61c-2.17,0.89-4.3,1.88-6.35,3.02
			c-0.84,0.47-1.68,0.93-2.52,1.39c-0.24,0.09-0.41-0.05-0.55-0.21c-0.29-0.34-0.58-0.69-0.86-1.04
			C12.69,39.86,12.69,39.72,12.77,39.56z"/>
		<path class="st6" d="M53.39,16c0.03,0.05,0.05,0.12,0.08,0.17c-0.05,0.05-0.09,0.07-0.15,0.06c-1.56-0.05-3.11,0.21-4.67,0.06
			c-0.68-0.06-1.37-0.01-2.05-0.1c-0.49-0.01-0.98-0.06-1.45,0.07c-0.33,0.1-0.66,0.07-0.99,0.02c-0.31-0.02-0.62-0.05-0.92,0.07
			c-0.24,0.09-0.47,0.07-0.71,0.01c-1.46,0.04-2.91,0.17-4.36,0.33c-3.78,0.39-7.51,1.04-11.19,2.03c-3.18,0.85-6.3,1.85-9.21,3.41
			c-1.48,0.8-2.84,1.76-4.08,2.9c-0.52,0.48-0.62,1.15-0.74,1.8c-0.14,0.78-0.09,1.57-0.04,2.34c0.04,0.57-0.14,0.98-0.64,1.32
			c-0.86,0.58-1.67,1.22-2.59,1.72c-0.21,0.11-0.32-0.01-0.36-0.18c-0.11-0.34-0.28-0.66-0.4-1c0-0.24,0.17-0.36,0.33-0.5
			c0.66-0.56,1.21-1.2,1.56-2.01c0.41-0.92-0.11-1.74-1.11-1.8c-0.48-0.03-0.95,0.17-1.43,0.07c-0.14-0.08-0.27-0.19-0.31-0.36
			c-0.14-0.67-0.18-1.35-0.1-2.03c1.71-1.14,3.57-2.01,5.44-2.84c3.41-1.53,6.94-2.76,10.48-3.95c4.21-1.42,8.56-2.24,12.97-2.72
			c2.41-0.26,4.81-0.51,7.25-0.53c0.09,0,0.17-0.04,0.26-0.06c0.47-0.11,0.96-0.04,1.43-0.05c0.62-0.02,1.24-0.01,1.86,0
			c0.11,0,0.24-0.06,0.33,0.07c0,0.02,0,0.04,0,0.06c-0.36,0.43-0.37,0.43-0.03,0.96c0.06,0.1,0.14,0.2,0.17,0.32
			c0.08,0.25,0.03,0.41-0.28,0.4c-0.6-0.01-1.2,0-1.8,0c0.06,0,0.14-0.01,0.2,0c1.14,0.09,2.26-0.17,3.38-0.24
			c0.51-0.03,1-0.02,1.51,0.06c0.44,0.07,0.91,0.09,1.38,0.08C52.73,15.97,53.07,15.95,53.39,16z"/>
		<path class="st4" d="M43.07,9.39c-1.13,0.04-2.25,0.02-3.38,0.11c-2.58,0.2-5.14,0.5-7.67,1.04c-3.45,0.73-6.86,1.61-10.21,2.69
			c-3.36,1.08-6.65,2.3-9.86,3.78c-1.29,0.6-2.52,1.29-3.78,1.92C8,18.95,7.94,18.82,7.95,18.71c0.09-0.81,0.08-1.66,0.64-2.34
			c0.78-0.57,1.63-1.03,2.48-1.48c2.95-1.55,5.99-2.89,9.14-3.97c2.81-0.98,5.67-1.86,8.55-2.59c2.45-0.62,4.92-1.14,7.43-1.46
			c0.76-0.1,1.51-0.22,2.27-0.33c1.47,0.44,2.66,1.35,3.86,2.26c0.16,0.13,0.33,0.26,0.53,0.33C42.98,9.16,43.1,9.21,43.07,9.39z"/>
		<path class="st4" d="M47.42,34.76c-1.1,0.09-2.19,0.17-3.28,0.28c-2.31,0.24-4.58,0.64-6.84,1.15c-3.34,0.75-6.59,1.82-9.76,3.09
			c-2.75,1.1-5.42,2.41-7.98,3.9c-0.57,0.33-1.16,0.65-1.73,0.97c-0.32,0.11-0.62,0.06-0.88-0.14c-0.53-0.41-1.1-0.76-1.57-1.25
			c-0.14-0.14-0.29-0.28-0.16-0.51c0.78-0.58,1.65-1,2.49-1.46c3.68-2.03,7.58-3.52,11.6-4.74c3.2-0.98,6.44-1.77,9.73-2.39
			c2.41-0.45,4.82-0.83,7.27-1.08c0.74-0.07,1.48-0.17,2.23-0.25c0.6-0.13,1.19-0.07,1.78-0.03c0.06,0,0.13,0,0.18,0.01
			c-0.18,0.8-0.14,1.67-0.72,2.34c-0.24,0.02-0.51-0.06-0.74,0.09C48.5,34.84,47.95,34.8,47.42,34.76z"/>
		<path class="st5" d="M42.34,13.03c-0.66,0.19-1.35,0.11-2.02,0.16c-3.27,0.26-6.52,0.71-9.74,1.34c-2.96,0.58-5.88,1.3-8.71,2.33
			c-3.92,1.43-7.86,2.81-11.59,4.67c-0.75,0.37-1.49,0.78-2.24,1.18c-0.19,0.1-0.31-0.02-0.33-0.17C7.62,22,7.6,21.45,7.73,20.9
			c0.03-0.11,0.13-0.2,0.24-0.26c0.64-0.52,1.39-0.84,2.11-1.21c6.03-3.11,12.4-5.28,19-6.83c3.29-0.78,6.63-1.37,10-1.72
			c1.29-0.14,2.6-0.32,3.91-0.12c0.52,0.08,1.05-0.16,1.57,0.02c0.04,0.46,0.4,0.72,0.65,1.05c0.17,0.23,0.38,0.43,0.53,0.67
			c0.08,0.13,0.17,0.26,0.09,0.42c-0.08,0.15-0.24,0.08-0.37,0.09C44.56,13,43.67,13,42.79,13C42.64,12.99,42.49,12.94,42.34,13.03z
			"/>
		<path class="st5" d="M35.76,5.52c-1.41,0.27-2.83,0.55-4.24,0.81c-4.49,0.82-8.79,2.3-13.06,3.85c-2.28,0.83-4.49,1.82-6.68,2.85
			c-0.82,0.39-1.63,0.84-2.44,1.26c-0.31-0.02-0.28-0.24-0.22-0.43c0.31-0.9,0.5-1.86,1.12-2.64c1.11-0.88,2.34-1.58,3.57-2.27
			c3.8-2.13,7.83-3.7,12.05-4.76c1.12-0.28,2.25-0.52,3.38-0.78c0.08-0.05,0.16-0.04,0.25-0.03c0.84,0.24,1.7,0.37,2.53,0.62
			c1.12,0.33,2.24,0.71,3.33,1.13C35.52,5.21,35.72,5.29,35.76,5.52z"/>
		<path class="st7" d="M18.92,45.08c4-2.43,8.23-4.37,12.66-5.88c3.54-1.2,7.17-2.05,10.87-2.61c2.15-0.33,4.33-0.49,6.52-0.56
			c0.25,0.04,0.48,0.11,0.39,0.44c-0.05,0.2,0.04,0.31,0.24,0.35c0.11,0.02,0.19,0.08,0.21,0.2c-0.72,0.17-1.47,0.06-2.21,0.14
			c-1.68,0.17-3.35,0.42-5,0.79c-2.54,0.57-5.08,1.18-7.51,2.14c-1.53,0.61-2.98,1.39-4.31,2.36c-1.23,0.9-1.74,2.41-1.32,3.94
			c0.09,0.33,0.02,0.46-0.27,0.62c-0.63,0.34-1.28,0.68-1.95,0.96c-0.86,0.18-1.68-0.03-2.5-0.24c-0.12-0.03-0.23-0.08-0.29-0.2
			c-0.1-0.24,0.04-0.39,0.21-0.53c0.4-0.32,0.68-0.72,0.9-1.18c0.33-0.67,0.05-1.11-0.69-1.08c-1,0.05-1.95,0.3-2.91,0.58
			c-0.63,0.19-1.24,0.44-1.88,0.6c-0.33-0.14-0.66-0.24-0.95-0.46C19,45.37,18.85,45.28,18.92,45.08z"/>
		<path class="st8" d="M45.16,50.12c-3.26,0.18-6.45,0.66-9.57,1.65c-0.03,0.01-0.06,0.01-0.09,0.01c-1.26,0.21-2.53,0.22-3.79,0.38
			c-0.23,0.03-0.44,0.07-0.67,0.08c-0.16,0.01-0.35,0.04-0.36-0.22c2.1-0.99,4.28-1.74,6.48-2.47c1.01-0.33,1.02-0.63,0.92-1.64
			c-0.03-0.29-0.16-0.58-0.25-0.86c0.04-0.13,0.12-0.22,0.24-0.25c0.82-0.24,1.61-0.58,2.45-0.75c0.07-0.02,0.15-0.01,0.23-0.01
			c0.41,0.77,0.78,0.9,1.66,0.81c1.7-0.19,3.38-0.52,5.1-0.61c0.82-0.04,1.65,0.05,2.44,0.32c0.24,0.08,0.33,0.18,0.11,0.4
			c-0.33,0.33-0.64,0.67-0.97,1c-0.67,0.42-1.31,0.88-1.94,1.36C46.53,49.76,45.89,50.05,45.16,50.12z"/>
		<path class="st6" d="M30.13,48.05c0.33-0.31,0.62-0.65,0.71-1.11c0.1-0.31,0.1-0.62,0-0.93c-0.12-0.34-0.12-0.71-0.14-1.07
			c-0.02-0.24,0.06-0.45,0.24-0.66c1.23-1.42,2.81-2.33,4.54-2.93c3.75-1.29,7.57-2.31,11.52-2.79c2.04-0.24,4.07-0.28,6.11-0.08
			c-0.01,0.38-0.22,0.6-0.55,0.72c-0.91,0.04-1.84,0.01-2.75,0.08c-1.95,0.16-3.88,0.4-5.78,0.85c-1.59,0.38-3.19,0.75-4.75,1.29
			c-1.31,0.45-2.54,1.08-3.69,1.86c-1.12,0.76-1.12,2.56-0.05,3.19c0.39,0.23,0.7,0.57,0.93,0.96c0.03,0.33-0.24,0.39-0.46,0.45
			c-0.63,0.18-1.29,0.33-1.95,0.37c-1.12,0.08-2.24,0.18-3.38,0.11C30.46,48.33,30.17,48.41,30.13,48.05z"/>
		<path class="st9" d="M44.76,51.57C39.9,55,34.45,56.52,28.54,56.52C33.56,53.57,38.9,51.76,44.76,51.57z"/>
		<path class="st10" d="M12.3,7.04c1.54-1.26,3.24-2.24,5.04-3.07c2.9-1.32,5.95-2.06,9.09-2.41c1.96-0.22,3.94-0.21,6.01-0.02
			C32,1.78,31.61,1.71,31.26,1.76c-1.53,0.23-3.03,0.55-4.54,0.88c-4.43,0.96-8.59,2.6-12.59,4.69c-0.82,0.43-1.63,0.9-2.44,1.37
			c-0.35,0.05-0.27-0.16-0.21-0.34C11.65,7.85,11.97,7.44,12.3,7.04z"/>
		<path class="st11" d="M30.13,48.05c0.74,0.2,1.49,0.11,2.24,0.07c1.06-0.05,2.14-0.1,3.18-0.37c0.32-0.08,0.66-0.11,0.92-0.33
			c0.07,0.11,0.17,0.22,0.22,0.33c0.14,0.32,0.14,0.55-0.29,0.67c-2.74,0.81-5.4,1.84-7.96,3.09c-0.52,0.25-1.05,0.52-1.57,0.78
			c-0.99,0.27-1.94-0.04-2.89-0.21c-0.24-0.05-0.5-0.1-0.73-0.19c-0.19-0.06-0.38-0.14-0.33-0.4c1.57-0.74,3.15-1.48,4.72-2.23
			C28.46,48.87,29.29,48.45,30.13,48.05z"/>
		<path class="st7" d="M40.72,46.05c-0.05,0.1-0.11,0.18-0.22,0.21c-0.91,0.24-1.76,0.64-2.7,0.81c-0.4-0.64-0.9-1.19-1.5-1.67
			c-0.41-0.32-0.36-0.64,0.07-0.93c2.61-1.73,5.53-2.61,8.57-3.14c0.49-0.09,0.98-0.15,1.47-0.24c0.05,0.04,0.11,0.04,0.17,0.04
			c0.38,0.03,0.42,0.1,0.24,0.43c-0.07,0.14-0.22,0.25-0.23,0.43c-0.91,0.22-1.86,0.33-2.76,0.62c-0.91,0.27-1.81,0.6-2.43,1.36
			C40.93,44.56,40.48,45.19,40.72,46.05z"/>
		<path class="st12" d="M20.91,50.95c-1.21,0.61-2.43,1.2-3.64,1.81c-0.08,0.04-0.18,0.06-0.24,0.13c-0.52,0.49-0.98,0.31-1.5-0.02
			c-1.3-0.81-2.61-1.63-3.82-2.57c-0.19-0.14-0.33-0.26-0.05-0.47c0.96-0.71,1.88-1.46,2.91-2.05c0.47,0.16,1,0.21,1.28,0.72
			c0.06,0.27-0.14,0.41-0.29,0.57c-0.71,0.83-0.32,1.29,0.38,1.68c0.68,0.38,1.38,0.46,2.11,0.12c0.43-0.2,0.88-0.38,1.32-0.56
			c0.15-0.06,0.3-0.15,0.47-0.09c0.22,0.2,0.52,0.19,0.76,0.35C20.75,50.65,20.92,50.72,20.91,50.95z"/>
		<path class="st13" d="M22.91,51.5c0.79,0.41,1.67,0.48,2.52,0.62c0.47,0.07,0.95,0.12,1.43,0.18c-0.43,0.26-0.86,0.54-1.3,0.8
			c-1.13,0.66-2.21,1.4-3.25,2.19c-0.24,0.18-0.44,0.22-0.74,0.14c-1.25-0.34-2.46-0.76-3.74-1.37C19.53,53.1,21.21,52.3,22.91,51.5
			z"/>
		<path class="st14" d="M15.19,42.25c0.75,0.8,1.55,1.54,2.62,1.9c-1.57,0.88-3.05,1.9-4.6,2.81c-0.28,0.11-0.5,0.01-0.72-0.18
			c-0.46-0.38-0.94-0.74-1.38-1.14c-0.18-0.16-0.37-0.33-0.18-0.61C12.32,44.05,13.72,43.1,15.19,42.25z"/>
		<path class="st8" d="M9.95,33.67c0.23,0.81,0.44,1.61,0.82,2.36c-1.52,0.91-3.04,1.83-4.56,2.74c-0.1,0.06-0.22,0.1-0.33,0.15
			c-0.28,0.04-0.41-0.15-0.52-0.36c-0.24-0.46-0.48-0.94-0.71-1.41c-0.1-0.21-0.13-0.4,0.05-0.59C6.43,35.54,8.2,34.62,9.95,33.67z"
			/>
		<path class="st12" d="M30.67,52.02c0.73,0,1.45-0.19,2.18-0.21c0.88-0.03,1.76-0.26,2.64-0.04c-0.86,0.32-1.73,0.62-2.58,0.96
			c-2.14,0.88-4.22,1.87-6.16,3.12c-0.57,0.36-1.16,0.4-1.77,0.34c-0.39-0.04-0.77-0.14-1.15-0.22c-0.02-0.21,0.15-0.23,0.25-0.3
			c2.03-1.42,4.22-2.56,6.46-3.62C30.58,52.04,30.62,52.04,30.67,52.02z"/>
		<path class="st15" d="M46.85,43.33c1.24-0.24,2.49-0.41,3.74-0.55c0.79-0.09,1.57-0.22,2.43-0.16c-0.54,0.87-0.96,1.73-1.57,2.47
			c-0.15,0.18-0.3,0.24-0.54,0.15c-0.61-0.2-1.23-0.24-1.86-0.28c-1.92-0.12-3.81,0.18-5.69,0.46c-0.07-0.3,0.14-0.4,0.35-0.48
			c0.92-0.35,1.78-0.83,2.63-1.33C46.5,43.52,46.76,43.58,46.85,43.33z"/>
		<path class="st16" d="M35.76,5.52c-0.81-0.29-1.64-0.58-2.45-0.87c-1.03-0.36-2.09-0.64-3.17-0.84c-0.28-0.05-0.52-0.23-0.91-0.17
			c0.14-0.11,0.22-0.15,0.28-0.2c0.06-0.05,0.15-0.05,0.23-0.07c0.02,0.01,0.03,0.01,0.05,0c0.18-0.12,0.4,0.01,0.58-0.09
			c0.02,0.01,0.04,0.01,0.05-0.01c0.24-0.13,0.5,0.03,0.73-0.09h-0.01c0.29-0.14,0.62,0.03,0.91-0.1h-0.01
			c0.24-0.1,0.48-0.04,0.71-0.05c0.68,0.05,1.37,0.06,2.05-0.01c0.73,0.04,1.48-0.08,2.21,0.05c0.24,0.03,0.48,0.05,0.72,0.08
			c0.01,0.29-0.22,0.27-0.41,0.29c-0.55,0.08-1.06-0.17-1.48-0.2c1.06,0.13,2.1,0.64,3.14,1.13c0.3,0.14,0.58,0.32,0.91,0.37
			c0.14,0.03,0.31,0.07,0.27,0.28C38.7,5.19,37.23,5.45,35.76,5.52z"/>
		<path class="st4" d="M53.3,21.79c0.78,0.06,1.56,0.12,2.24,0.54c0.23,0.14,0.37,0.28,0.42,0.54c0.2,1.14,0.43,2.27,0.55,3.42
			c0.02,0.19,0,0.32-0.21,0.28c-0.91-0.16-1.82-0.03-2.73,0.01c-0.12-0.15-0.13-0.33-0.13-0.52c0.01-1.22-0.14-2.43-0.31-3.63
			C53.1,22.21,53.04,21.96,53.3,21.79z"/>
		<path class="st8" d="M12.77,39.56c0.42,0.62,0.87,1.22,1.45,1.71c-0.84,0.54-1.69,1.09-2.53,1.63c-0.61,0.39-1.2,0.79-1.81,1.18
			c-0.46,0-1.51-1-1.53-1.47c0-0.06,0.04-0.12,0.07-0.16C9.81,41.39,11.24,40.41,12.77,39.56z"/>
		<path class="st11" d="M7.86,24.42c0.15,0.2,0.21,0.43,0.19,0.67c-0.03,0.41,0.03,0.81,0.09,1.2c0.03,0.19,0.1,0.31,0.3,0.33
			c0.02,0.23-0.16,0.27-0.32,0.31c-1.43,0.35-2.6,1.15-3.67,2.12c-0.35,0.33-0.63,0.72-0.97,1.07c-0.16,0.16-0.32,0.28-0.54,0.15
			c-0.08-0.05-0.13-0.14-0.14-0.23c-0.1-0.75-0.33-1.5,0.01-2.24C4.4,26.52,6.07,25.38,7.86,24.42z"/>
		<path class="st8" d="M7.96,20.63c-0.17,0.62-0.07,1.25-0.07,1.87c0,0.1,0.07,0.16,0.15,0.21c-0.99,0.6-1.97,1.19-2.94,1.8
			c-0.74,0.47-1.48,0.97-2.21,1.46c-0.18,0.01-0.24-0.13-0.24-0.26c0.05-0.68-0.06-1.38,0.33-2C4.62,22.65,6.22,21.51,7.96,20.63z"
			/>
		<path class="st8" d="M10.23,11.23c-0.14,0.79-0.58,1.48-0.77,2.25c-0.06,0.26-0.29,0.51-0.14,0.81c-1.56,0.95-3.03,2.04-4.55,3.05
			c-0.32-0.08-0.17-0.3-0.11-0.46C5,16,5.38,15.13,5.96,14.37c0.72-0.68,1.52-1.27,2.33-1.84C8.92,12.09,9.53,11.58,10.23,11.23z"/>
		<path class="st15" d="M8.59,16.35c-0.14,0.68-0.29,1.37-0.42,2.05c-0.04,0.17-0.07,0.35-0.01,0.52c-1.57,0.9-3.11,1.83-4.63,2.79
			c-0.33,0.08-0.35-0.14-0.32-0.35c0.1-0.62,0.23-1.24,0.68-1.73c0.86-0.79,1.83-1.44,2.8-2.09C7.3,17.12,7.91,16.69,8.59,16.35z"/>
		<path class="st5" d="M54.11,27.97c0.75,0.05,1.49,0.23,2.24,0.11c0.24-0.04,0.31,0.07,0.29,0.27c-0.08,0.93-0.09,1.86-0.08,2.8
			c0,0.24-0.14,0.21-0.3,0.19c-0.91-0.12-1.82-0.26-2.73-0.29c-0.2-0.01-0.39-0.02-0.59-0.03c-0.05-0.14,0.15-0.2,0.12-0.33
			c0.09-0.62,0.16-1.24,0.24-1.86c0.02-0.13,0.05-0.26,0.06-0.38c0.03-0.34,0.2-0.48,0.53-0.43C53.96,28.02,54.04,28.01,54.11,27.97
			z"/>
		<path class="st13" d="M2.81,27.79c0.14,0.81-0.04,1.67,0.3,2.45c0.14,0.22,0.01,0.36-0.13,0.52c-0.19,0.21-0.38,0.43-0.51,0.69
			c-0.36,0.74,0.06,1.48,0.91,1.63C3.6,33.11,3.85,33.05,4,33.27c-0.19,0.5,0.02,0.96,0.14,1.42c0.04,0.14,0.05,0.3,0.03,0.44
			c-0.48,0.3-0.98,0.59-1.45,0.91c-0.27,0.18-0.36,0.06-0.43-0.19c-0.28-1.15-0.46-2.33-0.61-3.5c-0.11-0.93-0.22-1.87-0.33-2.81
			c-0.05-0.41,0.03-0.73,0.39-0.98C2.11,28.31,2.45,28.05,2.81,27.79z"/>
		<path class="st9" d="M10.93,45.04c0.13,0.43,0.51,0.62,0.81,0.86c0.48,0.37,0.89,0.85,1.47,1.07c-0.84,0.61-1.68,1.21-2.52,1.84
			c-0.25,0.19-0.43,0.18-0.66-0.04c-0.52-0.49-1.08-0.96-1.63-1.43c-0.2-0.17-0.22-0.32-0.01-0.47
			C9.26,46.26,10.1,45.66,10.93,45.04z"/>
		<path class="st17" d="M43.07,9.39c-0.39-0.05-0.69-0.25-0.99-0.5c-0.97-0.81-2.05-1.48-3.18-2.03c-0.17-0.08-0.37-0.14-0.44-0.35
			c1.14-0.13,2.28-0.26,3.44-0.19c0.47-0.14,0.85,0.11,1.2,0.33c1,0.64,1.9,1.4,2.77,2.21c0.31,0.28,0.31,0.37,0.08,0.55
			c-0.27-0.02-0.54,0.13-0.81-0.01c-0.23-0.43-0.68-0.57-1.02-0.84c-0.43-0.33-0.9-0.66-1.24-0.94c0.49,0.32,0.92,0.86,1.39,1.35
			c0.12,0.12,0.23,0.25,0.08,0.43C43.91,9.43,43.48,9.51,43.07,9.39z"/>
		<path class="st8" d="M20.91,50.95c-0.35-0.23-0.8-0.3-1.09-0.62c-0.03-0.2,0.1-0.31,0.25-0.38c1.41-0.71,2.71-1.57,3.99-2.5
			c0.14-0.1,0.28-0.17,0.45-0.05c0.7,0.33,1.47,0.33,2.2,0.47c0.18,0.04,0.35,0.06,0.53,0.1c-0.96,0.46-1.91,0.92-2.87,1.38
			C23.21,49.88,22.06,50.41,20.91,50.95z"/>
		<path class="st11" d="M4.18,35.12c-0.38-0.43-0.41-1-0.56-1.52c-0.08-0.27,0.25-0.18,0.36-0.3c0.05-0.22,0.25-0.25,0.43-0.28
			c1.51-0.24,2.81-0.97,4.05-1.81c0.17-0.12,0.33-0.34,0.6-0.15c0.27,0.16,0.31,0.45,0.41,0.71c0.06,0.15,0.02,0.37,0.23,0.45
			C7.93,33.32,6.05,34.22,4.18,35.12z"/>
		<path class="st4" d="M51.76,34.67c-0.06-0.01-0.13-0.01-0.19-0.02c-0.02-0.05-0.02-0.08,0.01-0.13c0.19-0.1,0.3-0.25,0.37-0.46
			c0.13-0.38,0.28-0.75,0.41-1.13c0.07-0.22,0.16-0.42,0.38-0.52c1.07,0.01,2.1,0.23,3.15,0.4c0.4,0.06,0.44,0.27,0.37,0.6
			c-0.09,0.44-0.17,0.88-0.26,1.32c-0.52,0.13-1.02,0.11-1.54,0.01c-0.06-0.02-0.13-0.05-0.19-0.06
			C53.45,34.73,52.61,34.71,51.76,34.67z"/>
		<path class="st15" d="M11.32,37.21c0.22,0.4,0.41,0.81,0.72,1.16c-1.51,1-3.02,1.98-4.53,2.98c-0.55-0.1-1.04-0.79-0.9-1.27
			C8.14,39.08,9.73,38.14,11.32,37.21z"/>
		<path class="st18" d="M51.85,21.62c0.3,0,0.61,0,0.9,0.08c0.19,0.16,0.28,0.37,0.33,0.62c0.24,1.19,0.29,2.39,0.33,3.59
			c0.02,0.59-0.06,0.64-0.64,0.64c-0.23,0-0.45-0.02-0.68,0c-0.36,0.03-0.53-0.12-0.54-0.48c-0.05-1.24-0.31-2.44-0.52-3.67
			C50.86,21.53,50.91,21.48,51.85,21.62z"/>
		<path class="st4" d="M45.95,9.43c0.07-0.2-0.1-0.27-0.2-0.36c-1.01-0.91-2.07-1.77-3.22-2.52c-0.2-0.13-0.4-0.22-0.63-0.21
			c0.44-0.22,0.9-0.04,1.32,0.03c2.24,0.32,3.96,1.5,5.36,3.28c-0.51-0.08-1.01,0.02-1.49-0.1C46.7,9.44,46.3,9.72,45.95,9.43z"/>
		<path class="st19" d="M51.86,21.62c-0.76,0.02-0.74,0.01-0.62,0.74c0.22,1.24,0.51,2.48,0.52,3.75c0,0.29,0.14,0.39,0.42,0.41
			c1.03,0.05,1.1-0.02,1.03-1.1c-0.09-1.25-0.2-2.49-0.44-3.71c0.19-0.02,0.37,0.04,0.54,0.09c0.11,0.97,0.22,1.95,0.31,2.91
			c0.06,0.62,0.13,1.26-0.05,1.88c-0.9,0.02-1.81,0.08-2.71,0.01c-0.17-0.66-0.07-1.35-0.17-2.02c-0.15-1.02-0.2-2.07-0.56-3.06
			C50.71,21.46,51.29,21.52,51.86,21.62z"/>
		<path class="st12" d="M8.42,42.45c0.33,0.68,0.91,1.13,1.45,1.63c-0.79,0.59-1.57,1.17-2.34,1.76c-0.17,0.13-0.28,0.11-0.41-0.07
			c-0.29-0.43-0.59-0.84-0.9-1.25c-0.16-0.22-0.13-0.39,0.08-0.53C7.01,43.48,7.67,42.9,8.42,42.45z"/>
		<path class="st20" d="M53.39,16c-0.79,0.22-1.58,0.11-2.37,0.07c-0.57-0.03-1.13-0.02-1.7,0c-1.29,0.05-2.58,0.02-3.87-0.06
			c0.66,0,1.32,0,1.99,0c0.14,0,0.33,0.07,0.41-0.1c0.06-0.15-0.07-0.28-0.15-0.4c-0.17-0.26-0.36-0.52-0.54-0.78
			c-0.17-0.24-0.1-0.35,0.19-0.35c0.18,0,0.36,0,0.54,0c1,0,2,0.05,2.98,0.28c0.52,1.4,0.54,1.09,1.72,1.13
			c0.24,0.01,0.5-0.13,0.74,0.03C53.34,15.89,53.37,15.95,53.39,16z"/>
		<path class="st8" d="M15.73,48.5c-0.27-0.14-0.55-0.27-0.82-0.42c-0.14-0.07-0.3-0.14-0.34-0.32c1.39-0.99,2.9-1.8,4.36-2.69
			c0.38,0.23,0.72,0.53,1.19,0.62c0.06,0.24-0.11,0.33-0.27,0.4c-1.33,0.6-2.46,1.49-3.62,2.35C16.05,48.58,15.91,48.65,15.73,48.5z
			"/>
		<path class="st7" d="M53.57,17.65c0.36-0.03,0.56,0.13,0.71,0.47c0.28,0.68,0.62,1.33,0.93,2c0.14,0.32,0.07,0.44-0.29,0.39
			c-0.53-0.08-1.08-0.12-1.6-0.22c-0.31-0.06-0.62,0.18-0.9-0.05c0.07-0.25,0.25-0.19,0.43-0.14c-0.17-0.05-0.25-0.19-0.32-0.35
			c-0.2-0.53-0.36-1.08-0.56-1.61c-0.12-0.33-0.03-0.43,0.32-0.45C52.71,17.67,53.14,17.74,53.57,17.65z"/>
		<path class="st12" d="M4.71,36.56c0.27,0.84,0.67,1.63,1.19,2.35c-0.57,0.34-1.13,0.68-1.69,1.02c-0.26,0.16-0.42,0.14-0.53-0.18
			c-0.23-0.64-0.48-1.27-0.72-1.89c-0.07-0.19-0.09-0.34,0.15-0.43C3.67,37.22,4.16,36.84,4.71,36.56z"/>
		<path class="st7" d="M40.17,5.06c-1.67-0.44-3.1-1.47-4.81-1.83c0.46-0.07,0.9-0.06,1.34,0c0.33,0.05,0.69,0.09,1.02-0.06
			c1.77,0,3.24,0.86,4.71,1.71c-0.5,0.11-1,0.02-1.5,0.05c-0.15,0.01-0.33-0.05-0.47,0.05C40.36,5.01,40.27,5.03,40.17,5.06z"/>
		<path class="st10" d="M53.2,30.86c0.03,0.01,0.06,0.01,0.09,0.02c0,0,0,0.05-0.01,0.05c-0.12,0.04-0.23,0.06-0.34,0.09
			c-0.06,0-0.13,0.01-0.19,0.01c-0.17-0.12-0.37-0.09-0.57-0.09c-0.96-0.01-1.91-0.01-2.87-0.01c-0.06-0.02-0.06-0.05,0-0.07
			c0.39,0,0.79,0,1.18,0c0.08-0.08,0.17-0.18,0.3-0.19c0.49-0.04,0.62-0.38,0.63-0.79c0.03-0.52,0.14-1.04,0.12-1.57
			c-0.01-0.28,0.1-0.41,0.4-0.4c0.43,0.02,0.87,0,1.31,0.01c0.24,0.15,0.12,0.37,0.1,0.56c-0.07,0.67-0.22,1.33-0.24,2
			C53.1,30.62,53.09,30.75,53.2,30.86z"/>
		<path class="st9" d="M6.6,40.07c0.19,0.5,0.6,0.85,0.9,1.27c-0.62,0.45-1.24,0.9-1.85,1.36c-0.27,0.21-0.43,0.15-0.62-0.13
			c-0.65-1.01-0.66-1.01,0.31-1.68C5.76,40.62,6.18,40.34,6.6,40.07z"/>
		<path class="st6" d="M49.95,20.02c0-0.04,0-0.07,0.01-0.11c0.32-0.3,0.29-0.64,0.13-1.01c-0.15-0.34-0.25-0.71-0.44-1.03
			c-0.14-0.24-0.12-0.37,0.2-0.35c0.39,0.02,0.78-0.05,1.17,0.04c0.2-0.07,0.4-0.07,0.6,0c0.26,0.71,0.58,1.42,0.78,2.16
			c0.1,0.38,0.02,0.45-0.36,0.47c-0.33,0.02-0.66-0.07-0.99-0.05c-0.2-0.02-0.4,0.04-0.6-0.03C50.25,20.07,50.1,20.05,49.95,20.02z"
			/>
		<path class="st21" d="M48.23,11.13c0.42,0.06,0.83,0.22,1.25,0.18c0.83-0.06,1.19,0.49,1.57,1.05c0.17,0.25,0.41,0.48,0.56,0.84
			c-0.24,0-0.45,0.03-0.65-0.01c-0.58-0.09-1.16-0.04-1.74-0.08c-0.32-0.55-0.8-0.99-1.16-1.51C47.85,11.28,47.83,11.25,48.23,11.13
			z"/>
		<path class="st4" d="M46.85,43.33c0.3,0.05,0.14,0.15,0.02,0.23c-0.33,0.2-0.66,0.41-1,0.59c-0.83,0.43-1.67,0.85-2.52,1.29
			c-0.11,0.01-0.21,0.03-0.32,0.04c-0.23,0.02-0.53,0.23-0.66,0.01c-0.1-0.16,0.18-0.37,0.32-0.55c0.66-0.85,1.6-1.19,2.61-1.39
			C45.8,43.43,46.33,43.39,46.85,43.33z"/>
		<path class="st10" d="M45.74,10.85c0.66-0.05,1.31,0.04,1.95,0.19c0.4,0.59,0.78,1.19,1.26,1.72c0.06,0.07,0.14,0.14,0.11,0.23
			c-0.03,0.12-0.14,0.09-0.23,0.09c-0.42-0.02-0.84,0.05-1.26-0.04c-0.57,0.13-1.13-0.02-1.69-0.02c-0.01-0.34,0.26-0.27,0.45-0.29
			c0.3-0.04,0.34-0.14,0.15-0.36c-0.37-0.43-0.59-0.99-1.14-1.25c-0.08-0.04-0.14-0.12-0.12-0.23c0.03-0.1,0.12-0.07,0.19-0.07
			C45.53,10.81,45.64,10.81,45.74,10.85z"/>
		<path class="st16" d="M45.74,10.85c-0.1,0.01-0.21,0.01-0.31,0.02c0.4,0.09,0.54,0.45,0.76,0.72c0.27,0.32,0.51,0.67,0.75,1
			c0.17,0.23,0.14,0.34-0.17,0.35c-0.3,0.01-0.6-0.06-0.89,0.07c-1.18,0-2.35,0.01-3.53,0.01c0.39-0.17,0.81-0.07,1.2-0.08
			c0.57-0.02,1.14,0,1.72-0.01c0.13,0,0.31,0.06,0.38-0.07c0.08-0.15-0.09-0.27-0.18-0.38c-0.43-0.53-0.87-1.07-1.3-1.6
			c0.11-0.17,0.26-0.09,0.38-0.13C44.95,10.74,45.35,10.73,45.74,10.85z"/>
		<path class="st16" d="M53.29,27.96c-0.39,0-0.78,0-1.17-0.01c-0.25-0.01-0.38,0.05-0.37,0.35c0.03,0.69-0.11,1.38-0.15,2.05
			c-0.03,0.41-0.2,0.52-0.56,0.49c-0.18-0.02-0.36,0-0.54,0c0.12-0.8,0.16-1.61,0.23-2.41c0.03-0.28-0.06-0.38-0.33-0.4
			c-0.33-0.02-0.66,0.06-0.98-0.07c1.3-0.05,2.61-0.13,3.91-0.09c0.08,0,0.17,0.05,0.25,0.07C53.48,28.04,53.39,28.05,53.29,27.96z"
			/>
		<path class="st7" d="M53.02,36.02c0.72,0.09,1.46-0.02,2.17,0.17c-0.1,0.33-0.73,0.85-1.08,0.86c-0.28,0.01-0.56,0.05-0.84-0.04
			c-0.93,0-1.86,0-2.79-0.01c0.14-0.54,0.63-0.95,1.15-0.96C52.1,36.05,52.57,36.11,53.02,36.02z"/>
		<path class="st12" d="M2.99,23.71c-0.04,0.64-0.07,1.28-0.12,1.92c-0.01,0.12-0.05,0.24,0.03,0.34c-0.41,0.33-0.81,0.66-1.21,1
			c-0.07,0.05-0.14,0.15-0.23,0.13c-0.14-0.04-0.09-0.17-0.09-0.27C1.27,25.45,1.81,24.41,2.99,23.71z"/>
		<path class="st22" d="M29.76,3.07c-0.26,0.05-0.53,0.06-0.8,0.14c-0.72,0.2-1.41,0.04-2.12-0.14c0.05-0.15,0.17-0.13,0.25-0.14
			c1.06-0.22,2.09-0.55,3.19-0.55c0.72,0,1.39,0.22,2.1,0.25c0.06,0.11-0.04,0.14-0.1,0.17c-0.45,0.04-0.9,0.07-1.35,0.11
			c-0.14,0.08-0.32-0.02-0.46,0.07c-0.09,0-0.17,0.01-0.26,0.01C30.07,3.09,29.9,2.98,29.76,3.07z"/>
		<path class="st23" d="M12.3,7.04c-0.11,0.48-0.41,0.88-0.6,1.33c-0.05,0.1-0.23,0.21-0.02,0.33c-1.06,0.66-2.12,1.33-3.18,1.99
			c-0.03-0.03-0.05-0.06-0.07-0.09C9.67,9.35,10.86,8.05,12.3,7.04z"/>
		<path class="st24" d="M50.99,17.55c-0.41,0-0.81,0-1.29,0c0.35,0.55,0.5,1.12,0.71,1.67c0.24,0.62,0.21,0.68-0.47,0.69
			c-0.28-0.02-0.35-0.24-0.43-0.45c-0.2-0.54-0.41-1.09-0.68-1.6c-0.1-0.19-0.21-0.33-0.43-0.31c-0.06-0.03-0.06-0.05,0-0.08
			C49.27,17.43,50.14,17.44,50.99,17.55z"/>
		<path class="st19" d="M51.57,34.57c0,0.03,0,0.05,0,0.08c-0.61,0-1.2,0-1.81-0.01c0.14-0.65,0.3-1.31,0.43-1.96
			c0.04-0.18,0.15-0.28,0.28-0.38c0.73-0.03,1.47-0.05,2.19,0.08c-0.01,0.02-0.02,0.04-0.03,0.05c-0.24,0.19-0.52,0.1-0.78,0.17
			c-0.23,0.06-0.39,0.17-0.43,0.41c-0.04,0.21-0.13,0.4-0.2,0.6c-0.2,0.59-0.2,0.59,0.31,0.9C51.57,34.52,51.57,34.55,51.57,34.57z"
			/>
		<path class="st10" d="M53.31,15.83c-0.16,0.17-0.36,0.19-0.58,0.19c-0.21-0.01-0.43,0-0.63,0c-0.9,0-1.09-0.14-1.4-1
			c-0.08-0.21,0.03-0.27,0.15-0.35c0.56,0.13,1.13,0.27,1.7,0.37C53.01,15.12,53.25,15.38,53.31,15.83z"/>
		<path class="st21" d="M49.86,41.54c-0.7,0.08-1.38,0.17-2.08,0.25c-0.51-0.08-0.53-0.14-0.22-0.55c0.11-0.14,0.07-0.24,0.02-0.35
			c0.62-0.14,1.27-0.17,1.91-0.18c0.26-0.08,0.53-0.03,0.81-0.04c0.25-0.01,0.57-0.06,0.36,0.39c-0.07,0.15,0.22,0.22,0.14,0.39
			h-0.01C50.47,41.57,50.15,41.41,49.86,41.54z"/>
		<path class="st8" d="M50.78,41.46c-0.03-0.02-0.05-0.03-0.08-0.05c-0.16-0.12-0.46,0.05-0.52-0.14c-0.06-0.21,0.25-0.28,0.4-0.48
			c-0.38-0.14-0.74-0.04-1.09-0.08c0.81-0.17,1.64-0.09,2.46-0.05c0.44,0.03,0.89,0.14,1.33,0.24c0.15,0.03,0.42,0.04,0.42,0.2
			c0,0.23-0.28,0.19-0.43,0.21c-0.62,0.06-1.26,0.08-1.88,0.12C51.17,41.43,50.98,41.44,50.78,41.46z"/>
		<path class="st9" d="M37.38,5.7c0.78-0.08,1.56-0.14,2.33-0.25c0.58-0.07,1.1-0.03,1.57,0.45c-0.36,0.13-0.71,0.06-1.04,0.1
			c-0.76,0.09-1.53,0.16-2.29,0.22c-0.41,0.03-0.78-0.13-1.12-0.36c0.08-0.11,0.18-0.07,0.26-0.08C37.17,5.71,37.29,5.79,37.38,5.7z
			"/>
		<path class="st25" d="M53.02,36.02c-0.43,0.18-0.86,0.06-1.29,0.08c-0.28,0.01-0.5,0.06-0.62,0.35c-0.12,0.28-0.34,0.44-0.62,0.56
			c-0.24,0.11-0.46,0.08-0.7,0.01c-0.1-0.01-0.21-0.01-0.32-0.02C48.94,37,48.93,37,49.11,36.5c0.08-0.22,0.07-0.37-0.15-0.48
			c0.46-0.01,0.91-0.19,1.38-0.03c0.26,0.09,0.52,0.1,0.79-0.01C51.76,36,52.39,36.01,53.02,36.02z"/>
		<path class="st9" d="M3.88,19.63c-0.15,0.55-0.31,1.1-0.45,1.66c-0.04,0.14-0.14,0.33,0.08,0.43C3.08,22,2.65,22.29,2.14,22.63
			C2.39,21.36,2.65,20.21,3.88,19.63z"/>
		<path class="st12" d="M5.96,14.38c-0.27,0.89-0.78,1.68-1.09,2.55c-0.05,0.14-0.17,0.25-0.11,0.42c-0.32,0.32-0.7,0.52-1.09,0.75
			C4.25,16.73,4.71,15.3,5.96,14.38z"/>
		<path class="st12" d="M45.16,50.12c1.15-0.36,2.03-1.19,3.03-1.8c0.27-0.16,0.55-0.3,0.87-0.35c-0.62,0.75-1.41,1.33-2.09,2.04
			c-0.12,0.12-0.26,0.14-0.42,0.13C46.08,50.13,45.62,50.12,45.16,50.12z"/>
		<path class="st26" d="M51.02,20.09c0.24,0,0.49-0.03,0.72,0c0.46,0.05,0.52-0.14,0.36-0.51c-0.21-0.52-0.38-1.04-0.6-1.56
			c-0.08-0.2-0.09-0.34,0.07-0.48c0.66,0.12,1.32,0.04,1.98,0.11c-0.36,0.16-0.74,0.06-1.11,0.08c-0.29,0.01-0.42,0.06-0.28,0.4
			c0.21,0.5,0.37,1.01,0.54,1.53c0.07,0.22,0.15,0.43,0.4,0.49c-0.24,0.03-0.47,0.05-0.71,0.09c-0.05,0.01-0.11,0.02-0.15,0.03
			c-0.24-0.1-0.52,0.03-0.76-0.07c-0.14-0.01-0.27-0.01-0.42-0.02C51.02,20.16,51,20.14,51.02,20.09z"/>
		<path class="st18" d="M44.33,9.42c-0.65-0.76-1.32-1.49-1.98-2.26c0.66,0.43,1.34,0.86,1.99,1.32c0.32,0.23,0.66,0.41,0.92,0.71
			c0.05,0.05,0.16,0.09,0.11,0.16c-0.04,0.05-0.16,0.05-0.24,0.07L45.1,9.43l-0.03-0.01C44.83,9.48,44.58,9.48,44.33,9.42z"/>
		<path class="st11" d="M52.56,39.19c-0.01-0.39,0.33-0.51,0.55-0.72c0.46,0.05,0.92,0.1,1.39,0.14c0.14,0.02,0.35,0.01,0.31,0.23
			c-0.05,0.22-0.04,0.59-0.33,0.55C53.84,39.34,53.19,39.35,52.56,39.19z"/>
		<path class="st16" d="M47.57,13.04c0.42,0,0.84,0,1.38,0c-0.39-0.19-0.52-0.44-0.66-0.72c-0.16-0.33-0.36-0.66-0.66-0.9
			c-0.18-0.14-0.15-0.26,0.04-0.37c0.18,0.03,0.36,0.06,0.54,0.09c-0.26,0.14-0.14,0.26,0,0.41c0.41,0.41,0.73,0.87,1.07,1.32
			c0.08,0.12,0.19,0.24-0.07,0.26C48.68,13.06,48.12,13.17,47.57,13.04z"/>
		<path class="st27" d="M46.61,16.2c1.99-0.01,3.98-0.02,5.97-0.02c0.3,0,0.6-0.01,0.9-0.01c-0.3,0.21-0.64,0.12-0.96,0.1
			c-0.52-0.03-1,0.08-1.49,0.2c-0.04,0.11-0.1,0.18-0.22,0.2c-0.43,0.01-0.88,0.05-1.3-0.09c-0.07-0.02-0.14-0.07-0.19-0.13
			C48.4,16.47,47.51,16.25,46.61,16.2z"/>
		<path class="st24" d="M53.29,27.96c0.1,0,0.19-0.01,0.29-0.01c0.17,0,0.35,0.01,0.52,0.01c-0.43,0.05-0.57,0.33-0.61,0.71
			c-0.08,0.72-0.19,1.45-0.29,2.17c-0.17-0.01-0.34-0.02-0.32-0.27C53.01,29.71,53.05,28.82,53.29,27.96z"/>
		<path class="st28" d="M53.29,37.01c0.56,0.04,1.1,0.01,1.41-0.58c0.1-0.19,0.36-0.12,0.51-0.24c0.23,0.04,0.49,0.05,0.42,0.38
			c-0.06,0.28-0.05,0.68-0.52,0.62C54.49,37.1,53.87,37.16,53.29,37.01z"/>
		<path class="st16" d="M47.57,40.89c0.14,0.03,0.3-0.03,0.45,0.08c-0.05,0.2-0.22,0.32-0.36,0.43c-0.26,0.23-0.1,0.31,0.1,0.39
			c-0.39,0.06-0.77,0.14-1.16,0.2c-0.27-0.13-0.12-0.32-0.02-0.43c0.26-0.3,0.11-0.4-0.17-0.48C46.81,41.02,47.19,40.96,47.57,40.89
			z"/>
		<path class="st19" d="M52.75,32.41c-0.21,0.61-0.43,1.21-0.62,1.82c-0.09,0.29-0.29,0.35-0.55,0.33c-0.2-0.19-0.13-0.42-0.05-0.62
			c0.11-0.31,0.24-0.61,0.33-0.92c0.12-0.42,0.35-0.62,0.79-0.62c0.02-0.01,0.03-0.02,0.05-0.03
			C52.71,32.38,52.73,32.39,52.75,32.41z"/>
		<path class="st29" d="M48.14,21.37c-0.14,0.08-0.29,0.08-0.43,0.08c-1.46,0-2.91,0-4.37,0c-0.15,0-0.3,0-0.43-0.08
			C44.64,21.37,46.39,21.37,48.14,21.37z"/>
		<path class="st30" d="M32.76,3.09c-0.24,0-0.49,0-0.72,0c0.14-0.1,0.32-0.09,0.48-0.1c1.34,0,2.68,0,4.02,0
			c0.16,0,0.33-0.01,0.47,0.11c-0.75-0.02-1.51-0.07-2.26-0.01C34.08,3.15,33.42,3.14,32.76,3.09z"/>
		<path class="st31" d="M47.86,14.33c-1.2-0.01-2.41-0.02-3.61-0.03c0.13-0.09,0.28-0.1,0.43-0.1c0.9,0,1.81,0,2.71,0
			C47.57,14.21,47.73,14.2,47.86,14.33z"/>
		<path class="st32" d="M51.76,34.67c0.84,0,1.68,0,2.52-0.01C53.45,34.81,52.61,34.8,51.76,34.67z"/>
		<path class="st33" d="M40.46,4.99c0.23-0.22,0.51-0.08,0.76-0.09c0.41-0.03,0.81-0.01,1.21-0.01c0.06,0.2-0.11,0.1-0.15,0.1
			C41.68,4.99,41.07,4.99,40.46,4.99z"/>
		<path class="st34" d="M50.31,32.3c-0.6,0.01-1.19,0.02-1.78,0.03C49.11,32.12,49.71,32.19,50.31,32.3z"/>
		<path class="st35" d="M50.86,20.72c-0.24-0.44-0.64-0.25-1-0.27c0.48-0.17,0.97-0.14,1.45,0C51.11,20.47,50.88,20.42,50.86,20.72z
			"/>
		<path class="st32" d="M47.42,34.76c0.53-0.01,1.07-0.02,1.61-0.03C48.5,34.92,47.95,34.86,47.42,34.76z"/>
		<path class="st10" d="M49.21,28.04c-0.5,0.2-1,0.12-1.51,0.03C48.2,28.05,48.71,28.05,49.21,28.04z"/>
		<path class="st36" d="M30.84,46c0.04-0.02,0.06-0.2,0.08-0.06c0.05,0.35,0.05,0.71,0,1.07c-0.02,0.14-0.05-0.05-0.08-0.06
			C30.84,46.62,30.84,46.31,30.84,46z"/>
		<path class="st37" d="M54.47,34.73c0.52,0,1.02-0.01,1.54-0.01C55.5,34.91,54.99,34.9,54.47,34.73z"/>
		<path class="st10" d="M48.41,17.48c0,0.03,0,0.05,0,0.08c-0.42-0.04-0.85,0.08-1.26-0.08C47.57,17.48,47.99,17.48,48.41,17.48z"/>
		<path class="st38" d="M2.33,23.89c-0.14,0.14-0.29,0.28-0.49,0.37C2.01,24.14,2.17,24.02,2.33,23.89z"/>
		<path class="st39" d="M51.12,35.99c-0.26,0.17-0.54,0.14-0.83,0.08c0-0.01,0-0.03,0.01-0.04c0.01-0.01,0.02-0.02,0.04-0.03
			C50.6,36,50.86,35.99,51.12,35.99z"/>
		<path class="st40" d="M44.16,16.29c0.33-0.01,0.66-0.01,0.99-0.02C44.82,16.43,44.49,16.42,44.16,16.29z"/>
		<path class="st35" d="M52.38,20.52c-0.06,0.01-0.12,0.02-0.18,0.03c-0.28-0.03-0.56,0-0.83-0.1
			C51.71,20.47,52.05,20.39,52.38,20.52z"/>
		<path class="st41" d="M49.48,17.09c-0.05-0.18-0.12-0.36-0.17-0.53c0-0.03,0-0.06,0-0.09c0.06,0,0.13,0.01,0.2,0.01
			c-0.13,0.25,0.11,0.42,0.15,0.62C49.61,17.1,49.55,17.1,49.48,17.09z"/>
		<path class="st30" d="M32.04,3.08c-0.29,0.13-0.61,0.06-0.91,0.1C31.41,3,31.73,3.1,32.04,3.08z"/>
		<path class="st8" d="M49.85,41.54c0.29-0.18,0.61-0.08,0.91-0.09C50.47,41.56,50.15,41.48,49.85,41.54z"/>
		<path class="st40" d="M42.52,16.38c0.24,0,0.47-0.01,0.71-0.01C43,16.57,42.77,16.47,42.52,16.38z"/>
		<path class="st35" d="M51.49,20.18c0.25-0.01,0.52,0,0.76,0.07C51.99,20.25,51.73,20.32,51.49,20.18z"/>
		<path class="st17" d="M44.33,9.41c0.25,0,0.5,0,0.75,0C44.83,9.49,44.58,9.51,44.33,9.41z"/>
		<path class="st42" d="M8.31,47.76c0.18,0.01,0.23,0.11,0.31,0.23C8.43,47.97,8.39,47.87,8.31,47.76z"/>
		<path class="st30" d="M32.29,2.8c0.04-0.05,0.06-0.12,0.1-0.17c0.09,0.03,0.26-0.03,0.22,0.12C32.58,2.85,32.4,2.79,32.29,2.8z"/>
		<path class="st30" d="M31.13,3.18c-0.24,0.11-0.49,0.06-0.73,0.09C30.63,3.11,30.89,3.19,31.13,3.18z"/>
		<path class="st35" d="M51.02,20.09c0.02,0.03,0.04,0.05,0.05,0.07c-0.23,0.01-0.45,0.05-0.67-0.06
			C50.62,20.1,50.81,20.1,51.02,20.09z"/>
		<path class="st43" d="M37.38,5.7c-0.01,0.35-0.18,0.09-0.29,0.07C37.19,5.76,37.28,5.73,37.38,5.7z"/>
		<path class="st30" d="M30.35,3.27c-0.19,0.03-0.39,0.05-0.58,0.09C29.95,3.23,30.15,3.27,30.35,3.27z"/>
		<path class="st44" d="M1.64,23.38c-0.01-0.02-0.02-0.05-0.04-0.06c0.02-0.01,0.05-0.03,0.06-0.03c0.01,0,0.02,0.04,0.04,0.05
			C1.68,23.36,1.66,23.38,1.64,23.38z"/>
		<path class="st45" d="M43.43,9.86c-0.04,0.04-0.07,0.07-0.11,0.11c-0.05-0.03-0.12-0.05-0.07-0.12
			C43.29,9.77,43.37,9.84,43.43,9.86z"/>
		<path class="st30" d="M29.72,3.36c-0.07,0.03-0.14,0.05-0.23,0.07c-0.09,0-0.18,0-0.26,0C29.38,3.33,29.56,3.35,29.72,3.36z"/>
		<path class="st30" d="M29.76,3.07c0.14-0.08,0.3-0.09,0.46-0.08C30.07,3.09,29.92,3.08,29.76,3.07z"/>
		<path class="st46" d="M1.03,27.91c0.01,0.02,0.03,0.05,0.04,0.06c0,0.01-0.03,0.03-0.03,0.03C1.02,27.99,1,27.97,0.98,27.96
			C1,27.94,1.01,27.93,1.03,27.91z"/>
		<path class="st30" d="M30.48,2.98c0.14-0.09,0.3-0.08,0.46-0.07C30.8,3,30.63,2.99,30.48,2.98z"/>
		<path class="st1" d="M32.54,23.3c0.8,0.03,1.59,0.09,2.38,0.24c0.53,0.1,0.92,0.44,1.29,0.78c0.42,0.39,0.29,1.24-0.22,1.59
			c-0.98,0.7-2.05,1.19-3.17,1.61c-2.26,0.85-4.64,1.12-7.02,1.41c-0.45,0.05-0.9-0.03-1.31-0.24c-0.69-0.37-0.84-0.95-0.44-1.61
			c0.72-1.19,1.78-1.95,3.04-2.43c1.33-0.51,2.66-1.05,4.09-1.25C31.64,23.34,32.09,23.34,32.54,23.3z"/>
		<path class="st1" d="M40.38,25.92c-0.36-0.03-0.72-0.05-1.08-0.09c-1.01-0.1-1.36-0.93-1.37-1.76c0-0.45,0.34-0.71,0.69-0.94
			c1.29-0.86,2.72-0.97,4.21-0.81c0.28,0.03,0.57,0.08,0.84,0.14c0.82,0.17,1.2,1.03,0.76,1.74c-0.4,0.63-0.99,1.05-1.67,1.32
			C42.01,25.81,41.21,25.93,40.38,25.92z"/>
		<path class="st16" d="M49.31,30.86c0,0.03,0,0.05,0,0.07c-0.1,0-0.19,0-0.33,0C49.11,30.82,49.22,30.87,49.31,30.86z"/>
		<path class="st1" d="M9.05,31.05c-0.89,0.62-1.76,1.23-2.78,1.65C5.53,33,4.77,33.21,3.98,33.3c-0.52-0.03-1.05,0.03-1.47-0.4
			c-0.46-0.48-0.54-1.17-0.15-1.71c0.24-0.33,0.5-0.63,0.74-0.95c1.38-1.8,3.07-3.13,5.33-3.63c0.46-0.02,0.92-0.12,1.39-0.1
			c1.03,0.05,1.64,1.05,1.24,1.99c-0.38,0.91-0.98,1.65-1.75,2.25C9.21,30.85,9.14,30.95,9.05,31.05z"/>
		<path class="st1" d="M15.73,48.5c0.54-0.4,1.09-0.79,1.63-1.19c0.86-0.63,1.81-1.1,2.74-1.61c0.81-0.27,1.62-0.56,2.43-0.8
			c0.78-0.23,1.58-0.35,2.39-0.42c0.78-0.06,1.19,0.46,0.93,1.19c-0.25,0.72-0.77,1.24-1.35,1.7c-1.48,1.11-3.02,2.12-4.69,2.93
			c-0.59,0.25-1.18,0.52-1.77,0.76c-1,0.41-2.07,0.17-2.8-0.61c-0.4-0.43-0.43-0.82-0.08-1.29C15.35,48.95,15.54,48.72,15.73,48.5z"
			/>
		<path class="st47" d="M32.76,3.09c0.66,0,1.32,0,1.98-0.01C34.08,3.22,33.42,3.22,32.76,3.09z"/>
		<path class="st48" d="M52.64,32.41c-0.29,0.07-0.43,0.25-0.52,0.54c-0.16,0.54-0.42,1.06-0.54,1.62c-0.84,0-0.84,0-0.61-0.81
			c0.05-0.16,0.11-0.32,0.16-0.47c0.33-0.91,0.33-0.91,1.29-0.89C52.49,32.4,52.56,32.41,52.64,32.41z"/>
		<path class="st7" d="M32.73,24.44c0.66-0.01,1.29,0.13,1.9,0.35c0.13,0.05,0.29,0.06,0.32,0.22c0.03,0.19-0.15,0.24-0.27,0.32
			c-1.19,0.66-2.45,1.14-3.76,1.52c-1.73,0.51-3.51,0.71-5.3,0.81c-0.08,0.01-0.2,0.05-0.24-0.06c-0.04-0.1,0.05-0.16,0.11-0.24
			c0.42-0.51,0.93-0.9,1.5-1.2C28.79,25.18,30.68,24.54,32.73,24.44z"/>
		<path class="st21" d="M40.25,24.81c-0.25-0.01-0.52-0.01-0.77-0.04c-0.17-0.02-0.33-0.1-0.38-0.28c-0.05-0.21,0.1-0.3,0.24-0.39
			c0.75-0.53,1.6-0.66,2.49-0.64c0.34,0.01,0.69,0.06,1.03,0.12c0.37,0.05,0.32,0.24,0.13,0.45c-0.14,0.16-0.35,0.23-0.55,0.3
			C41.75,24.62,41.03,24.88,40.25,24.81z"/>
		<path class="st15" d="M8.68,29.49c-1.13,1.19-2.53,1.9-4.1,2.31c-0.22,0.05-0.52,0.19-0.67-0.04c-0.14-0.21,0.1-0.41,0.23-0.59
			c1-1.56,2.37-2.65,4.19-3.12C8.6,28.5,8.71,28.98,8.68,29.49z"/>
		<path class="st49" d="M8.68,29.49c-0.32-0.43-0.41-0.91-0.35-1.44c0.35-0.11,0.72-0.17,1.1-0.2c0.14-0.01,0.27-0.01,0.35,0.14
			c0.06,0.13,0,0.24-0.07,0.33C9.37,28.72,9.08,29.16,8.68,29.49z"/>
		<path class="st11" d="M17.19,49.04c1.31-1.08,2.77-1.91,4.34-2.53c0.34,0.01,0.68,0.05,0.99,0.21c0.14,0.07,0.31,0.14,0.3,0.34
			c-1.38,1.1-2.93,1.91-4.62,2.44c-0.25,0.07-0.51,0.05-0.74-0.05C17.29,49.38,17.13,49.28,17.19,49.04z"/>
		<path class="st25" d="M22.81,47.06c-0.43-0.2-0.9-0.27-1.28-0.55c0.89-0.4,1.84-0.6,2.79-0.8c0.07,0.05,0.1,0.11-0.01,0.15
			C23.82,46.28,23.38,46.74,22.81,47.06z"/>
		<path class="st50" d="M17.19,49.04c0.31,0.22,0.62,0.4,1,0.46c-0.28,0.1-0.56,0.21-0.84,0.31c-0.18,0.06-0.35,0.03-0.52-0.05
			c-0.21-0.1-0.31-0.2-0.05-0.37C16.92,49.29,17.05,49.16,17.19,49.04z"/>
		<path class="st51" d="M24.31,45.86c0-0.05,0.01-0.1,0.01-0.15c0.06-0.01,0.15-0.12,0.18-0.01C24.52,45.79,24.39,45.83,24.31,45.86
			z"/>
	</g>
</g>
<defs>
	<filter id="Adobe_OpacityMaskFilter" filterUnits="userSpaceOnUse" x="41" y="18" width="177.32" height="73.01">
		<feColorMatrix  type="matrix" values="1 0 0 0 0  0 1 0 0 0  0 0 1 0 0  0 0 0 1 0"/>
	</filter>
</defs>
<mask maskUnits="userSpaceOnUse" x="41" y="18" width="177.32" height="73.01" id="mask0_2_">
	<path class="st52" d="M75.5,18h6.15v17.56c0,1.63-0.38,3.08-1.14,4.36c-0.75,1.28-1.8,2.27-3.16,2.97
		c-1.35,0.7-2.85,1.05-4.52,1.05c-2.79,0-4.96-0.7-6.5-2.11c-1.55-1.41-2.32-3.4-2.32-5.98h6.19c0,1.17,0.2,2.02,0.6,2.55
		c0.41,0.53,1.09,0.79,2.04,0.79c0.86,0,1.51-0.32,1.97-0.95c0.47-0.64,0.7-1.54,0.7-2.69V18z"/>
	<path class="st53" d="M105.63,18v16.75c0,1.9-0.4,3.54-1.21,4.94c-0.81,1.38-1.97,2.44-3.48,3.16c-1.51,0.73-3.3,1.09-5.36,1.09
		c-3.12,0-5.57-0.81-7.37-2.43c-1.79-1.62-2.71-3.83-2.74-6.64V18h6.21v17c0.07,2.8,1.37,4.2,3.9,4.2c1.28,0,2.24-0.35,2.9-1.05
		c0.66-0.7,0.98-1.85,0.98-3.43V18H105.63z"/>
	<path class="st53" d="M115.66,34.91v8.68h-6.17V18h10.21c1.96,0,3.69,0.36,5.19,1.09c1.51,0.71,2.68,1.74,3.5,3.08
		c0.83,1.32,1.25,2.83,1.25,4.52c0,2.5-0.9,4.49-2.69,5.99c-1.78,1.49-4.23,2.23-7.35,2.23H115.66z M115.66,30.15h4.04
		c1.19,0,2.1-0.3,2.72-0.9c0.63-0.6,0.95-1.44,0.95-2.53c0-1.2-0.32-2.15-0.97-2.87c-0.64-0.71-1.52-1.08-2.64-1.09h-4.11V30.15z"/>
	<path class="st53" d="M139.52,43.59h-6.15V18h6.15V43.59z"/>
	<path class="st53" d="M163.37,22.76h-7.68v20.83h-6.17V22.76h-7.54V18h21.39V22.76z"/>
	<path class="st53" d="M181.86,32.75h-9.7v6.1h11.46v4.75h-17.63V18h17.67v4.76h-11.5v5.4h9.7V32.75z"/>
	<path class="st53" d="M195.64,34.56h-3.34v9.04h-6.17V18h10.07c3.04,0,5.41,0.67,7.12,2.02c1.71,1.35,2.57,3.25,2.57,5.71
		c0,1.78-0.36,3.26-1.09,4.43c-0.71,1.17-1.84,2.12-3.38,2.85l5.34,10.32v0.26h-6.61L195.64,34.56z M192.3,29.79h3.9
		c1.17,0,2.05-0.3,2.64-0.91c0.6-0.62,0.9-1.48,0.9-2.58c0-1.1-0.3-1.96-0.9-2.58c-0.6-0.63-1.48-0.95-2.64-0.95h-3.9V29.79z"/>
</mask>
<g class="st54">
	<rect x="41" y="18" class="st53" width="171" height="38"/>
	<path class="st55" d="M218.22,50.2c2.1,16.81-27.68,31.57-92.23,39.62C61.45,97.88,52.1,62.81,50,46c-2.1-16.81,3.85-9,68.39-17.06
		C182.94,20.89,216.12,33.39,218.22,50.2z"/>
</g>
<g>
	<path class="st8" d="M172.15,2.48h-3.77v10.16h-2.51V2.48h-3.66V0.41h9.94V2.48z"/>
	<path class="st8" d="M182.2,7.39h-4.79v3.32h5.71v2.06h-8.11V0.41h8.11v2.06h-5.6v2.85h4.79v2.06H182.2z"/>
	<path class="st8" d="M192.03,9.44c0-0.45-0.11-0.8-0.45-1.15c-0.34-0.23-0.91-0.57-1.83-0.8c-0.91-0.23-1.6-0.57-2.06-0.8
		c-1.37-0.8-2.06-1.71-2.06-2.96c0-0.68,0.23-1.26,0.57-1.71c0.34-0.57,0.91-0.91,1.6-1.26s1.49-0.45,2.28-0.45
		c0.91,0,1.6,0.11,2.28,0.45c0.68,0.34,1.26,0.8,1.6,1.37c0.34,0.57,0.57,1.26,0.57,1.94h-2.51c0-0.57-0.23-1.03-0.57-1.26
		c-0.34-0.34-0.8-0.45-1.49-0.45c-0.57,0-1.15,0.11-1.49,0.34c-0.34,0.23-0.45,0.57-0.45,1.03c0,0.34,0.23,0.68,0.57,1.03
		c0.34,0.23,1.03,0.57,1.71,0.8c1.49,0.45,2.51,0.91,3.09,1.6c0.68,0.68,1.03,1.49,1.03,2.4c0,1.03-0.34,1.83-1.15,2.51
		c-0.8,0.68-1.83,0.91-3.2,0.91c-0.91,0-1.83-0.23-2.51-0.57c-0.8-0.34-1.37-0.8-1.71-1.37c-0.45-0.57-0.57-1.26-0.57-2.06h2.51
		c0,1.37,0.8,2.06,2.4,2.06c0.57,0,1.03-0.11,1.37-0.34C191.91,10.24,192.03,9.9,192.03,9.44z"/>
	<path class="st8" d="M206.76,2.48h-3.77v10.16h-2.51V2.48h-3.66V0.41h9.94V2.48z"/>
</g>
</svg>
