<svg id="Layer_1" data-name="Layer 1" xmlns="http://www.w3.org/2000/svg" viewBox="0 0 37 37"><defs><style>.cls-1{fill:#0f74af;}</style></defs><title>Artboard 1</title><rect class="cls-1" x="10.76" y="17.31" width="15.57" height="2.56" transform="translate(-7.71 18.56) rotate(-45)"/><circle class="cls-1" cx="21.75" cy="23.07" r="1.92"/><path class="cls-1" d="M15.34,16a1.92,1.92,0,1,0-1.92-1.92A1.92,1.92,0,0,0,15.34,16Z"/><path class="cls-1" d="M18.55,1.16A17.34,17.34,0,1,0,35.89,18.5,17.35,17.35,0,0,0,18.55,1.16Zm9.28,24.21-.78,4.95-5-.79-3.55,3.54L15,29.48,10,30.3l-.8-5L4.73,23,7,18.55,4.74,14.1l4.5-2.32L10,6.87l5,.82,3.56-3.6L22.1,7.64l5-.78.79,4.94,4.5,2.3-2.27,4.49,2.28,4.48Z"/></svg>